<?xml version="1.0" standalone="no"?>
<!DOCTYPE svg PUBLIC "-//W3C//DTD SVG 1.1//EN" "http://www.w3.org/Graphics/SVG/1.1/DTD/svg11.dtd" >
<svg xmlns="http://www.w3.org/2000/svg">
<metadata></metadata>
<defs>
<font id="grafboldbold" horiz-adv-x="1622" >
<font-face units-per-em="2048" ascent="1638" descent="-410" />
<missing-glyph horiz-adv-x="811" />
<glyph horiz-adv-x="2048" />
<glyph horiz-adv-x="2048" />
<glyph unicode="&#xd;" horiz-adv-x="811" />
<glyph unicode=" "  horiz-adv-x="811" />
<glyph unicode="&#x09;" horiz-adv-x="811" />
<glyph unicode="&#xa0;" horiz-adv-x="811" />
<glyph unicode="+" horiz-adv-x="2048" />
<glyph unicode="?" d="M6 397v13q0 8 8 8h365q-72 82 -111 198h-114q-8 0 -9 9v12q0 8 9 8h104q-20 70 -20 160q0 82 18 156h-102q-8 0 -9 8v12q0 8 9 8h112q43 121 115 205h-367q-8 0 -8 8v12q0 8 8 9h394l6 6v391q0 8 8 8h12q8 0 8 -8v-365q74 66 176 107v119q0 8 9 8h12q8 0 8 -8v-111 q96 31 187 31q59 0 129 -17v97q0 8 8 8h12q8 0 8 -8v-103q127 -37 228 -118v360q0 8 8 8h12q8 0 8 -8v-387l10 -10h367q8 0 8 -9v-12q0 -8 -8 -8h-340q80 -96 115 -205h86q8 0 8 -8v-12q0 -8 -8 -8h-78q20 -82 20 -156q0 -82 -22 -160h80q8 0 8 -8v-12q0 -8 -8 -9h-88 q-35 -109 -113 -198h340q8 0 8 -8v-13q0 -8 -8 -8h-364l-13 -12v-367q0 -8 -8 -8h-12q-8 0 -8 8v340q-106 -86 -228 -119v-81q0 -8 -8 -9h-12q-8 0 -8 9v73q-59 -14 -129 -14q-96 0 -187 29v-88q0 -8 -8 -9h-12q-8 0 -9 9v100q-100 37 -176 104v-344q0 -8 -8 -8h-12 q-8 0 -8 8v373l-6 6h-394q-8 0 -8 8zM266 805q0 -90 23 -160h125v316h-125q-23 -68 -23 -156zM297 616q41 -114 117 -192v192h-117zM297 989h117v197q-82 -92 -117 -197zM442 418h176v198h-176v-198zM442 645h176v316h-176v-316zM442 989h176v205h-176v-205zM449 389 q75 -71 169 -108v108h-169zM451 1223h167v106q-90 -35 -167 -106zM647 270q86 -33 187 -32q72 0 129 16v135h-316v-119zM647 418h316v198h-316v-198zM647 645h316v316h-316v-316zM647 989h316v205h-316v-205zM647 1223h316v133q-70 16 -129 16q-92 0 -187 -33v-116zM991 260 q130 37 228 129h-228v-129zM991 418h228v198h-228v-198zM991 645h228v316h-228v-316zM991 989h228v205h-228v-205zM991 1223h226q-98 88 -226 125v-125zM1247 420q76 75 119 196h-119v-196zM1247 645h129q23 80 23 160q0 74 -21 156h-131v-316zM1247 989h121 q-39 113 -121 203v-203z" />
<glyph unicode="@" horiz-adv-x="1638" />
<glyph unicode="A" d="M4 397v13q0 8 8 8h293q0 27 47 26h2q-57 74 -88 172h-114q-8 0 -9 9v12q0 8 9 8h104q-20 70 -20 160q0 82 18 156h-102q-8 0 -9 8v12q0 8 9 8h112q43 121 115 205h-367q-8 0 -8 8v12q0 8 8 9h394l4 4v393q0 8 8 8h12q8 0 8 -8v-367q66 61 178 109v119q0 8 9 8h12 q8 0 8 -8v-111q47 16 111 27l14 41q6 39 33 39q23 0 28 -37l15 -39q66 -4 115 -17v97q0 8 8 8h12q8 0 8 -8v-103q127 -37 228 -118v360q0 8 8 8h12q8 0 8 -8v-387l10 -10h367q8 0 8 -9v-12q0 -8 -8 -8h-340q76 -96 115 -205h86q8 0 8 -8v-12q0 -8 -8 -8h-78q20 -82 20 -156 q0 -82 -22 -160h80q8 0 8 -8v-12q0 -8 -8 -9h-88q-31 -94 -99 -182q4 -4 9 -16h317q8 0 8 -8v-13q0 -8 -8 -8h-367q-6 -8 -10 -12v-367q0 -8 -8 -8h-12q-8 0 -8 8v340q-106 -86 -228 -119v-81q0 -8 -8 -9h-12q-8 0 -8 9v73q-59 -14 -130 -14q-96 0 -186 29v-88q0 -8 -8 -9 h-12q-8 0 -9 9v100q-100 37 -178 104v-344q0 -8 -8 -8h-12q-8 0 -8 8l-2 379h-396q-8 0 -8 8zM264 805q0 -90 23 -160h123v316h-123q-23 -68 -23 -156zM293 989h117v195q-80 -86 -117 -195zM295 616q37 -98 94 -167q9 2 21 8v159h-115zM438 489q23 39 41 93l13 34h-54v-127z M438 645h64l106 316h-170v-316zM438 989h178v205h-178v-205zM444 389q80 -71 172 -108v108h-172zM446 1223h170v106q-80 -31 -170 -106zM522 492q0 -47 92 -48h2v172h-59q-6 -14 -16 -45q-18 -43 -19 -79zM565 645h51v166zM645 270q83 -32 180 -32h6q73 0 130 16v135h-316 v-119zM645 442q18 -4 19 -24h208q4 27 52 26h37v172h-316v-174zM645 645h305l-8 23q-16 47 -22 75q-18 96 -64 97h-211v-195zM645 901h6q4 0 11 2h10h200q11 0 13 2q-2 2 -6 17q-4 8 -5 14l-10 25h-211l-8 -27v-33zM645 1067l43 127h-43v-127zM645 1223h53l47 143 q-55 -10 -100 -27v-116zM664 989h188l-82 205h-33zM856 1372l53 -149h52v133q-57 14 -105 16zM918 1194l43 -119v119h-43zM989 260q130 41 228 129h-228v-129zM989 451q25 5 25 32q0 14 -19 60v-2q-6 12 -4 10l-2 4v-104zM989 995l2 -6h226v205h-228v-199zM989 1223h225 q-98 86 -225 125v-125zM1001 961l113 -316h103v316h-216zM1122 616l13 -32v2q2 -2 1 -3t-1 -3q20 -55 32 -74q21 -39 50 -53v163h-95zM1245 444h23q61 74 96 172h-119v-172zM1245 645h129q23 80 23 160q0 78 -23 156h-129v-316zM1245 989h121q-39 113 -121 203v-203z" />
<glyph unicode="B" d="M6 397v13q0 8 8 8h357v10q-68 80 -103 188h-114q-8 0 -9 9v12q0 8 9 8h104q-20 70 -20 160q0 82 18 156h-102q-8 0 -9 8v12q0 8 9 8h112q43 121 115 205h-367q-8 0 -8 8v12q0 8 8 9h394l4 4v131q-37 -6 -35 -6q-25 0 -25 22q0 29 60 43v203q0 8 8 8h12q8 0 8 -8v-199 q84 14 178 17v43q0 8 9 8h12q8 0 8 -8v-41q23 0 60 2h51q123 0 205 -12v51q0 8 8 8h12q8 0 8 -8v-56q57 -10 92 -26q90 -41 136 -113v334q0 8 8 8h12q8 0 8 -8v-387l10 -10h367q8 0 8 -9v-12q0 -8 -8 -8h-340q76 -96 115 -205h86q8 0 8 -8v-12q0 -8 -8 -8h-78 q20 -82 20 -156q0 -82 -22 -160h80q8 0 8 -8v-12q0 -8 -8 -9h-88q-35 -109 -113 -198h340q8 0 8 -8v-13q0 -8 -8 -8h-367q-6 -8 -10 -12v-367q0 -8 -8 -8h-12q-8 0 -8 8v340q-106 -86 -228 -119v-81q0 -8 -8 -9h-12q-8 0 -8 9v73q-59 -14 -129 -14q-96 0 -187 29v-88 q0 -8 -8 -9h-12q-8 0 -9 9v100q-100 37 -178 104v-344q0 -8 -8 -8h-12q-8 0 -8 8v375l-4 4h-394q-8 0 -8 8zM266 805q0 -90 23 -160h123v316h-123q-23 -68 -23 -156zM295 989h117v195q-80 -86 -117 -195zM297 616q29 -86 92 -165q4 2 19 2h4v163h-115zM440 453q55 2 70 28 q10 18 10 84v51h-80v-163zM440 645h80v316h-80v-316zM440 989h80v205h-80v-205zM440 1253q25 23 78 60q-8 51 -63 51h-15v-111zM446 389q80 -71 172 -108v108h-172zM449 1223h71v55q-25 -16 -71 -55zM647 270q83 -32 181 -32h6q72 0 129 16v135h-316v-119zM686 610 q0 -117 43 -143q37 -23 154 -23q41 1 80 7v165h-277v-6zM686 645h277v287q-63 16 -175 16h-59q-29 0 -36 -11t-7 -52v-240zM686 1071q0 -51 10.5 -62.5t59.5 -11.5h90q72 1 117 15v182h-277v-123zM686 1223h277v133q-70 16 -129 16q-76 0 -142 -18q-6 -14 -6 -45v-86z M991 260q130 41 228 129h-228v-129zM991 457q51 16 94 51.5t68 107.5h-162v-159zM991 645h168q6 22 6 45q0 145 -123 215v-2q-18 8 -51 21v-279zM991 1024q31 14 47 31q58 53 58 125v14h-105v-170zM991 1223h101q-14 76 -72 116q-4 2 -13.5 5.5t-15.5 3.5v-125zM1065 989 h154v105q-45 -72 -154 -105zM1094 418h125v78q-57 -57 -125 -78zM1118 961q56 -25 101 -64v64h-101zM1247 420q76 75 119 196h-72q-14 -49 -47 -90v-106zM1247 866q61 -78 62 -170q0 -23 -9 -51h76q23 80 23 160q0 78 -23 156h-129v-95zM1247 989h121q-39 113 -121 203v-203 z" />
<glyph unicode="C" d="M8 397v13q0 8 8 8h365q-72 82 -111 198h-114q-8 0 -9 9v12q0 8 9 8h104q-20 70 -20 160q0 82 18 156h-102q-8 0 -9 8v12q0 8 9 8h112q10 33 39 94q18 63 45 111h-336q-8 0 -8 8v12q0 8 8 9h357q23 31 41 51v346q0 8 8 8h12q8 0 8 -8v-317q82 68 179 106v72q0 8 8 8h12 q8 0 8 -8v-62q117 41 250 41q16 0 66 -4v25q0 8 8 8h12q8 0 8 -8v-29q104 -14 181 -37q37 -12 47 -35v240q0 8 8 8h12q8 0 8 -8v-387l11 -10h366q8 0 8 -9v-12q0 -8 -8 -8h-340q76 -96 115 -205h86q8 0 8 -8v-12q0 -8 -8 -8h-78q20 -82 21 -156q0 -82 -23 -160h80q8 0 8 -8 v-12q0 -8 -8 -9h-88q-35 -109 -113 -198h340q8 0 8 -8v-13q0 -8 -8 -8h-366q-6 -8 -11 -12v-367q0 -8 -8 -8h-12q-8 0 -8 8v340q-106 -86 -228 -119v-81q0 -8 -8 -9h-12q-8 0 -8 9v73q-59 -14 -129 -14q-96 0 -187 29v-88q0 -8 -8 -9h-12q-8 0 -8 9v100q-100 37 -179 104 v-344q0 -8 -8 -8h-12q-8 0 -8 8v375l-4 4h-394q-8 0 -8 8zM268 805q0 -90 23 -160h92q-90 141 -90 311v5h-2q-23 -68 -23 -156zM299 616q37 -104 115 -190v174q-2 4 -6.5 9t-6.5 7h-102zM442 418h179v14q-102 49 -179 133v-147zM449 389q80 -71 172 -108v108h-172zM465 956 q0 -178 86 -311h70v316h-156v-5zM465 989h156v205h-107q-43 -88 -49 -205zM530 1223h91v96q-49 -37 -91 -96zM569 616q23 -30 52 -59v59h-52zM649 270q83 -32 181 -32h6q72 0 129 16v129q-49 -6 -99 -6q-59 0 -118 12h-99v-119zM649 418h8q4 0 -8 2v-2zM649 530 q104 -88 238 -88q45 1 78 9v165h-316v-86zM649 645h316v316h-316v-316zM649 989h316v205h-316v-205zM649 1223h316v133q-70 16 -129 16q-94 0 -179 -31q-2 0 -8 -4v-114zM993 260q130 41 228 129h-224q-2 0 -4 -2v-127zM993 461q92 34 162 155h-162v-155zM993 645h176 q2 2 3 4l2 2q16 33 25.5 46.5t21.5 15.5v248h-228v-316zM993 989h228v187h-9q-16 0 -28 18h-191v-205zM993 1223h174q-12 23 -45 69q-49 31 -129 56v-125zM993 1378q12 -2 35 -10q-10 4 -35 12v-2zM1102 418h119v57q-14 -14 -119 -57zM1249 420q76 75 119 196h-119v-196z M1249 645h129q23 80 23 160q0 78 -23 156h-129v-263q0 -2 2 -4v-4v-4l-2 -29v-12zM1249 989h121q-39 113 -121 203v-203z" />
<glyph unicode="D" d="M6 397v13q0 8 8 8h228v10q0 29 49 29h4q25 0 49 4q-47 70 -76 155h-114q-8 0 -9 9v12q0 8 9 8h104q-20 70 -20 160q0 82 18 156h-102q-8 0 -9 8v12q0 8 9 8h112q43 121 115 205h-367q-8 0 -8 8v12q0 8 8 9h379v69q0 61 -45 62q-23 0 -55 -11q-20 -6 -31 -6q-25 0 -24 25 q0 39 174 65v193q0 8 8 8h12q8 0 8 -8v-186q53 8 178 16v31q0 8 9 8h12q8 0 8 -8v-29q74 4 80 4q131 0 236 -35v60q0 8 8 8h12q8 0 8 -8v-68q125 -45 228 -137v344q0 8 8 8h12q8 0 8 -8v-371l27 -26h350q8 0 8 -9v-12q0 -8 -8 -8h-328q35 -47 64 -115q23 -41 39 -90h86 q8 0 8 -8v-12q0 -8 -8 -8h-78q20 -82 20 -156q0 -82 -22 -160h80q8 0 8 -8v-12q0 -8 -8 -9h-88q-35 -109 -113 -198h340q8 0 8 -8v-13q0 -8 -8 -8h-367q-6 -8 -10 -12v-367q0 -8 -8 -8h-12q-8 0 -8 8v340q-106 -86 -228 -119v-81q0 -8 -8 -9h-12q-8 0 -8 9v73 q-59 -14 -129 -14q-96 0 -187 29v-88q0 -8 -8 -9h-12q-8 0 -9 9v100q-100 37 -178 104v-344q0 -8 -8 -8h-12q-8 0 -8 8v375l-4 4h-394q-8 0 -8 8zM266 805q0 -90 23 -160h104v316h-104q-23 -68 -23 -156zM295 989h98v174q-63 -76 -98 -174zM297 616q29 -86 76 -143 q20 16 20 96v47h-96zM446 389q80 -71 172 -108v108h-172zM539 616q-1 -136 79 -161v161h-79zM539 645h79v316h-79v-316zM539 989h79v205h-79v-205zM539 1223h79v106q-35 -12 -79 -39v-67zM539 1323q42 23 79 39v33q-45 -6 -60 -21.5t-19 -50.5zM647 270q83 -32 181 -32h6 q72 0 129 16v135h-316v-119zM647 449q18 -4 64 -5q152 1 252 52v120h-316v-167zM647 645h316v316h-316v-316zM647 989h316v205h-316v-205zM647 1223h316v123q-45 26 -123 26h-6q-92 0 -187 -33v-116zM647 1370q68 23 119 27q-45 4 -70 4q-31 0 -49 -2v-29zM991 260 q130 41 228 129h-228v-129zM991 418h228v135q-92 -92 -228 -129v-6zM991 510q72 45 115 106h-115v-106zM991 645h133q86 127 86 287v29h-219v-316zM991 989h217q-12 119 -67 205h-150v-205zM991 1223h129q-49 68 -129 108v-108zM1247 420q76 75 119 196h-94q-8 -12 -25 -32 v-164zM1292 645h84q23 80 23 160q0 72 -19 135v-2q0 -152 -88 -293z" />
<glyph unicode="E" d="M10 397v13q0 8 8 8h359v8q-70 84 -105 190h-114q-8 0 -8 9v12q0 8 8 8h104q-20 70 -20 160q0 82 18 156h-102q-8 0 -8 8v12q0 8 8 8h112q43 121 115 205h-367q-8 0 -8 8v12q0 8 8 9h394l4 4v135q-39 0 -39 27q0 35 35 34h4v197q0 8 8 8h12q8 0 8 -8v-197q129 -6 179 -6 v64q0 8 8 8h12q8 0 8 -8v-66h70q37 0 107.5 2t105.5 2h33v62q0 8 8 8h12q8 0 8 -8v-60q25 0 74 2h74q35 0 35 -43v-8q-2 -4 -2 -8v-70q4 -2 47 -34v360q0 8 8 8h12q8 0 8 -8v-387l11 -10h366q8 0 8 -9v-12q0 -8 -8 -8h-340q76 -96 115 -205h86q8 0 8 -8v-12q0 -8 -8 -8h-78 q20 -82 21 -156q0 -82 -23 -160h80q8 0 8 -8v-12q0 -8 -8 -9h-88q-35 -109 -113 -198h340q8 0 8 -8v-13q0 -8 -8 -8h-366q-6 -8 -11 -12v-367q0 -8 -8 -8h-12q-8 0 -8 8v340q-106 -86 -228 -119v-81q0 -8 -8 -9h-12q-8 0 -8 9v73q-59 -14 -129 -14q-96 0 -187 29v-88 q0 -8 -8 -9h-12q-8 0 -8 9v100q-100 37 -179 104v-344q0 -8 -8 -8h-12q-8 0 -8 8l-2 379h-396q-8 0 -8 8zM270 805q0 -90 23 -160h123v316h-123q-23 -68 -23 -156zM299 989h117v195q-80 -86 -117 -195zM301 616q31 -92 94 -167q13 4 21 4v163h-115zM444 453q55 2 70 26 q10 16 10 82v55h-80v-163zM444 645h80v316h-80v-316zM444 989h80v205h-80v-205zM444 1253q25 23 78 60q-10 47 -78 49v-109zM451 389q80 -71 172 -108v108h-172zM453 1223h71v55q-25 -16 -71 -55zM651 270q83 -32 181 -32h6q72 0 129 16v135h-316v-119zM672 598 q0 -100 51 -127q33 -18 145 -18q68 0 99 2v161h-295v-18zM672 645h295v258q-12 12 -23 12q-72 16 -199 17q-45 0 -53 -4q-20 -8 -20 -43v-240zM672 1065q0 -49 12 -60.5t61 -11.5q137 0 201 6h-2q15 5 23 15v180h-295v-129zM672 1223h295v129q-51 10 -152 10q-88 0 -123 -12 q-20 -6 -20 -58v-69zM995 260q130 41 228 129h-228v-129zM995 459q109 16 154 137l2 6t6 14h-162v-157zM995 645h179q10 10 20 10q14 0 20 -10h9v316h-179q4 -45 11 -142q0 -35 -27 -35t-33 33v-172zM995 1112q8 29 33 29q27 0 27 -23q-2 -68 -8 -129h176v205h-47 q-4 -27 -23 -27q-23 0 -31 27h-127v-82zM995 1223h111l-14 28q-39 78 -95 95h-2v-123zM1176 1223h45q-18 16 -45 34v-34zM1188 418h35v198h-4q-6 -25 -7 -22v-6zM1251 420q76 75 119 196h-119v-196zM1251 645h129q23 80 23 160q0 78 -23 156h-129v-316zM1251 989h121 q-39 113 -121 203v-203z" />
<glyph unicode="F" d="M8 397v13q0 8 8 8h365q-72 82 -111 198h-114q-8 0 -9 9v12q0 8 9 8h104q-20 70 -20 160q0 82 18 156h-102q-8 0 -9 8v12q0 8 9 8h112q43 121 115 205h-367q-8 0 -8 8v12q0 8 8 9h394l4 4v135q-20 10 -21 29q0 23 21 28v201q0 8 8 8h12q8 0 8 -8v-199q25 0 72 -3t72 -3h35 v66q0 8 8 8h12q8 0 8 -8v-66q111 0 217 2q33 0 99 2v62q0 8 8 8h12q8 0 8 -8v-62q51 2 154 2q35 0 35 -49v-82q6 -4 19 -14t20 -16v360q0 8 8 8h12q8 0 8 -8v-387l11 -10h366q8 0 8 -9v-12q0 -8 -8 -8h-340q76 -96 115 -205h86q8 0 8 -8v-12q0 -8 -8 -8h-78q20 -82 21 -156 q0 -82 -23 -160h80q8 0 8 -8v-12q0 -8 -8 -9h-88q-35 -109 -113 -198h340q8 0 8 -8v-13q0 -8 -8 -8h-366q-6 -8 -11 -12v-367q0 -8 -8 -8h-12q-8 0 -8 8v340q-106 -86 -228 -119v-81q0 -8 -8 -9h-12q-8 0 -8 9v73q-59 -14 -129 -14q-96 0 -187 29v-88q0 -8 -8 -9h-12 q-8 0 -8 9v100q-100 37 -179 104v-344q0 -8 -8 -8h-12q-8 0 -8 8v367q-8 2 -15 12h-383q-8 0 -8 8zM268 805q0 -90 23 -160h123v316h-123q-23 -68 -23 -156zM297 989h117v195q-80 -86 -117 -195zM299 616q39 -109 111 -186q0 2 4 2v184h-115zM442 436h2q70 0 86 25 q13 18 13 86v69h-101v-180zM442 645h101v316h-101v-316zM442 989h101v205h-101v-205zM442 1253q40 37 95 68q-12 37 -93 37h-2v-105zM451 1223h92v67q-43 -25 -92 -67zM465 375q64 -55 156 -94v102h-3q-27 0 -78 -4t-75 -4zM649 270q83 -32 181 -32h6q72 0 129 16v135h-129 q-8 -14 -31 -14q-66 0 -156 8v-113zM692 545q0 -70 13 -86q16 -23 83 -23q41 0 50 -18h127v198h-273v-71zM692 645h273v254q-2 0 -4 2q-63 14 -197 14q-43 0 -51 -2q-20 -8 -21 -43v-225zM692 1044q0 -45 10 -55h263v205h-273v-150zM692 1223h273v129q-37 6 -123 6 q-109 0 -133 -10q-16 -4 -17 -48v-77zM993 260q130 41 228 129h-228v-129zM993 418h228v198h-228v-198zM993 645h228v316h-160v-5q0 -25 3 -76t3 -75q0 -37 -27 -37q-23 0 -28.5 35t-18.5 63v-221zM993 1014l19 80q0 2 2 4v2q4 25 26 24q27 0 27 -22q0 -16 -2 -49t-2 -49 v-15h158v205h-39q-4 -27 -25 -27q-23 0 -31 27h-133v-180zM993 1223h125q-33 102 -125 125v-125zM1182 1223h37q-25 20 -37 28v-28zM1249 420q76 75 119 196h-119v-196zM1249 645h129q23 80 23 160q0 78 -23 156h-129v-316zM1249 989h121q-39 113 -121 203v-203z" />
<glyph unicode="G" d="M10 397v13q0 8 8 8h365q-72 82 -111 198h-114q-8 0 -8 9v12q0 8 8 8h104q-20 70 -20 160q0 82 18 156h-102q-8 0 -8 8v12q0 8 8 8h112q0 2 2 4v4q25 109 88 197h-342q-8 0 -8 8v12q0 8 8 9h365q10 12 33 34v363q0 8 8 8h12q8 0 8 -8v-336q86 70 179 109v88q0 8 8 8h12 q8 0 8 -8v-78q106 41 226 41q41 0 90 -6v43q0 8 8 8h12q8 0 8 -8v-47q82 -12 142 -37h-2q53 -20 53 -90v-21q6 -4 17.5 -13t17.5 -13v360q0 8 8 8h12q8 0 8 -8v-387l11 -10h366q8 0 8 -9v-12q0 -8 -8 -8h-340q76 -96 115 -205h86q8 0 8 -8v-12q0 -8 -8 -8h-78 q20 -82 21 -156q0 -82 -23 -160h80q8 0 8 -8v-12q0 -8 -8 -9h-88q-35 -109 -113 -198h340q8 0 8 -8v-13q0 -8 -8 -8h-366q-6 -8 -11 -12v-367q0 -8 -8 -8h-12q-8 0 -8 8v340q-106 -86 -228 -119v-81q0 -8 -8 -9h-12q-8 0 -8 9v73q-59 -14 -129 -14q-96 0 -187 29v-88 q0 -8 -8 -9h-12q-8 0 -8 9v100q-100 37 -179 104v-344q0 -8 -8 -8h-12q-8 0 -8 8v375l-4 4h-394q-8 0 -8 8zM270 803q0 -88 23 -158h35q-43 72 -58 158zM301 616q37 -104 115 -190v113q-41 39 -70 77h-45zM444 418h172q-90 31 -170 94l-2 2v-96zM444 754q14 -51 48 -109h131 v316h-179v-207zM444 989h179v205h-121q-41 -72 -58 -137v-68zM451 389q80 -71 172 -108v108h-172zM508 616q4 -6 24 -32q38 -45 91 -76v108h-115zM518 1223h105v96q-57 -37 -91 -78q-4 -4 -14 -18zM651 270q83 -32 181 -32h6q72 0 129 16v135h-25q-45 -6 -96 -6 q-53 0 -107 6h-88v-119zM651 492q88 -47 226 -48q47 1 90 9v163h-316v-124zM651 645h316v197q-35 0 -35 30q0 23 35 27v62h-316v-316zM651 989h316v205h-316v-205zM651 1223h316v133q-70 16 -129 16q-109 0 -187 -39v-110zM995 260q130 41 228 129h-228v-129zM995 459 q35 10 60.5 29.5t25.5 117.5v10h-86v-157zM995 645h86v103q0 57 -16 74.5t-70 19.5v-197zM995 899q27 0 78 -3t78 -3h72v68h-228v-62zM995 989h228v205h-35q-6 -25 -31 -25q-20 0 -33 25h-129v-205zM995 1223h117q-20 43 -37 63q-31 39 -71 60q-4 2 -9 2v-125zM1075 418h148 v88q-6 -14 -31 -31q-53 -35 -117 -57zM1188 1249l2 -26h31q-10 10 -33 26zM1251 420q76 75 119 196h-119v-196zM1251 645h129q23 80 23 160q0 78 -23 156h-129v-64q10 0 33 2h33q29 0 33 -20q2 -2 2 -7q0 -31 -39 -30h-31h-4q-2 -2 -4 -2q-8 -2 -23 -2v-193zM1251 989h121 q-39 113 -121 203v-203z" />
<glyph unicode="H" d="M8 397v13q0 8 8 8h232q6 23 47 22h2q39 0 59 6q-53 72 -86 170h-114q-8 0 -9 9v12q0 8 9 8h104q-20 70 -20 160q0 82 18 156h-102q-8 0 -9 8v12q0 8 9 8h112q43 121 115 205h-367q-8 0 -8 8v12q0 8 8 9h381v47q0 68 -12 84q-17 22 -82 22h-6q-49 0 -49 33t37 33 q31 0 92 -4q6 0 18.5 -1t18.5 -3v186q0 8 8 8h12q8 0 8 -8v-186h29q25 0 75 3t75 3v41q0 8 8 8h12q8 0 8 -8v-39h15q35 0 34 -33q0 -18 -14 -27q72 18 152 19q59 0 129 -17v9q-4 8 -4 16q0 12 4 16v56q0 8 8 8h12q8 0 8 -8v-39h6q31 0 93.5 -4t93.5 -4h35v186q0 8 8 8h12 q8 0 8 -8v-184q20 0 33 2q66 4 94 4q37 0 37 -33t-53 -33q-66 0 -81 -18.5t-15 -75.5v-59h362q8 0 8 -9v-12q0 -8 -8 -8h-340q76 -96 115 -205h86q8 0 8 -8v-12q0 -8 -8 -8h-78q20 -82 21 -156q0 -82 -23 -160h80q8 0 8 -8v-12q0 -8 -8 -9h-88q-31 -92 -90 -172q25 -4 51 -4 h10q37 0 41 -22h215q8 0 8 -8v-13q0 -8 -8 -8h-223q-6 -6 -27 -6q-49 0 -90 2q-10 0 -29 2q-4 -6 -8 -10v-367q0 -8 -8 -8h-12q-8 0 -8 8v340q-106 -86 -228 -119v-81q0 -8 -8 -9h-12q-8 0 -8 9v73q-59 -14 -129 -14q-96 0 -187 29v-88q0 -8 -8 -9h-12q-8 0 -8 9v100 q-100 37 -179 104v-344q0 -8 -8 -8h-12q-8 0 -8 8v375l-4 4q14 0 -29 -2q-86 -4 -96 -4q-23 0 -29 6h-240q-8 0 -8 8zM268 805q0 -90 23 -160h106v316h-106q-23 -68 -23 -156zM297 989h100v176q-66 -78 -100 -176zM299 616q31 -84 84 -153q14 16 14 86v67h-98zM449 389 q80 -71 172 -108v102q-20 2 -49 4t-37 2h-86zM547 553q0 -63 10 -82q13 -27 64 -31v176h-74v-63zM547 645h74v273h-21q-37 0 -45 -7.5t-8 -42.5v-223zM547 1020q0 -27 4 -31h70v205h-74v-174zM547 1223h74v106q-31 -10 -74 -37v-69zM549 1327q39 21 72 35v14q-63 -6 -72 -49 zM649 270q83 -32 181 -32h6q72 0 129 16v135h-275q-8 -6 -26 -6h-15v-113zM649 440h8q35 0 39 -22h265q2 2 3 4l1 4v190h-316v-176zM649 645h316v273h-316v-273zM649 989h316v205h-316v-205zM649 1223h316v133q-70 16 -129 16q-92 0 -187 -33v-116zM993 260q130 41 228 129 h-31q-33 0 -95.5 -3t-95.5 -3h-6v-123zM993 440h21q70 0 88 25q12 16 12 84v67h-121v-176zM993 645h121v223q0 37 -6 43.5t-43 6.5h-72v-273zM993 989h109q12 8 12 45v160h-121v-205zM993 1223h121v75q-61 33 -121 50v-125zM1001 1376q64 -20 109 -45q-8 45 -96 45h-13z M1264 547q0 -74 18 -90q55 71 86 159h-104v-69zM1264 645h114q23 80 23 160q0 78 -23 156h-114v-316zM1264 989h106q-37 100 -106 187v-187z" />
<glyph unicode="I" d="M8 397v13q0 8 8 8h365q-72 82 -111 198h-114q-8 0 -9 9v12q0 8 9 8h104q-20 70 -20 160q0 82 18 156h-102q-8 0 -9 8v12q0 8 9 8h112q43 121 115 205h-367q-8 0 -8 8v12q0 8 8 9h394l4 4v393q0 8 8 8h12q8 0 8 -8v-367q66 61 179 109v4q-47 0 -48 33q0 33 37 33h11v49 q0 8 8 8h12q8 0 8 -8v-49q74 -8 158 -9q76 0 158 9v49q0 8 8 8h12q8 0 8 -8v-49h11q39 0 38 -33q0 -23 -20 -29q109 -37 199 -110v360q0 8 8 8h12q8 0 8 -8v-387l11 -10h366q8 0 8 -9v-12q0 -8 -8 -8h-340q76 -96 115 -205h86q8 0 8 -8v-12q0 -8 -8 -8h-78q20 -82 21 -156 q0 -82 -23 -160h80q8 0 8 -8v-12q0 -8 -8 -9h-88q-35 -109 -113 -198h340q8 0 8 -8v-13q0 -8 -8 -8h-366q-6 -8 -11 -12v-367q0 -8 -8 -8h-12q-8 0 -8 8v340q-106 -86 -228 -119v-81q0 -8 -8 -9h-12q-8 0 -8 9v73q-59 -14 -129 -14q-96 0 -187 29v-88q0 -8 -8 -9h-12 q-8 0 -8 9v100q-100 37 -179 104v-344q0 -8 -8 -8h-12q-8 0 -8 8v375l-4 4h-394q-8 0 -8 8zM268 805q0 -90 23 -160h123v316h-123q-23 -68 -23 -156zM297 989h117v195q-80 -86 -117 -195zM299 616q37 -104 115 -190v190h-115zM442 418h131q7 18 48 18v180h-179v-198z M442 645h179v316h-179v-316zM442 989h179v205h-179v-205zM449 389q80 -71 172 -108v96h-11q-29 0 -35 12h-126zM451 1223h170v106q-80 -31 -170 -106zM649 270q83 -32 181 -32h6q72 0 129 16v123q-8 0 -60 4q-27 2 -96 2q-27 0 -80 -3t-80 -3v-107zM649 436q55 2 70 31 q10 18 10 86v63h-80v-180zM649 645h80v316h-80v-316zM649 989h80v205h-80v-205zM649 1223h80v30q0 86 -29 101q-33 -6 -51 -15v-116zM883 551q0 -68 10 -86q17 -27 72 -29v180h-82v-65zM883 645h82v316h-82v-316zM883 989h82v205h-82v-205zM883 1223h82v133l-31 6 q-35 -6 -45 -33q-6 -16 -6 -76v-30zM993 260q130 41 228 129h-183q-6 -12 -34 -12h-11v-117zM993 436q39 0 47 -18h181v198h-228v-180zM993 645h228v316h-228v-316zM993 989h228v205h-228v-205zM993 1223h226q-98 86 -226 125v-125zM1249 420q76 75 119 196h-119v-196z M1249 645h129q23 80 23 160q0 78 -23 156h-129v-316zM1249 989h121q-39 113 -121 203v-203z" />
<glyph unicode="J" d="M6 397v13q0 8 8 8h365q-72 82 -111 198h-114q-8 0 -9 9v12q0 8 9 8h104q-20 70 -20 160q0 82 18 156h-102q-8 0 -9 8v12q0 8 9 8h112q43 121 115 205h-367q-8 0 -8 8v12q0 8 8 9h394l4 4v393q0 8 8 8h12q8 0 8 -8v-367q66 61 178 109q-47 0 -47 31q0 33 39 32h8v56 q0 8 9 8h12q8 0 8 -8v-56q61 -6 158 -6q27 0 79 3t79 3v56q0 8 8 8h12q8 0 8 -8v-56h10q39 0 39 -32v-2q-2 -2 -2 -5q-2 -10 -14 -18q106 -37 195 -108v360q0 8 8 8h12q8 0 8 -8v-387l10 -10h367q8 0 8 -9v-12q0 -8 -8 -8h-340q76 -96 115 -205h86q8 0 8 -8v-12q0 -8 -8 -8 h-78q20 -82 20 -156q0 -82 -22 -160h80q8 0 8 -8v-12q0 -8 -8 -9h-88q-35 -109 -113 -198h340q8 0 8 -8v-13q0 -8 -8 -8h-367q-6 -8 -10 -12v-367q0 -8 -8 -8h-12q-8 0 -8 8v340q-106 -86 -228 -119v-81q0 -8 -8 -9h-12q-8 0 -8 9v73q-59 -14 -129 -14q-25 0 -70 4 q-49 -66 -129 -115q-88 -57 -162 -57q-23 0 -33 2v-33q0 -8 -8 -8h-12q-8 0 -8 8v41q-72 29 -72 92q0 70 72 82v160l-4 4h-394q-8 0 -8 8zM266 805q0 -90 23 -160h123v316h-123q-23 -68 -23 -156zM295 989h117v195q-80 -86 -117 -195zM297 616q37 -104 115 -190v190h-115z M440 225q41 -8 70 -59v2l12 -12q27 -27 41 -27q24 1 55 21v100q-100 37 -178 104v-129zM440 418h178v198h-178v-198zM440 645h178v316h-178v-316zM440 989h178v205h-178v-205zM446 389q80 -71 172 -108v108h-172zM449 1223h169v106q-80 -31 -169 -106zM647 172q29 22 43 53 l-43 13v-66zM647 270q37 -12 55 -16q15 43 23 135h-78v-119zM647 418h80v198h-80v-198zM647 645h80v316h-80v-316zM647 989h80v205h-80v-205zM647 1223h80v24q0 92 -35 107q-14 -4 -45 -15v-116zM784 240q16 -2 50 -2q72 0 129 16v135h-101q-20 -76 -78 -149zM870 418h93 v198h-80v-20q0 -115 -13 -178zM883 645h80v316h-80v-316zM883 989h80v205h-80v-205zM883 1223h80v133q-2 2 -9.5 3t-11.5 1q-41 -6 -50 -25.5t-9 -70.5v-41zM991 260q130 41 228 129h-228v-129zM991 418h228v198h-228v-198zM991 645h228v316h-228v-316zM991 989h228v205 h-228v-205zM991 1223h226q-98 86 -226 125v-125zM1247 420q76 75 119 196h-119v-196zM1247 645h129q23 80 23 160q0 78 -23 156h-129v-316zM1247 989h121q-39 113 -121 203v-203z" />
<glyph unicode="K" d="M2 397v13q0 8 8 8h236q2 23 45 22h4q37 0 57 6q-55 70 -88 170h-114q-8 0 -9 9v12q0 8 9 8h104q-20 70 -21 160q0 82 19 156h-102q-8 0 -9 8v12q0 8 9 8h112q43 121 115 205h-367q-8 0 -8 8v12q0 8 8 9h387v51q0 68 -16 88t-86 20q-49 0 -49 29q0 33 35 33q31 0 92 -4 q10 -2 35 -2v182q0 8 8 8h12q8 0 8 -8v-184h35q25 0 72 3t71 3v39q0 8 9 8h12q8 0 8 -8v-37h19q37 0 36 -33q0 -29 -53 -29h-2v-12q96 31 186 31h21v10q0 33 37 33h37q23 -2 34 -2v39q0 8 9 8h12q8 0 8 -8v-43q29 -2 88 -2q57 0 139 8v176q0 8 9 8h12q8 0 8 -8v-176 q31 -4 31 -33q0 -25 -31 -29v-149l10 -10h367q8 0 8 -9v-12q0 -8 -8 -8h-340q76 -96 115 -205h86q8 0 8 -8v-12q0 -8 -8 -8h-78q20 -82 20 -156q0 -82 -22 -160h80q8 0 8 -8v-12q0 -8 -8 -9h-88q-33 -96 -95 -176q27 -4 31 -22h291q8 0 8 -8v-13q0 -8 -8 -8h-311 q-12 -6 -31 -6h-31q-2 -4 -4 -6v-367q0 -8 -8 -8h-12q-8 0 -9 8v340q-106 -86 -227 -119v-81q0 -8 -8 -9h-12q-8 0 -9 9v73q-59 -14 -129 -14q-96 0 -186 29v-88q0 -8 -8 -9h-12q-8 0 -9 9v100q-100 37 -178 104v-344q0 -8 -8 -8h-12q-8 0 -8 8l-2 377q-2 0 -35 -2 q-41 -2 -90 -2q-18 0 -25 6h-246q-8 0 -8 8zM262 805q0 -90 23 -160h112v316h-112q-23 -68 -23 -156zM291 989h106v182q-76 -90 -106 -182zM293 616q31 -86 84 -157q20 20 20 92v65h-104zM442 389q80 -71 172 -108v102q-20 2 -49.5 4t-40.5 2h-82zM541 551q0 -63 10 -82 q12 -25 63 -29v176h-73v-65zM541 645h73v270q-20 -18 -26 -28q-47 -39 -47 -62v-180zM545 942q0 -16 4 -16t8 4l31 31h-43v-19zM545 989h69v205h-69v-205zM545 1223h69v106q-25 -8 -69 -33v-73zM547 1329q24 15 67 33v18q-61 -6 -67 -51zM588 887q0 2 2 2zM643 270 q83 -32 180 -32h6q72 0 129 16v129h-75q-18 0 -25 6h-176q-8 -6 -25 -6h-14v-113zM643 440h8q39 0 43 -22h158q8 18 55 18q35 0 51 6v76q-8 12 -24 31v1v1l-49 65h-242v-176zM643 645h219l-194 248q-6 6 -9 10h3l-8.5 8.5t-10.5 8.5v-275zM643 1016l174 178h-174v-178z M643 1223h203l28 28q78 78 78 101v4q-61 16 -123 16q-92 0 -186 -33v-116zM770 997l6 -8h182v205h-55l-117 -117q-38 -32 -38 -44q0 -13 22 -36zM799 961l159 -205v205h-159zM930 1223h28v28zM987 260q127 41 221 125q-25 0 -34 1t-21 3h-20h-60q-33 0 -86 -4v-125zM987 719 l60 -74h167v316h-227v-242zM987 989h227v205h-227v-205zM987 1223h225q-88 74 -168 104q-27 -18 -57 -49v-55zM1069 616l6 -6q37 -47 117 -131q4 -4 22 -18v155h-145zM1071 1348q75 -33 143 -88v122q-72 0 -108 -16q-14 -4 -35 -18zM1243 446q12 -4 21 -4q57 65 98 174h-119 v-170zM1243 645h129q23 80 23 160q0 78 -23 156h-129v-316zM1243 989h121q-39 113 -121 203v-203z" />
<glyph unicode="L" d="M2 397v13q0 8 8 8h365q-72 82 -111 198h-114q-8 0 -9 9v12q0 8 9 8h104q-20 70 -21 160q0 82 19 156h-102q-8 0 -9 8v12q0 8 9 8h112q43 121 115 205h-367q-8 0 -8 8v12q0 8 8 9h393l5 4v393q0 8 8 8h12q8 0 8 -8v-193q12 4 23 5q27 0 79 -4.5t76 -4.5v58q0 8 9 8h12 q8 0 8 -8v-58h4q33 0 96.5 4.5t94.5 4.5q39 0 39 -33q43 -2 81 -15v97q0 8 9 8h12q8 0 8 -8v-103q127 -37 227 -118v360q0 8 9 8h12q8 0 8 -8v-387l10 -10h367q8 0 8 -9v-12q0 -8 -8 -8h-340q76 -96 115 -205h86q8 0 8 -8v-12q0 -8 -8 -8h-78q20 -82 20 -156q0 -82 -22 -160 h80q8 0 8 -8v-12q0 -8 -8 -9h-88q-35 -109 -113 -198h340q8 0 8 -8v-13q0 -8 -8 -8h-367q-6 -8 -10 -12v-367q0 -8 -8 -8h-12q-8 0 -9 8v340q-106 -86 -227 -119v-81q0 -8 -8 -9h-12q-8 0 -9 9v73q-59 -14 -129 -14q-96 0 -186 29v-88q0 -8 -8 -9h-12q-8 0 -9 9v100 q-100 37 -178 104v-344q0 -8 -8 -8h-12q-8 0 -8 8v375l-5 4h-393q-8 0 -8 8zM262 805q0 -90 23 -160h123v316h-123q-23 -68 -23 -156zM291 989h117v195q-80 -86 -117 -195zM293 616q37 -104 115 -190v190h-115zM436 438q10 4 35 4q70 0 88 23q12 16 12 86v65h-135v-178z M436 645h135v316h-135v-316zM436 989h135v205h-135v-205zM436 1253q62 55 125 84q-14 31 -92 31q-27 0 -33 4v-119zM444 1223h127v37q0 35 -2 49q-55 -29 -125 -86zM455 379q71 -61 159 -98v104q-27 0 -75 -4q-25 -2 -80 -2h-4zM643 270q83 -32 180 -32h6q72 0 129 16v125 q-98 6 -315 6v-115zM725 616q0 -100 20 -131q27 -43 123 -43q51 1 90 11v163h-233zM725 645h233v316h-233v-316zM725 989h233v205h-233v-205zM725 1223h233v133q-59 14 -102 16q-10 -4 -31 -4q-70 0 -85 -17.5t-15 -74.5v-53zM987 260q129 41 227 129h-67q-10 -10 -39 -10 h-121v-119zM987 461q33 12 64 35q38 28 73 120h-137v-155zM987 645h152q10 14 22 14q10 0 21 -14h32v316h-227v-316zM987 989h227v205h-227v-205zM987 1223h225q-98 86 -225 125v-125zM1157 418h57v198h-34q0 -2 -2 -2q-2 -37 -11 -84q-10 -63 -10 -77v-35zM1243 420 q76 75 119 196h-119v-196zM1243 645h129q23 80 23 160q0 78 -23 156h-129v-316zM1243 989h121q-39 113 -121 203v-203z" />
<glyph unicode="M" d="M10 397v13q0 8 8 8h154q4 25 51 24q78 0 88 76q-27 57 -39 98h-114q-8 0 -8 9v12q0 8 8 8h104q-20 70 -20 160q0 82 18 156h-102q-8 0 -8 8v12q0 8 8 8h112q33 96 86 168l2 37h-340q-8 0 -8 8v12q0 8 8 9h342l5 59q2 31 2 35q0 35 -23 45q-12 4 -55 4q-49 0 -49 35 q0 27 36 26h140v193q0 8 8 8h12q8 0 8 -8v-193h41q29 0 45 -45l21 -55q39 20 72 35v119q0 8 8 8h12q8 0 8 -8v-111q96 31 187 31q59 0 129 -17v97q0 8 8 8h12q8 0 8 -8v-103q72 -20 125 -51l31 72q12 28 52 28h3h17v193q0 8 8 8h12q8 0 8 -8v-193h154q39 0 39 -26 q0 -35 -49 -35h-6q-49 0 -60 -12v2q-10 -14 -10 -53q0 -6 2 -19v-16v-45h307q8 0 8 -9v-12q0 -8 -8 -8h-307v-43q51 -74 82 -162h86q8 0 8 -8v-12q0 -8 -8 -8h-78q20 -82 21 -156q0 -82 -23 -160h80q8 0 8 -8v-12q0 -8 -8 -9h-88q-31 -88 -72 -145q2 -4 6 -8q16 -20 58 -21 h16q39 0 43 -24h176q8 0 8 -8v-13q0 -8 -8 -8h-186q-8 -4 -27 -4q-14 0 -43 2t-41 2h-69q-6 -8 -11 -12v-367q0 -8 -8 -8h-12q-8 0 -8 8v340q-106 -86 -228 -119v-81q0 -8 -8 -9h-12q-8 0 -8 9v73q-59 -14 -129 -14q-96 0 -187 29v-88q0 -8 -8 -9h-12q-8 0 -8 9v100 q-100 37 -179 104v-344q0 -8 -8 -8h-12q-8 0 -8 8v375l-4 4h-113q-4 0 -20 -2q-31 -2 -72 -2q-18 0 -25 4h-164q-8 0 -8 8zM270 805q0 -90 23 -160h29l20 316h-49q-23 -68 -23 -156zM299 989h45l8 113q-37 -59 -53 -113zM301 616q6 -23 14 -41l4 41h-18zM383 557 q0 -71 33 -96v155h-31q-2 -20 -2 -59zM387 645h29v316h-6zM412 989h4v62zM444 446q20 -4 41 -4h4q47 0 54 -24h80v198h-179v-170zM444 645h179v141l-68 175h-111v-316zM444 989h99l-76 205h-23v-205zM453 387q82 -71 170 -106v108h-95q-8 -4 -26 -4q-33 0 -49 2zM453 1223h2 h-2zM563 1303l31 -80h29v106q-41 -16 -60 -26zM606 1194l17 -41v41h-17zM651 270q83 -32 181 -32h6q72 0 129 16v135h-316v-119zM651 418h316v198h-82l-70 -159q-10 -33 -35 -33q-16 0 -28 27q-2 2 -2 4l-62 161h-37v-198zM651 645h27l-27 66v-66zM651 1081l37 -92h279v205 h-316v-113zM651 1223h316v133q-70 16 -129 16q-92 0 -187 -33v-116zM698 961l125 -314l135 314h-260zM897 645h70v164zM995 260q130 41 228 129h-41q-4 0 -27 -2q-41 -2 -94 -2q-23 0 -31 4h-35v-129zM995 418h25q2 25 43 24h16q47 0 74 21h-2q23 20 23 98v55h-179v-198z M995 645h179v316h-142l-37 -84v-232zM995 1042l68 152h-68v-152zM995 1223h80l35 80q-47 25 -115 45v-125zM1044 989h130v205h-44zM1143 1223h31v37q-4 2 -11 8zM1321 510q24 45 49 106h-49v-106zM1321 645h59q23 80 23 160q0 78 -23 156h-59v-316zM1321 989h51 q-18 53 -51 113v-113z" />
<glyph unicode="N" d="M6 397v13q0 8 8 8h222q0 23 34 22h17q45 0 67 9q-53 70 -86 167h-114q-8 0 -9 9v12q0 8 9 8h104q-20 70 -20 160q0 82 18 156h-102q-8 0 -9 8v12q0 8 9 8h112q43 121 115 205h-367q-8 0 -8 8v12q0 8 8 9h371v30q0 70 -12 86q-16 25 -86 25q-51 0 -51 27q0 36 46 36h3h127 v193q0 8 8 8h12q8 0 8 -8v-193h54q31 -10 67 -61q2 -2 3 -2t1 -2h-2l15 -19q12 6 40 19v119q0 8 9 8h12q8 0 8 -8v-111q96 31 187 31q59 0 129 -17v97q0 8 8 8h12q8 0 8 -8v-78q6 25 37 24q25 0 74 -4t74 -4h43v201q0 8 8 8h12q8 0 8 -8v-199q2 0 4 2q53 4 70 4q37 0 37 -36 v-2q-2 -2 -2 -5q-4 -20 -51 -20q-35 0 -58 -6v-125l10 -10h367q8 0 8 -9v-12q0 -8 -8 -8h-340q76 -96 115 -205h86q8 0 8 -8v-12q0 -8 -8 -8h-78q20 -82 20 -156q0 -82 -22 -160h80q8 0 8 -8v-12q0 -8 -8 -9h-88q-35 -109 -113 -198h340q8 0 8 -8v-13q0 -8 -8 -8h-367 q-6 -8 -10 -12v-367q0 -8 -8 -8h-12q-8 0 -8 8v340q-106 -86 -228 -119v-81q0 -8 -8 -9h-12q-8 0 -8 9v73q-59 -14 -129 -14q-96 0 -187 29v-88q0 -8 -8 -9h-12q-8 0 -9 9v100q-100 37 -178 104v-344q0 -8 -8 -8h-12q-8 0 -8 8l-2 379h-48q-14 0 -44.5 -3t-47.5 -3 q-12 0 -22 6h-234q-8 0 -8 8zM266 805q0 -90 23 -160h96v316h-96q-23 -68 -23 -156zM295 989h90v164q-57 -70 -90 -164zM297 616q29 -84 78 -147q10 19 10 82v65h-88zM446 389q80 -71 172 -108v108h-30q-8 -6 -25 -6q-31 0 -71 4q-2 0 -11 2h-10h-25zM451 551q0 -70 12 -86 q16 -25 86 -25h16q35 0 37 -22h16v198h-167v-65zM451 645h167v316h-167v-316zM451 989h167v80l-100 125h-67v-205zM451 1223h47l-19 24q-20 -16 -28 -24zM451 1262q2 4 10 8l-10 14v-22zM596 1321l22 -27v35q-16 -8 -22 -8zM647 270q83 -32 181 -32h6q72 0 129 16v135h-316 v-119zM647 418h316v198h-316v-198zM647 645h305l-247 316h-58v-316zM647 989h35l-35 45v-45zM647 1257l29 -34h287v133q-70 16 -129 16q-92 0 -187 -33v-82zM698 1194l162 -205h103v205h-265zM883 961l80 -103v103h-80zM991 260q117 39 203 109q-2 -2 -10 -2q-23 0 -37 22 h-156v-129zM991 418h139l-139 178v-178zM991 823l139 -178h9v316h-148v-138zM991 989h148v205h-148v-205zM991 1223h148v59q-61 39 -148 66v-125zM991 1378v2v-2zM1036 1364q58 -22 99 -47q-8 47 -95 47h-4zM1200 373q4 4 10.5 9t8.5 7h-15q0 -12 -4 -16zM1202 418h17v198 h-17v-198zM1202 645h17v316h-17v-316zM1202 989h17v205h-17v-205zM1202 1223h15q-6 4 -15 12v-12zM1202 1272q5 -4 17 -12v83q-16 -16 -17 -71zM1247 420q76 75 119 196h-119v-196zM1247 645h129q23 80 23 160q0 78 -23 156h-129v-316zM1247 989h121q-39 113 -121 203v-203z " />
<glyph unicode="O" d="M14 397v13q0 8 9 8h364q-72 82 -111 198h-114q-8 0 -8 9v12q0 8 8 8h104q-20 70 -20 160q0 82 18 156h-102q-8 0 -8 8v12q0 8 8 8h108q14 109 76 205h-323q-8 0 -9 8v12q0 8 9 9h344q33 41 53 61v336q0 8 8 8h12q8 0 9 -8v-309q92 76 178 108v62q0 8 8 8h12q8 0 8 -8v-51 q95 30 178 30h5q74 0 133 -14v35q0 8 8 8h12q8 0 8 -8v-41q129 -33 228 -117v297q0 8 8 8h12q8 0 8 -8v-322q35 -33 66 -75h311q8 0 8 -9v-12q0 -8 -8 -8h-295q57 -96 70 -205h86q8 0 8 -8v-12q0 -8 -8 -8h-78q20 -82 21 -156q0 -82 -23 -160h80q8 0 8 -8v-12q0 -8 -8 -9 h-88q-35 -109 -113 -198h340q8 0 8 -8v-13q0 -8 -8 -8h-366q-6 -8 -11 -12v-367q0 -8 -8 -8h-12q-8 0 -8 8v340q-106 -86 -228 -119v-81q0 -8 -8 -9h-12q-8 0 -8 9v73q-59 -14 -129 -14q-96 0 -187 29v-88q0 -8 -8 -9h-12q-8 0 -8 9v100q-100 37 -178 104v-344q0 -8 -9 -8 h-12q-8 0 -8 8v375l-4 4h-393q-8 0 -9 8zM274 805q0 -90 23 -160h57q-57 86 -80 191v-31zM305 616q37 -104 115 -190v141q-31 31 -43 49h-72zM434 961q-1 -23 -1 -43q-1 -96 15 -154q18 -70 50 -119h129v316h-193zM434 989h193v205h-138q-31 -59 -41 -99t-14 -106zM449 418 h178v14q-88 33 -178 109v-123zM455 389q80 -71 172 -108v108h-172zM506 1223h121v106q-4 -2 -15.5 -6t-17.5 -6q-37 -31 -68 -68v2q-12 -16 -20 -28zM514 616q6 -8 18 -22q42 -49 95 -84v106h-113zM655 270q83 -32 181 -32h6q72 0 129 16v135h-316v-119zM655 418h11 q-2 0 -11 4v-4zM655 496q84 -45 189 -45h5q63 0 122 24v141h-316v-120zM655 645h316v316h-316v-316zM655 989h316v205h-316v-205zM655 1223h316v133q-70 16 -129 16q-92 0 -187 -33v-116zM999 260q130 41 228 129h-228v-129zM999 487q86 37 150 119v-2q2 2 5 6t3 6h-158 v-129zM999 645h179q31 51 49 113q14 51 14 133q0 33 -2 70h-240v-316zM999 989h240q0 33 -12 105q-12 45 -43 100h-185v-205zM999 1223h166q-16 20 -24 32q-37 43 -72 66q-45 20 -70 27v-125zM1022 418h205v106q-94 -74 -205 -106zM1255 420q76 75 119 196h-63 q-27 -37 -56 -65v-131zM1329 645h55q23 80 23 160q0 29 -2 43q-14 -111 -76 -203z" />
<glyph unicode="P" d="M8 397v13q0 8 8 8h365q-72 82 -111 198h-114q-8 0 -9 9v12q0 8 9 8h104q-20 70 -20 160q0 82 18 156h-102q-8 0 -9 8v12q0 8 9 8h112q43 121 115 205h-367q-8 0 -8 8v12q0 8 8 9h394l4 4v393q0 8 8 8h12q8 0 8 -8v-195h11q57 0 86 -2q55 -4 82 -4v62q0 8 8 8h12q8 0 8 -8 v-62q31 0 113 4q41 2 129 2q49 0 74 -4v60q0 8 8 8h12q8 0 8 -8v-64q72 -12 129.5 -52t89.5 -99q4 -4 9 -6v360q0 8 8 8h12q8 0 8 -8v-387l11 -10h366q8 0 8 -9v-12q0 -8 -8 -8h-340q76 -96 115 -205h86q8 0 8 -8v-12q0 -8 -8 -8h-78q20 -82 21 -156q0 -82 -23 -160h80 q8 0 8 -8v-12q0 -8 -8 -9h-88q-35 -109 -113 -198h340q8 0 8 -8v-13q0 -8 -8 -8h-366q-6 -8 -11 -12v-367q0 -8 -8 -8h-12q-8 0 -8 8v340q-106 -86 -228 -119v-81q0 -8 -8 -9h-12q-8 0 -8 9v73q-59 -14 -129 -14q-96 0 -187 29v-88q0 -8 -8 -9h-12q-8 0 -8 9v100 q-100 37 -179 104v-344q0 -8 -8 -8h-12q-8 0 -8 8v375l-4 4h-394q-8 0 -8 8zM268 805q0 -90 23 -160h123v316h-123q-23 -68 -23 -156zM297 989h117v195q-80 -86 -117 -195zM299 616q37 -104 115 -190v190h-115zM442 422h21q68 0 86 22q14 17 14 78v94h-121v-194zM442 645 h121v316h-121v-316zM442 989h121v205h-121v-205zM442 1253q60 53 113 78q-14 33 -92 33h-21v-111zM451 1223h112v30q0 35 -2 50q-41 -23 -110 -80zM483 360q58 -46 138 -79v88q-29 0 -79 -4.5t-59 -4.5zM649 270q83 -32 181 -32h6q72 0 129 16v135h-101q-2 -29 -69 -29 q-8 0 -65.5 4.5t-80.5 4.5v-99zM711 530q0 -68 12 -84q17 -24 81 -24h5h10q20 0 31 -4h115v198h-254v-86zM711 645h254v178q-33 -4 -50 -4q-31 0 -71 12l-82 25q-25 10 -35 10q-16 0 -16 -35v-186zM711 961q0 -33 20 -46q53 -30 128 -30h5h4q53 0 97 24v52h-254zM711 989 h254v205h-254v-205zM711 1223h254v129q-2 2 -7.5 4t-7.5 2q-51 14 -114 14q-53 0 -93 -8q-32 -19 -32 -113v-6v-22zM993 260q130 41 228 129h-228v-129zM993 418h228v198h-228v-198zM993 645h228v316h-27q-72 -104 -201 -134v-182zM993 924q19 14 39 37h-39v-37zM993 989h60 q41 59 41 137q0 37 -9 68h-92v-205zM993 1223h82q-29 72 -78 106q-4 0 -4 4v-110zM1249 420q76 75 119 196h-119v-196zM1249 645h129q23 80 23 160q0 78 -23 156h-129v-316zM1249 989h121q-39 113 -121 203v-203z" />
<glyph unicode="Q" d="M8 397v13q0 8 8 8h365q-72 82 -111 198h-114q-8 0 -9 9v12q0 8 9 8h104q-20 70 -20 160q0 82 18 156h-102q-8 0 -9 8v12q0 8 9 8h112q43 121 115 205h-367q-8 0 -8 8v12q0 8 8 9h387l11 10v387q0 8 8 8h12q8 0 8 -8v-356q78 80 179 122v95q0 8 8 8h12q8 0 8 -8v-82 q100 37 195 37q49 0 121 -15v60q0 8 8 8h12q8 0 8 -8v-68q129 -39 228 -135v342q0 8 8 8h12q8 0 8 -8v-375q4 -4 10.5 -11t8.5 -11h358q8 0 8 -9v-12q0 -8 -8 -8h-338q86 -129 113 -205h86q8 0 8 -8v-12q0 -8 -8 -8h-78q20 -82 21 -156q0 -82 -23 -160h80q8 0 8 -8v-12 q0 -8 -8 -9h-88q-35 -109 -113 -198h340q8 0 8 -8v-13q0 -8 -8 -8h-366q-6 -8 -11 -12v-201q49 8 72 19v-2q18 12 31 12q25 0 24 -27q0 -43 -127 -63v-105q0 -8 -8 -8h-12q-8 0 -8 8v101q-43 -6 -62 -7q-174 0 -266 68q-16 12 -47 37h-10q-96 0 -187 29v-88q0 -8 -8 -9h-12 q-8 0 -8 9v100q-100 37 -179 104v-344q0 -8 -8 -8h-12q-8 0 -8 8v375l-4 4h-394q-8 0 -8 8zM268 805q0 -90 23 -160h67q-69 109 -69 252q0 22 4 64h-2q-23 -68 -23 -156zM299 616q37 -104 115 -190v149q-18 20 -35 41h-80zM442 418h179v14q-96 41 -179 113v-127zM446 918 q0 -145 70 -273h105v316h-175v-43zM449 389q80 -71 172 -108v108h-172zM451 989h170v205h-111q-47 -90 -59 -205zM528 1223h93v88q-39 -27 -80 -74q-4 -4 -13 -14zM535 616q39 -57 86 -96v96h-86zM649 270q78 -28 168 -32q-72 72 -72 141v10h-96v-119zM649 502 q82 -57 189 -58q66 0 127 25v147h-316v-114zM649 645h316v316h-316v-316zM649 989h316v205h-316v-205zM649 1223h316v131q-4 2 -11 4q-68 14 -118 14q-57 0 -125 -14q-31 -12 -62 -31v-104zM897 377q0 -52 68 -111v123h-62q-6 -6 -6 -12zM993 260q130 41 228 129h-228v-129z M993 481q78 41 133 115q7 6 15 20h-148v-135zM993 645h166q62 102 62 258v23v18q-2 10 -2 17h-226v-316zM993 989h221q-14 119 -65 205h-156v-205zM993 1223h137q-2 4 -10 14q-51 70 -127 104v-118zM1006 233q92 -59 198 -59h17v176q-102 -82 -215 -117zM1022 418h199v119 q-96 -86 -199 -119zM1249 420q76 75 119 196h-80q-18 -29 -39 -51v-145zM1309 645h69q23 80 23 160q0 78 -23 156h-4q4 -45 4 -66q0 -133 -69 -250zM1368 989h2v4q-2 0 -2 2v-6z" />
<glyph unicode="R" d="M10 397v13q0 8 8 8h365q-72 82 -111 198h-114q-8 0 -8 9v12q0 8 8 8h104q-20 70 -20 160q0 82 18 156h-102q-8 0 -8 8v12q0 8 8 8h112q43 121 115 205h-367q-8 0 -8 8v12q0 8 8 9h394l4 4v147q-27 8 -27 29q0 27 27 31v186q0 8 8 8h12q8 0 8 -8v-184q82 -8 148 -9h31v54 q0 8 8 8h12q8 0 8 -8v-54q37 0 113 4.5t113 4.5q39 0 90 -11v56q0 8 8 8h12q8 0 8 -8v-62q115 -29 166 -116q27 -16 62 -43v360q0 8 8 8h12q8 0 8 -8v-387l11 -10h366q8 0 8 -9v-12q0 -8 -8 -8h-340q76 -96 115 -205h86q8 0 8 -8v-12q0 -8 -8 -8h-78q20 -82 21 -156 q0 -82 -23 -160h80q8 0 8 -8v-12q0 -8 -8 -9h-88q-31 -94 -98 -182q14 -2 32 -16h293q8 0 8 -8v-13q0 -8 -8 -8h-291q-6 -12 -30 -12h-56v-367q0 -8 -8 -8h-12q-8 0 -8 8v340q-106 -86 -228 -119v-81q0 -8 -8 -9h-12q-8 0 -8 9v73q-59 -14 -129 -14q-96 0 -187 29v-88 q0 -8 -8 -9h-12q-8 0 -8 9v100q-100 37 -179 104v-344q0 -8 -8 -8h-12q-8 0 -8 8v367q-12 2 -23 12h-375q-8 0 -8 8zM270 805q0 -90 23 -160h123v316h-123q-23 -68 -23 -156zM299 989h117v195q-80 -86 -117 -195zM301 616q39 -109 109 -184q2 0 4 2h2v182h-115zM444 434 q63 0 80 23q13 16 13 73v86h-93v-182zM444 645h93v316h-93v-316zM444 989h93v205h-93v-205zM444 1253q46 39 91 66q-6 53 -91 55v-121zM453 1223h84v63q-57 -41 -84 -63zM465 377q64 -57 158 -96v104h-5q-49 0 -98 -4t-55 -4zM651 270q83 -32 181 -32h6q72 0 129 16v135 h-131q-8 -12 -31 -12q-80 0 -154 8v-115zM688 545q0 -68 14 -86q18 -25 86 -25h5q41 0 47 -16h127v198h-279v-71zM688 645h270l-57 115q-18 37 -16 35q-33 63 -51 77q-25 14 -109 15h-25q-12 -14 -12 -62v-180zM688 961q0 -23 35 -23q4 0 14 2h13h16q100 1 149 21h-227z M688 989h279v205h-279v-205zM688 1223h279v110q-29 23 -64 35q-45 4 -65 4q-72 0 -138 -18q-12 -18 -12 -94v-37zM981 924l14 -43q12 -20 37 -60h-2q2 0 4 -3t2 -5l86 -168h101v316h-148q-27 -16 -94 -37zM995 260q121 37 213 117h-80q-20 0 -32 12h-101v-129zM995 418h82 q-4 4 -4 8l-6 12l-72 135v-155zM995 1016q47 55 47 139v21q-2 12 -2 18h-45v-178zM995 1223h39q-8 47 -39 84v-84zM1114 989h109v205h-29q0 -4 2 -10v-10q0 -109 -82 -185zM1139 616l32 -63h-2q8 -12 18.5 -32.5t35.5 -57.5v153h-84zM1184 1251q4 -12 8 -28h29 q-6 6 -18.5 15t-18.5 13zM1251 442q8 -4 15 -6q65 76 104 180h-119v-174zM1251 645h129q23 80 23 160q0 78 -23 156h-129v-316zM1251 989h121q-39 113 -121 203v-203z" />
<glyph unicode="S" d="M8 397v13q0 8 8 8h365q-72 82 -111 198h-114q-8 0 -9 9v12q0 8 9 8h104q-20 70 -20 160q0 82 18 156h-102q-8 0 -9 8v12q0 8 9 8h112q43 121 115 205h-367q-8 0 -8 8v12q0 8 8 9h394l4 4v393q0 8 8 8h12q8 0 8 -8v-367q61 55 136 88q14 16 43 35v105q0 8 8 8h12q8 0 8 -8 v-86q84 45 178 45q63 0 138 -13v54q0 8 8 8h12q8 0 8 -8v-60q41 -12 60 -18h-2q35 -12 34 -55v-2q80 -41 136 -86v360q0 8 8 8h12q8 0 8 -8v-387l11 -10h366q8 0 8 -9v-12q0 -8 -8 -8h-340q76 -96 115 -205h86q8 0 8 -8v-12q0 -8 -8 -8h-78q20 -82 21 -156q0 -82 -23 -160 h80q8 0 8 -8v-12q0 -8 -8 -9h-88q-35 -109 -113 -198h340q8 0 8 -8v-13q0 -8 -8 -8h-366q-6 -8 -11 -12v-367q0 -8 -8 -8h-12q-8 0 -8 8v340q-106 -86 -228 -119v-81q0 -8 -8 -9h-12q-8 0 -8 9v73q-59 -14 -129 -14q-96 0 -187 29v-88q0 -8 -8 -9h-12q-8 0 -8 9v100 q-100 37 -179 104v-344q0 -8 -8 -8h-12q-8 0 -8 8v375l-4 4h-394q-8 0 -8 8zM268 805q0 -90 23 -160h123v316h-123q-23 -68 -23 -156zM297 989h117v195q-80 -86 -117 -195zM299 616q37 -104 115 -190v190h-115zM442 418h93q-14 8 -27 16v-2q-27 16 -27 78v22q0 55 2 84h-41 v-198zM442 645h43q2 4 3 10.5t1 8.5q0 39 27 38q33 0 33 -57h72v309q-4 2 -9 7h-170v-316zM442 989h129q-71 58 -71 159q0 17 4 46h-62v-205zM449 389q80 -71 172 -108v104q-4 0 -13 4h-159zM451 1223h57q6 34 24 61q-39 -25 -81 -61zM553 616q17 -90 68 -139v139h-68z M649 270q83 -32 181 -32h6q72 0 129 16v135h-50q-63 -22 -146 -22h-7q-53 0 -113 12v-109zM649 453q41 -29 99 -35h71q85 10 146 67v131h-316v-163zM649 645h316v127q-43 43 -140 88l-84 39q-31 12 -92 41v-295zM649 1137q37 -47 129 -86l152 -62h35v205h-316v-57zM649 1223 h316v118l-25 19q-49 12 -104 12q-72 0 -148 -20q-20 -12 -39 -35v-94zM993 260q130 41 228 129h-228v-129zM993 418h228v198h-82q-27 -88 -107 -161q-20 -18 -39 -31v-6zM993 518q27 39 31 98h-31v-98zM993 645h29q-2 51 -29 90v-90zM993 956q39 -23 76 -55q82 -92 82 -205 q0 -18 -4 -51h74v316h-228v-5zM993 989h228v205h-131q-2 -16 -25 -16q-16 0 -23 16h-49v-205zM993 1223h35q-18 57 -35 82v-82zM1087 1313q0 -14 3 -45v-45h129q-66 55 -132 90zM1249 420q76 75 119 196h-119v-196zM1249 645h129q23 80 23 160q0 78 -23 156h-129v-316z M1249 989h121q-39 113 -121 203v-203z" />
<glyph unicode="T" d="M8 397v13q0 8 8 8h365q-72 82 -111 198h-114q-8 0 -9 9v12q0 8 9 8h104q-20 70 -20 160q0 82 18 156h-102q-8 0 -9 8v12q0 8 9 8h112q43 121 115 205h-8q-12 -16 -29 -16q-18 0 -22 16h-308q-8 0 -8 8v12q0 8 8 9h310q2 8 4 20v4l65 213l4 4q4 8 15 21v135q0 8 8 8h12 q8 0 8 -8v-137q8 -12 9 -23q0 -18 6 -30q16 -6 41 -7h123v58q0 8 8 8h12q8 0 8 -8v-58h316v58q0 8 8 8h12q8 0 8 -8v-58h162q55 0 66 31v166q0 8 8 8h12q8 0 8 -8v-131h4q25 0 25 -35q0 -6 -2 -17.5t-2 -15.5v-2l-8 -196h360q8 0 8 -9v-12q0 -8 -8 -8h-340q76 -96 115 -205 h86q8 0 8 -8v-12q0 -8 -8 -8h-78q20 -82 21 -156q0 -82 -23 -160h80q8 0 8 -8v-12q0 -8 -8 -9h-88q-35 -109 -113 -198h340q8 0 8 -8v-13q0 -8 -8 -8h-366q-6 -8 -11 -12v-367q0 -8 -8 -8h-12q-8 0 -8 8v340q-106 -86 -228 -119v-81q0 -8 -8 -9h-12q-8 0 -8 9v73 q-59 -14 -129 -14q-96 0 -187 29v-88q0 -8 -8 -9h-12q-8 0 -8 9v100q-100 37 -179 104v-344q0 -8 -8 -8h-12q-8 0 -8 8v375l-4 4h-394q-8 0 -8 8zM268 805q0 -90 23 -160h123v316h-123q-23 -68 -23 -156zM297 989h117v195q-80 -86 -117 -195zM299 616q37 -104 115 -190v190 h-115zM391 1223h19l4 4v30q-6 -10 -23 -34zM442 418h146q4 18 33 22v176h-179v-198zM442 645h179v316h-179v-316zM442 989h179v205h-179v-205zM442 1253q68 62 170 105q-113 -2 -170 -66v-39zM449 389q80 -71 172 -108v102q-20 0 -27 6h-145zM451 1223h170v106 q-80 -31 -170 -106zM649 270q83 -32 181 -32h6q72 0 129 16v129q-27 0 -62 2t-65 4h-29q-66 0 -92 -2q-51 -4 -68 -4v-113zM649 440q59 2 76 27q10 17 10 80v69h-86v-176zM649 645h86v316h-86v-316zM649 989h86v205h-86v-205zM649 1223h86v100q0 33 -18 35q-33 -6 -68 -19 v-116zM881 547q0 -63 10 -80q15 -25 74 -27v176h-84v-69zM881 645h84v316h-84v-316zM881 989h84v205h-84v-205zM881 1223h84v133q-6 0 -19 4h-16q-37 0 -43 -8.5t-6 -59.5v-69zM993 260q130 41 228 129h-203q-6 -6 -25 -6v-123zM993 440q29 -4 31 -22h197v198h-228v-176z M993 645h228v316h-228v-316zM993 989h228v203l-2 2h-226v-205zM993 1223h215q0 2 -1 5t-3 5q-88 78 -211 115v-125zM1051 1360q76 -33 135 -74q-6 12 -21 35q-35 39 -114 39zM1249 420q76 75 119 196h-119v-196zM1249 645h129q23 80 23 160q0 78 -23 156h-129v-316z M1249 989h121q-39 111 -119 199h-2v-199z" />
<glyph unicode="U" d="M6 397v13q0 8 8 8h365q-72 82 -111 198h-114q-8 0 -9 9v12q0 8 9 8h104q-20 70 -20 160q0 82 18 156h-102q-8 0 -9 8v12q0 8 9 8h112q43 121 115 205h-367q-8 0 -8 8v12q0 8 8 9h392v53q0 59 -16.5 78.5t-86.5 19.5q-49 0 -49 33q0 31 37 31q61 0 92 -2q8 -2 29 -2v186 q0 8 8 8h12q8 0 8 -8v-188h41q47 0 92 2l45 2v45q0 8 9 8h12q8 0 8 -8v-43h25q37 0 37 -31q0 -14 -7 -21q68 14 132 15q59 0 129 -17v97q0 8 8 8h12q8 0 8 -8v-103q92 -27 183 -86q-4 18 -15 51q-16 31 -92 31h-4q-49 0 -49 33q0 31 39 31q25 0 75 -3t74 -3h17v188q0 8 8 8 h12q8 0 8 -8v-186q16 0 25 2q20 2 61 2q43 0 43 -31v-2q-2 -2 -2 -4q-4 -27 -57 -27t-70 -26v-115l10 -10h367q8 0 8 -9v-12q0 -8 -8 -8h-340q76 -96 115 -205h86q8 0 8 -8v-12q0 -8 -8 -8h-78q20 -82 20 -156q0 -82 -22 -160h80q8 0 8 -8v-12q0 -8 -8 -9h-88 q-35 -109 -113 -198h340q8 0 8 -8v-13q0 -8 -8 -8h-367q-6 -8 -10 -12v-367q0 -8 -8 -8h-12q-8 0 -8 8v340q-106 -86 -228 -119v-81q0 -8 -8 -9h-12q-8 0 -8 9v73q-59 -14 -129 -14q-96 0 -187 29v-88q0 -8 -8 -9h-12q-8 0 -9 9v100q-100 37 -178 104v-344q0 -8 -8 -8h-12 q-8 0 -8 8v375l-4 4h-394q-8 0 -8 8zM266 805q0 -90 23 -160h119q-2 27 -2 80v236h-117q-23 -68 -23 -156zM295 989h111v189q-76 -88 -111 -189zM297 616q37 -104 115 -190v180q-2 4 -2 10h-113zM440 418h146q-53 18 -78 43q-39 20 -68 67v-110zM446 389q80 -71 172 -108 v108h-172zM557 748q0 -68 4 -103h57v316h-61v-213zM557 989h61v205h-61v-205zM557 1223h61v106q-20 -8 -61 -29v-77zM561 1335q18 11 57 27v10q-49 -6 -57 -37zM565 616q10 -73 53 -108v108h-53zM647 270q83 -32 181 -32h6q72 0 129 16v135h-11q-51 -10 -131 -10 q-76 0 -129 10h-45v-119zM647 489q80 -49 207 -49q64 1 109 11v165h-316v-127zM647 645h316v316h-316v-316zM647 989h316v205h-316v-205zM647 1223h316v133q-70 16 -129 16q-92 0 -187 -33v-116zM991 260q130 41 228 129h-228v-129zM991 459q82 25 127 69q37 37 49 88h-176 v-157zM991 645h183q4 27 4 84v232h-187v-316zM991 989h187v205h-187v-205zM991 1223h187q0 20 -2 30q-80 63 -185 95v-125zM1053 418h166v166q-20 -59 -80 -113q-37 -33 -86 -53zM1247 420q76 75 119 196h-119v-196zM1247 645h129q23 80 23 160q0 78 -23 156h-129v-316z M1247 989h121q-39 113 -121 203v-203z" />
<glyph unicode="V" d="M4 397v13q0 8 8 8h365q-72 82 -111 198h-114q-8 0 -9 9v12q0 8 9 8h104q-20 70 -20 160q0 82 18 156h-102q-8 0 -9 8v12q0 8 9 8h112q43 121 115 205h-367q-8 0 -8 8v12q0 8 8 9h394l4 4v98q-33 57 -87.5 57t-54.5 35q0 27 39 27q23 0 88 -4q2 0 6 -2h9v182q0 8 8 8h12 q8 0 8 -8v-182h43q31 0 74 4q20 2 61 2v37q0 8 9 8h12q8 0 8 -8v-37q23 -4 23 -27t-23 -31v-16q96 31 186 31q59 0 130 -17v97q0 8 8 8h12q8 0 8 -8v-103q74 -20 146 -61q6 12 6 26q0 39 -60 39h-16q-63 0 -64 29q0 33 46 33q47 0 71 -2q47 -4 70 -4h29v182q0 8 8 8h12 q8 0 8 -8v-180q14 0 41 2t41 2q33 0 33 -29q0 -4 -6 -8q-4 -25 -44 -25t-65 -18h2l-2 -2v-129l10 -10h367q8 0 8 -9v-12q0 -8 -8 -8h-340q76 -96 115 -205h86q8 0 8 -8v-12q0 -8 -8 -8h-78q20 -82 20 -156q0 -82 -22 -160h80q8 0 8 -8v-12q0 -8 -8 -9h-88 q-35 -109 -113 -198h340q8 0 8 -8v-13q0 -8 -8 -8h-367q-6 -8 -10 -12v-367q0 -8 -8 -8h-12q-8 0 -8 8v340q-106 -86 -228 -119v-81q0 -8 -8 -9h-12q-8 0 -8 9v73q-59 -14 -130 -14q-96 0 -186 29v-88q0 -8 -8 -9h-12q-8 0 -9 9v100q-100 37 -178 104v-344q0 -8 -8 -8h-12 q-8 0 -8 8v375l-4 4h-394q-8 0 -8 8zM264 805q0 -90 23 -160h123v316h-123q-23 -68 -23 -156zM293 989h117v195q-80 -86 -117 -195zM295 616q37 -104 115 -190v190h-115zM438 418h178v198h-178v-198zM438 645h178v193l-53 123h-125v-316zM438 989h113l-84 205h-29v-205z M438 1253q0 2 2 2l-2 7v-9zM444 389q80 -71 172 -108v108h-172zM446 1223h9l-2 4l-2 -1t-5 -3zM555 1366q0 -14 6 -31q28 17 55 27v22q-61 0 -61 -18zM573 1311l2 -4l35 -84h6v106zM645 270q83 -32 180 -32h6q73 0 130 16v135h-316v-119zM645 418h148q-6 12 -8.5 15t-2.5 9 v-2l-73 176h-64v-198zM645 645h51l-51 123v-123zM645 1141l64 -152h252v205h-316v-53zM645 1223h316v133q-70 16 -130 16q-92 0 -186 -33v-116zM719 961l135 -316h12l95 232v84h-242zM846 418h115v198h-37l-70 -176q0 -4 -2 -8t-3 -8t-3 -6zM936 645h25v60zM989 260 q130 41 228 129h-228v-129zM989 418h228v198h-228v-198zM989 645h228v316h-150l-78 -189v-127zM989 942l6 19h-6v-19zM989 989h19l84 205h-103v-205zM989 1223h115l16 43v-2q2 8 4 24q-66 39 -135 60v-125zM1079 989h138v205h-56zM1174 1223h40l-30 24zM1194 1276 q4 -2 11.5 -7t11.5 -9v59q-16 -29 -23 -43zM1245 420q76 75 119 196h-119v-196zM1245 645h129q23 80 23 160q0 78 -23 156h-129v-316zM1245 989h121q-39 113 -121 203v-203z" />
<glyph unicode="W" d="M12 397v13q0 8 8 8h365q-72 82 -111 198h-114q-8 0 -8 9v12q0 8 8 8h104q-20 70 -20 160q0 82 18 156h-102q-8 0 -8 8v12q0 8 8 8h112q2 6 6.5 17.5t6.5 15.5l-80 172h-185q-8 0 -8 8v12q0 8 8 9h170l-14 32l-10 21q-16 35 -41 78q-24 22 -59 22h-3q-49 0 -49 33 q0 31 35 31q27 0 80 -4t80 -4q33 0 82 4t74 4q37 0 36 -33q0 -31 -41 -31h-4q-55 0 -55 -26q0 -23 21 -68h-3l7 -6l24 -53h64l4 4v393q0 8 8 8h12q8 0 8 -8v-367q63 55 127 84q-25 39 -57 39h-14q-41 0 -41 31q0 33 33 33q23 0 65.5 -4t65.5 -4v49q0 8 8 8h12q8 0 8 -8v-49 q27 0 77 4t77 4q10 0 24.5 -10.5t14.5 -22.5v-6q18 0 51 -4v10q0 33 35 33q25 0 37 -2v43q0 8 8 8h12q8 0 8 -8v-45q37 -4 56 -4q18 0 57 4t57 4q31 0 31 -33q0 -31 -53 -31h-4q-35 0 -62 -26q86 -41 146 -90v360q0 8 8 8h12q8 0 8 -8v-201q6 20 33 21q20 0 60 -4t61 -4 q20 0 58 4t59 4q25 0 32 -27q6 0 7 -6q0 -31 -45 -31h-5q-35 0 -54 -20.5t-46 -83.5q-2 -8 -8 -23l-12 -26h237q8 0 8 -9v-12q0 -8 -8 -8h-248l-34 -82q31 -53 57 -123h86q8 0 8 -8v-12q0 -8 -8 -8h-78q20 -82 21 -156q0 -82 -23 -160h80q8 0 8 -8v-12q0 -8 -8 -9h-88 q-35 -109 -113 -198h340q8 0 8 -8v-13q0 -8 -8 -8h-366q-6 -8 -11 -12v-367q0 -8 -8 -8h-12q-8 0 -8 8v340q-106 -86 -228 -119v-81q0 -8 -8 -9h-12q-8 0 -8 9v73q-59 -14 -129 -14q-96 0 -187 29v-88q0 -8 -8 -9h-12q-8 0 -8 9v100q-100 37 -179 104v-344q0 -8 -8 -8h-12 q-8 0 -8 8v375l-4 4h-394q-8 0 -8 8zM272 805q0 -90 23 -160h123v88l-107 228h-16q-23 -68 -23 -156zM303 616q37 -104 115 -190v190h-115zM362 1194l9 -18q4 4 9 10t7 8h-25zM385 1145l33 -66v105q-16 -16 -33 -39zM446 418h117v4v4q-2 0 -2 2v-4l-88 192h-27v-198z M446 645h13l-13 29v-29zM446 1020l15 -31h164v205h-179v-174zM453 389q80 -71 172 -108v108h-13q-4 -4 -16 -4q-10 0 -14 4h-129zM455 1223h170v12l-19 41l2 -2q-2 2 -6 11t-14 30q-59 -31 -133 -92zM473 961l148 -316h4v316h-152zM653 270q82 -32 181 -32h6q72 0 129 16 v135h-316v-119zM653 418h316v69l-60 129h-186l-70 -153v-45zM653 612l2 4h-2v-4zM653 645h15l86 186q20 33 20 62q0 18 -24 68h-97v-316zM653 989h84l-84 185v-185zM735 645h162l-80 170zM735 1350q0 -10 37 -95l14 -32h148l27 53q2 2 3 5l1 3l4 8v64q-70 16 -129 16 q-45 0 -101 -10q-4 -4 -4 -12zM801 1194l59 -131l62 131h-121zM907 989h62v158l-29 -55q-33 -63 -33 -103zM913 961q6 -31 23 -56l33 -74v130h-56zM997 260q130 41 228 129h-228v-129zM997 418h2v4q-2 0 -2 2v-6zM997 768l56 -123h28l129 316h-213v-193zM997 989h224l4 6 v199h-228v-205zM1006 1223h217q-76 66 -164 102q-8 -12 -33 -59v2q0 -2 -4 -11.5t-6 -13.5zM1061 418h164v198h-84l-76 -188zM1153 645h72v168zM1253 420q76 75 119 196h-119v-196zM1253 645h129q23 80 23 160q0 78 -23 156h-96l-33 -78v-238zM1253 1065l35 84 q-6 8 -17 22.5t-18 20.5v-127zM1253 1233l11 -10h53l16 41q25 61 25 77q0 35 -53 35h-19q-27 0 -33 17v-160zM1290 1194q4 -8 10 -14l5 14h-15zM1298 989h76q-14 45 -41 90z" />
<glyph unicode="X" d="M4 397v13q0 8 8 8h283v6q0 35 43 35h6q-49 68 -78 157h-114q-8 0 -9 9v12q0 8 9 8h104q-20 70 -20 160q0 82 18 156h-102q-8 0 -9 8v12q0 8 9 8h112q43 121 115 205h-367q-8 0 -8 8v12q0 8 8 9h394l4 4v149q-16 4 -48 4h-8q-57 0 -57 33q0 31 41 31q47 0 72 -2v178 q0 8 8 8h12q8 0 8 -8v-180q18 -2 58 -2q39 0 120 4v39q0 8 9 8h12q8 0 8 -8v-39q35 2 105 2q37 0 36 -31q0 -10 -2 -14q6 0 23 2h24q59 0 130 -17v17q-2 2 -3 12q0 8 3 10v58q0 8 8 8h12q8 0 8 -8v-39q4 2 12 2q35 0 106 -3t105 -3h5v182q0 8 8 8h12q8 0 8 -8v-182 q18 0 56 3t57 3q33 0 33 -37q0 -27 -52 -27q-63 0 -94 -14v-133l10 -10h367q8 0 8 -9v-12q0 -8 -8 -8h-340q76 -96 115 -205h86q8 0 8 -8v-12q0 -8 -8 -8h-78q20 -82 20 -156q0 -82 -22 -160h80q8 0 8 -8v-12q0 -8 -8 -9h-88q-23 -72 -78 -155q6 -2 29 -2q51 0 51 -35 q0 -2 -4 -6h229q8 0 8 -8v-13q0 -8 -8 -8h-367q-6 -8 -10 -12v-367q0 -8 -8 -8h-12q-8 0 -8 8v340q-106 -86 -228 -119v-81q0 -8 -8 -9h-12q-8 0 -8 9v73q-59 -14 -130 -14q-96 0 -186 29v-88q0 -8 -8 -9h-12q-8 0 -9 9v100q-100 37 -178 104v-344q0 -8 -8 -8h-12q-8 0 -8 8 v375l-4 4h-394q-8 0 -8 8zM264 805q0 -90 23 -160h123v316h-123q-23 -68 -23 -156zM293 989h117v195q-80 -86 -117 -195zM295 616q31 -88 86 -157q11 2 29 8v149h-115zM438 481q39 27 109 121q4 6 8 14h-117v-135zM438 645h142l36 47v269h-178v-316zM438 989h178v152l-38 53 h-140v-205zM438 1253q31 29 62 47q-43 51 -60 64q-2 0 -2 2v-113zM444 389q80 -71 172 -108v108h-172zM446 1223h109l-4 6q-8 10 -25 33q-2 2 -5 7t-5 7q-41 -31 -70 -53zM567 485q0 -27 47 -26h2v119q-49 -72 -49 -93zM645 270q83 -32 180 -32h6q73 0 130 16v135h-316v-119 zM645 459q70 0 70 -35v-6h231v8q1 19 15 25v165h-316v-157zM645 729l109 145q18 25 18 41q0 10 -14 33q-2 4 -8 13h-105v-232zM645 989h84l-84 117v-117zM645 1339q8 -18 29 -34l57 -82h230v133q-70 16 -130 16q-92 0 -186 -33zM664 645h297v25l-138 194zM754 874q-1 0 -1 1 t1 2v-3zM754 1194l118 -160l89 115v45h-207zM922 989h39v53l-15 -18q-18 -14 -24 -35zM928 961q12 -20 18 -29v-2l15 -17v48h-33zM946 932q0 2 2 0h-2zM989 260q130 41 228 129h-228v-129zM989 459h47h4q45 0 45 24q0 20 -41 72v-2l-2 2l-43 61h-10v-157zM989 874l166 -229 h62v316h-228v-87zM989 989h228v205h-146q-6 -8 -29 -39l-53 -72v-94zM989 1186l6 8h-6v-8zM989 1223h29l18 24q29 39 41 68q-57 25 -88 33v-125zM989 1378q65 -21 98 -37v13q0 27 -49 26h-18q-20 0 -31 2v-4zM1096 1223h118q-25 23 -73 55q-16 -18 -45 -55zM1161 1300 q19 -11 56 -40v88q-18 -12 -56 -48zM1178 616l39 -53v53h-39zM1245 524l4 -6q20 -31 41 -45q45 61 74 143h-119v-92zM1245 645h129q23 80 23 160q0 78 -23 156h-129v-316zM1245 989h121q-39 113 -121 203v-203z" />
<glyph unicode="Y" d="M10 397v13q0 8 8 8h365q-72 82 -111 198h-114q-8 0 -8 9v12q0 8 8 8h104q-20 70 -20 160q0 82 18 156h-102q-8 0 -8 8v12q0 8 8 8h112q43 121 115 205h-367q-8 0 -8 8v12q0 8 8 9h394l4 4v90q-49 57 -117 57q-55 0 -55 33q0 29 41 29q23 0 65.5 -3t65.5 -3v190q0 8 8 8 h12q8 0 8 -8v-190q98 0 179 6v45q0 8 8 8h12q8 0 8 -8v-45h8q39 0 39 -27q0 -16 -12 -29q76 20 152 21q59 0 129 -17v97q0 8 8 8h12q8 0 8 -8v-56q12 10 33 11q27 0 77 -3t77 -3h41v190q0 8 8 8h12q8 0 8 -8v-190q2 0 4 2q53 4 74 4q37 0 43 -27q2 -2 2 -6q0 -29 -55 -29 q-33 0 -68 -20v-121l11 -10h366q8 0 8 -9v-12q0 -8 -8 -8h-340q76 -96 115 -205h86q8 0 8 -8v-12q0 -8 -8 -8h-78q20 -82 21 -156q0 -82 -23 -160h80q8 0 8 -8v-12q0 -8 -8 -9h-88q-35 -109 -113 -198h340q8 0 8 -8v-13q0 -8 -8 -8h-366q-6 -8 -11 -12v-367q0 -8 -8 -8h-12 q-8 0 -8 8v340q-106 -86 -228 -119v-81q0 -8 -8 -9h-12q-8 0 -8 9v73q-59 -14 -129 -14q-96 0 -187 29v-88q0 -8 -8 -9h-12q-8 0 -8 9v100q-100 37 -179 104v-344q0 -8 -8 -8h-12q-8 0 -8 8v375l-4 4h-394q-8 0 -8 8zM270 805q0 -90 23 -160h123v316h-123q-23 -68 -23 -156z M299 989h117v195q-80 -86 -117 -195zM301 616q37 -104 115 -190v190h-115zM444 418h138q2 24 41 24v174h-179v-198zM444 645h179v316h-179v-316zM444 989h179v19l-125 186h-54v-205zM444 1253l9 9q-2 4 -9 14v-23zM451 389q80 -71 172 -108v102h-5q-16 0 -26 6h-141z M453 1223h26l-10 14q-10 -10 -16 -14zM573 1339q8 4 25 11.5t25 11.5v12q-49 -4 -50 -22v-13zM586 1315l22 -33l15 -22v69q-6 -2 -18.5 -6t-18.5 -8zM608 1282v2v-2zM651 270q83 -32 181 -32h6q72 0 129 16v129q-10 0 -64 4q-8 0 -26 2h-140q-2 0 -26 -2q-53 -4 -60 -4v-113 zM651 442q53 2 68 25q10 17 10 74v75h-78v-174zM651 645h78v133q0 53 -6 73.5t-35 61.5l-33 48h-4v-316zM651 1223h316v133q-70 16 -129 16q-92 0 -187 -33v-116zM668 1194l137 -205h100l62 94v111h-299zM823 961l33 -48l31 48h-64zM881 551q0 -66 10 -82q17 -25 76 -27v174 h-86v-65zM881 645h86v316h-9l-36 -54q-31 -45 -36 -62.5t-5 -70.5v-129zM995 260q130 41 228 129h-203q-8 -6 -25 -6v-123zM995 442q31 -4 35 -24h193v198h-228v-174zM995 645h228v316h-228v-316zM995 989h228v205h-107l-121 -178v-27zM995 1124l45 70h-45v-70zM995 1223h64 l18 26q23 34 31 54q-45 23 -113 45v-125zM995 1378q66 -18 123 -49v12q0 33 -59 33h-19q-33 0 -45 6v-2zM1133 1223h88q-27 23 -58 45q-10 -14 -30 -45zM1182 1290q8 -4 21.5 -14t19.5 -16v73q-25 -20 -41 -43zM1251 420q76 75 119 196h-119v-196zM1251 645h129 q23 80 23 160q0 78 -23 156h-129v-316zM1251 989h121q-39 113 -121 203v-203z" />
<glyph unicode="Z" d="M8 397v13q0 8 8 8h365q-72 82 -111 198h-114q-8 0 -9 9v12q0 8 9 8h104q-20 70 -20 160q0 82 18 156h-102q-8 0 -9 8v12q0 8 9 8h112q43 121 115 205h-367q-8 0 -8 8v12q0 8 8 9h394l4 4v393q0 8 8 8h12q8 0 8 -8v-367q8 6 23.5 18.5t21.5 18.5l41 148q0 2 2 10 q10 43 35 43t29 -37q0 -23 12 -31l-2 2q4 -2 17 -2v58q0 8 8 8h12q8 0 8 -8v-58h316v58q0 8 8 8h12q8 0 8 -8v-58h228v197q0 8 8 8h12q8 0 8 -8v-205q6 -2 6 -14q0 -6 -6 -19v-149l11 -10h366q8 0 8 -9v-12q0 -8 -8 -8h-340q76 -96 115 -205h86q8 0 8 -8v-12q0 -8 -8 -8h-78 q20 -82 21 -156q0 -82 -23 -160h80q8 0 8 -8v-12q0 -8 -8 -9h-88q-35 -109 -113 -198h340q8 0 8 -8v-13q0 -8 -8 -8h-366q-6 -8 -11 -12v-367q0 -8 -8 -8h-12q-8 0 -8 8v340q-106 -86 -228 -119v-81q0 -8 -8 -9h-12q-8 0 -8 9v73q-59 -14 -129 -14q-96 0 -187 29v-88 q0 -8 -8 -9h-12q-8 0 -8 9v100q-100 37 -179 104v-344q0 -8 -8 -8h-12q-8 0 -8 8v375l-4 4h-394q-8 0 -8 8zM268 805q0 -90 23 -160h123v316h-123q-23 -68 -23 -156zM297 989h117v195q-80 -86 -117 -195zM299 616q33 -96 104 -178l7 6l4 7v165h-115zM442 489l90 127h-90 v-127zM442 645h111l68 92v224h-179v-316zM442 989h179v205h-111q-6 -6 -16 -6q-8 0 -15 6h-37v-205zM449 389q80 -71 172 -108v108h-172zM451 1223h22l4 20q-4 -2 -13 -9t-13 -11zM532 1223h89v102q-51 -29 -84 -94q-2 -2 -5 -8zM598 465q0 -8 20 -8h3v45q-23 -27 -23 -37z M614 498q3 4 7 6v2zM649 270q83 -32 181 -32h6q72 0 129 16v135h-316v-119zM649 459h316v157h-265l-51 -73v-84zM649 776l129 185h-129v-185zM649 989h150l147 205h-297v-205zM649 1223h316v133q-6 0 -19 4h-180q-49 0 -90 -12q-8 -2 -27 -9v-116zM719 645h246v316h-19z M993 260q130 41 228 129h-228v-129zM993 459q186 5 211 157h-211v-157zM993 645h215q1 27 13 35v281h-228v-316zM993 989h228v205h-107l-121 -168v-37zM993 1260l51 69q-23 12 -51 19v-88zM1133 1223h86l-56 43zM1180 1290q29 -20 41 -30v83zM1249 684q16 -6 17 -31 q0 4 -2 -8h114q23 80 23 160q0 78 -23 156h-129v-277zM1249 989h121q-39 113 -121 203v-203zM1264 434q67 80 104 182h-104v-182z" />
<glyph unicode="a" horiz-adv-x="1638" />
<glyph unicode="b" horiz-adv-x="1638" />
<glyph unicode="c" horiz-adv-x="1638" />
<glyph unicode="d" horiz-adv-x="1638" />
<glyph unicode="e" horiz-adv-x="1638" />
<glyph unicode="f" horiz-adv-x="1638" />
<glyph unicode="g" horiz-adv-x="1638" />
<glyph unicode="h" horiz-adv-x="1638" />
<glyph unicode="i" horiz-adv-x="1638" />
<glyph unicode="j" horiz-adv-x="1638" />
<glyph unicode="k" horiz-adv-x="1638" />
<glyph unicode="l" horiz-adv-x="1638" />
<glyph unicode="m" horiz-adv-x="1638" />
<glyph unicode="n" horiz-adv-x="1638" />
<glyph unicode="o" horiz-adv-x="1638" />
<glyph unicode="p" horiz-adv-x="1638" />
<glyph unicode="q" horiz-adv-x="1638" />
<glyph unicode="r" horiz-adv-x="1638" />
<glyph unicode="s" horiz-adv-x="1638" />
<glyph unicode="t" horiz-adv-x="1638" />
<glyph unicode="u" horiz-adv-x="1638" />
<glyph unicode="v" horiz-adv-x="1638" />
<glyph unicode="w" horiz-adv-x="1638" />
<glyph unicode="x" horiz-adv-x="1638" />
<glyph unicode="y" horiz-adv-x="1638" />
<glyph unicode="z" horiz-adv-x="1638" />
<glyph unicode="&#xb2;" d="M6 391v23q0 8 8 8h293q-70 96 -98 203h-70q-8 0 -8 8v22q0 8 8 9h60q-14 59 -15 135q0 96 23 170h-68q-8 0 -8 8v22q0 8 8 9h80q35 96 100 180h-305q-8 0 -8 8v23q0 8 8 8h340q12 14 43 41v321q0 8 9 8h22q8 0 8 -8v-293q82 59 180 95v67q0 8 9 8h22q8 0 8 -8v-57 q72 18 150 18q74 0 156 -20v59q0 8 8 8h22q8 0 8 -8v-69q102 -33 203 -111v332q0 8 8 8h23q8 0 8 -8v-369l14 -14h349q8 0 8 -8v-23q0 -8 -8 -8h-314q68 -92 101 -180h82q8 0 8 -9v-22q0 -8 -8 -8h-70q25 -92 24 -170q0 -66 -16 -135h62q8 0 8 -9v-22q0 -8 -8 -8h-72 q-29 -102 -101 -203h324q8 0 8 -8v-23q0 -8 -8 -8h-356q-4 -6 -21 -23l-6 -6v-354q0 -8 -8 -8h-23q-8 0 -8 8v319q-92 -78 -203 -112v-80q0 -8 -8 -8h-22q-8 0 -8 8v68q-74 -18 -156 -19q-74 0 -150 17v-66q0 -8 -8 -8h-22q-8 0 -9 8v78q-94 31 -180 94v-299q0 -8 -8 -8h-22 q-8 0 -9 8v328q-31 25 -55 55h-328q-8 0 -8 8zM223 799q0 -76 15 -135h159v305h-149q-25 -72 -25 -170zM248 625q39 -121 112 -203h37v203h-149zM262 1008h135v180h-24q-72 -78 -111 -180zM395 383l2 -2v2h-2zM436 346q90 -73 180 -100v137h-180v-37zM436 422h180v203h-180 v-203zM436 664h180v305h-180v-305zM436 1008h180v180h-180v-180zM436 1227h180v121q-100 -31 -180 -99v-22zM655 236q70 -20 150 -21q88 0 156 23v145h-306v-147zM655 422h306v203h-306v-203zM655 664h306v305h-306v-305zM655 1008h306v180h-306v-180zM655 1227h306v133 q-78 20 -156 20q-61 0 -150 -18v-135zM999 248q125 47 203 125v10h-203v-135zM999 422h203v203h-203v-203zM999 664h203v305h-203v-305zM999 1008h203v180h-203v-180zM999 1227h201q-94 84 -201 119v-119zM1241 422h8q72 84 111 203h-119v-203zM1241 664h131q17 69 17 135 q0 84 -27 170h-121v-305zM1241 1008h107q-37 96 -107 176v-176z" />
<glyph unicode="&#xc4;" d="M4 397v13q0 8 8 8h293q0 27 47 26h2q-57 74 -88 172h-114q-8 0 -9 9v12q0 8 9 8h104q-20 70 -20 160q0 82 18 156h-102q-8 0 -9 8v12q0 8 9 8h112q43 121 115 205h-367q-8 0 -8 8v12q0 8 8 9h394l4 4v393q0 8 8 8h12q8 0 8 -8v-367q66 61 178 109v119q0 2 2 4 q-25 25 -24 57q0 78 74 78q70 0 69 -78q0 -76 -71 -76q-14 0 -21 2v-98q49 16 117 27l8 20q6 39 33 39q23 0 28 -37l7 -18q72 -4 123 -17v84q-8 -2 -23 -2q-29 0 -47.5 23.5t-18.5 52.5q0 78 72 78t72 -78q0 -35 -29 -57q2 -2 2 -4v-103q127 -37 228 -118v360q0 8 8 8h12 q8 0 8 -8v-387l10 -10h367q8 0 8 -9v-12q0 -8 -8 -8h-340q76 -96 115 -205h86q8 0 8 -8v-12q0 -8 -8 -8h-78q20 -82 20 -156q0 -82 -22 -160h80q8 0 8 -8v-12q0 -8 -8 -9h-88q-31 -94 -99 -182q4 -4 9 -16h317q8 0 8 -8v-13q0 -8 -8 -8h-367q-6 -8 -10 -12v-367q0 -8 -8 -8 h-12q-8 0 -8 8v340q-106 -86 -228 -119v-81q0 -8 -8 -9h-12q-8 0 -8 9v73q-59 -14 -130 -14q-96 0 -186 29v-88q0 -8 -8 -9h-12q-8 0 -9 9v100q-100 37 -178 104v-344q0 -8 -8 -8h-12q-8 0 -8 8l-2 379h-396q-8 0 -8 8zM264 805q0 -90 23 -160h123v316h-123 q-23 -68 -23 -156zM293 989h117v195q-80 -86 -117 -195zM295 616q37 -98 94 -167q9 2 21 8v159h-115zM438 500q8 20 35 116h-35v-116zM438 645h45q2 4 4 10.5t2 8.5l111 297h-162v-316zM438 989h172l6 17v188h-178v-205zM444 389q80 -71 172 -108v108h-172zM446 1223h170 v106q-80 -31 -170 -106zM522 492q0 -47 92 -48h2v172h-75q-18 -96 -19 -124zM549 645h67v170q-14 -4 -28 -49l-37 -113q-2 -2 -2 -8zM645 270q86 -33 186 -32q73 0 130 16v135h-316v-119zM645 442q18 -4 19 -24h208q4 27 52 26h37v172h-316v-174zM645 645h316v62l-19 43 q-12 29 -24 57q-10 12 -62 12h-211v-174zM645 881h4q4 0 13 2h10h200q11 0 13 2q-2 2 -6 18q-4 8 -5 12l-18 46h-199l-12 -37v-43zM645 1081l43 113h-43v-113zM645 1223h53l52 143q-43 -4 -105 -27v-116zM670 989h174l-80 205h-16q-4 -14 -11 -20zM850 1372l61 -149h50v133 q-61 14 -111 16zM920 1194l41 -96v96h-41zM989 260q130 41 228 129h-228v-129zM989 451q25 5 25 32q0 45 -19 133h-6v-165zM989 1026l15 -37h213v205h-228v-168zM989 1223h225q-98 86 -225 125v-125zM1016 961l119 -293q4 -6 8 -23h74v316h-201zM1151 616q0 -6 2 -10 q21 -102 64 -145v155h-66zM1245 444h23q61 74 96 172h-119v-172zM1245 645h129q23 80 23 160q0 78 -23 156h-129v-316zM1245 989h121q-39 113 -121 203v-203z" />
<glyph unicode="&#xc5;" d="M12 397v13q0 8 8 8h297q10 12 48 12h10q-66 82 -101 186h-114q-8 0 -8 9v12q0 8 8 8h104q-20 70 -20 160q0 82 18 156h-102q-8 0 -8 8v12q0 8 8 8h112q43 121 115 205h-367q-8 0 -8 8v12q0 8 8 9h394l4 4v393q0 8 8 8h12q8 0 8 -8v-367q66 61 179 109v119q0 8 8 8h12 q8 0 8 -8v-111q96 31 187 31q59 0 129 -17v97q0 8 8 8h12q8 0 8 -8v-103q127 -37 228 -118v360q0 8 8 8h12q8 0 8 -8v-387l11 -10h366q8 0 8 -9v-12q0 -8 -8 -8h-340q76 -96 115 -205h86q8 0 8 -8v-12q0 -8 -8 -8h-78q20 -82 21 -156q0 -82 -23 -160h80q8 0 8 -8v-12 q0 -8 -8 -9h-88q-35 -109 -113 -198h340q8 0 8 -8v-13q0 -8 -8 -8h-338q-8 -12 -26 -12h-13v-367q0 -8 -8 -8h-12q-8 0 -8 8v340q-106 -86 -228 -119v-81q0 -8 -8 -9h-12q-8 0 -8 9v73q-59 -14 -129 -14q-96 0 -187 29v-88q0 -8 -8 -9h-12q-8 0 -8 9v100q-100 37 -179 104 v-344q0 -8 -8 -8h-12q-8 0 -8 8v369q-16 -2 -43 -2h-8h-9q-4 -2 -8 -2q-25 0 -33 14h-297q-8 0 -8 8zM272 805q0 -90 23 -160h123v316h-123q-23 -68 -23 -156zM301 989h117v195q-80 -86 -117 -195zM303 616q33 -98 105 -180q2 2 5 4t5 2v174h-115zM446 469q25 43 41 92 l19 55h-60v-147zM446 645h68l111 303v13h-179v-316zM446 989h179v205h-179v-205zM455 1223h170v106q-80 -31 -170 -106zM459 383q76 -65 166 -102v96q-20 0 -61.5 4t-61.5 4h-21q-14 -2 -22 -2zM530 475q0 -45 93 -45h2v186h-50l-22 -61q-23 -61 -23 -80zM588 645h37v111 q-2 -2 -15 -43q-4 -18 -14 -49v2zM653 270q84 -33 187 -32q72 0 129 16v125q-23 -2 -62 -2q-27 0 -30 12h-211q-8 -8 -13 -10v-109zM653 426q8 -4 13 -8h215q10 12 42 12t46 2v156l-13 28h-303v-190zM653 645h291l-2 4q-12 41 -26.5 84t-55.5 43h-207v-131zM653 836h9 q4 0 12 2h10h174q31 0 31 6q0 4 -4 13t-4 13l-39 91h-154l-35 -91v-34zM653 1028l58 166h-58v-166zM653 1223h68l49 137v8q-49 -8 -117 -29v-116zM686 1522q0 47 32 81.5t79 34.5q49 0 83.5 -31.5t34.5 -78.5q0 -49 -31.5 -84t-80.5 -35q-47 0 -82 34t-35 79zM698 989h133 l-51 127q-8 37 -14 43l-18 -37zM739 1524q0 -27 18.5 -46.5t45.5 -19.5q67 0 67 70q0 59 -69 59q-61 0 -62 -63zM829 1372q0 4 2 -8l54 -141h84v133q-70 16 -129 16h-11zM895 1194l74 -203v203h-74zM997 260q123 41 215 117q-66 8 -143 8q-23 0 -72 -4v-121zM997 442 q13 9 13 25q0 20 -13 53v-78zM997 918l103 -273h125v316h-228v-43zM997 989h228v205h-228v-205zM997 1223h226q-102 90 -226 125v-125zM1110 616l16 -49q-2 0 0 -2q23 -59 37 -82q27 -45 62 -53v186h-115zM1126 567v2v-2zM1253 430q10 -2 9 -2q67 73 110 188h-119v-186z M1253 645h129q23 80 23 160q0 78 -23 156h-129v-316zM1253 989h121q-39 113 -121 203v-203z" />
<glyph unicode="&#xc6;" d="M6 420q0 33 45 33q53 0 68 12q35 25 86 102q2 6 10 17l23 32h-82q-8 0 -9 9v12q0 8 9 8h100l4 4q-20 70 -20 156q0 82 18 156h-102q-8 0 -9 8v12q0 8 9 8h112q43 121 115 205h-367q-8 0 -8 8v12q0 8 8 9h394l4 4v393q0 8 8 8h12q8 0 8 -8v-367q70 61 179 109v119q0 8 8 8 h12q8 0 8 -8v-111q31 12 64 19q-10 6 -11 22q0 29 31 29h232v41q0 8 8 8h12q8 0 8 -8v-41h228v180q0 8 8 8h12q8 0 8 -8v-180h197q31 0 31 -41v-162q0 -10 -2 -14h151q8 0 8 -9v-12q0 -8 -8 -8h-340q16 -18 43 -59q8 4 14 4q29 0 29 -23q0 -8 -1 -25.5t-3 -25.5 q16 -31 33 -76h86q8 0 8 -8v-12q0 -8 -8 -8h-78q20 -82 21 -156q0 -82 -23 -160h72q12 16 26 17q20 0 21 -25v-25q-23 -90 -27 -168q0 -10 -4 -26h131q8 0 8 -8v-13q0 -8 -8 -8h-366q-6 -8 -11 -12v-367q0 -8 -8 -8h-12q-8 0 -8 8v340q-106 -86 -228 -119v-81q0 -8 -8 -9 h-12q-8 0 -8 9v73q-59 -14 -129 -14q-96 0 -187 29v-88q0 -8 -8 -9h-12q-8 0 -8 9v100q-98 37 -179 104v-344q0 -8 -8 -8h-12q-8 0 -8 8v375l-4 4h-394q-8 0 -8 8v11v6q-2 4 -2 6zM252 475q0 -23 65 -22h37q-43 55 -65 112v-2q-37 -63 -37 -88zM268 805q0 -66 13 -125 l133 192v89h-123q-23 -68 -23 -156zM297 989h117v195q-80 -86 -117 -195zM305 596q39 -94 109 -170v190h-95zM338 645h76v113zM442 418h179v198h-179v-198zM442 645h179v283h-25q-49 0 -65.5 -8.5t-41.5 -45.5l-47 -71v-158zM442 915l33 46h-33v-46zM442 989h52l127 182v23 h-179v-205zM449 389q80 -71 172 -108v108h-172zM451 1223h170v106q-80 -31 -170 -106zM578 999q0 -8 28 -8h15v78l-27 -39q-16 -25 -16 -31zM649 270q86 -33 187 -32q72 0 129 16v135h-316v-119zM649 418h53v8q0 27 33 27h10q70 0 89 24q12 16 12 84v55h-197v-198zM649 645 h197v242q0 31 -6 36t-33 5h-158v-283zM649 991h168q29 0 29 27v176h-139l-58 -84v-119zM649 1223h6l64 94h-2q6 6 12 14q15 23 19 35q-31 -6 -99 -27v-116zM725 1223h121v108q0 37 -12 37q-6 0 -29 -29q-6 -8 -6 -12v2zM993 260q130 41 228 129h-228v-129zM993 545 q6 -49 45 -70.5t115 -21.5h68v163h-228v-71zM993 645h228v277q-55 6 -154 6q-68 0 -74 -19v-264zM993 1024q4 -23 18.5 -28t55.5 -5q99 0 154 4v199h-228v-170zM993 1223h226q-92 84 -224 125v-2q-2 0 -2 -3v-120zM1010 1372q121 -36 211 -112v120q-23 2 -62 2h-88 q-45 0 -61 -10zM1249 453q6 0 17 2h14q51 65 88 161h-119v-163zM1249 645h129q23 80 23 160q0 78 -23 156h-16q4 -45 10 -142q0 -39 -29 -39q-27 0 -26 37q-16 94 -55 98q-2 0 -7 3h-6v-273zM1249 997q2 0 6 2h9q33 5 51 107q-33 49 -66 86v-195zM1249 1233l11 -10h163v4 q-29 80 -63.5 110.5t-110.5 40.5v-145zM1321 461q25 6 51 22q49 31 92 133h-65q-27 -82 -78 -155zM1362 989h8q0 4 -2 9.5t-4 7.5q-2 -6 -2 -17z" />
<glyph unicode="&#xd6;" d="M8 397v13q0 8 8 8h365q-72 82 -111 198h-114q-8 0 -9 9v12q0 8 9 8h104q-20 70 -20 160q0 82 18 156h-102q-8 0 -9 8v12q0 8 9 8h112q43 121 115 205h-367q-8 0 -8 8v12q0 8 8 9h394l4 4v393q0 8 8 8h12q8 0 8 -8v-367q66 61 179 109v119q0 8 8 8h10q-20 25 -21 53 q0 74 74 74q29 0 48.5 -22.5t19.5 -53.5t-20.5 -53.5t-51.5 -22.5q-25 0 -39 15v-109q96 31 187 31q59 0 129 -17v80h-2q-31 0 -50.5 24.5t-19.5 53.5q0 74 72 74q31 0 51 -22.5t20 -53.5q0 -47 -43 -70v-92q127 -37 228 -118v360q0 8 8 8h12q8 0 8 -8v-387l11 -10h366 q8 0 8 -9v-12q0 -8 -8 -8h-340q76 -96 115 -205h86q8 0 8 -8v-12q0 -8 -8 -8h-78q20 -82 21 -156q0 -82 -23 -160h80q8 0 8 -8v-12q0 -8 -8 -9h-88q-35 -109 -113 -198h340q8 0 8 -8v-13q0 -8 -8 -8h-366q-6 -8 -11 -12v-367q0 -8 -8 -8h-12q-8 0 -8 8v340 q-106 -86 -228 -119v-81q0 -8 -8 -9h-12q-8 0 -8 9v73q-59 -14 -129 -14q-96 0 -187 29v-88q0 -8 -8 -9h-12q-8 0 -8 9v100q-100 37 -179 104v-344q0 -8 -8 -8h-12q-8 0 -8 8v375l-4 4h-394q-8 0 -8 8zM268 805q0 -90 23 -160h84q-76 117 -76 258q0 37 4 58h-12 q-23 -68 -23 -156zM297 989h8q7 35 19 66q-10 -20 -27 -66zM299 616q37 -104 115 -190v164q-10 12 -21 26h-94zM442 418h179v12q-100 45 -179 127v-139zM449 389q80 -71 172 -108v108h-172zM449 903q0 -150 55 -258h117v316h-170q-2 -20 -2 -58zM455 989h166v205h-86 q-63 -88 -80 -205zM516 616q37 -65 105 -108v108h-105zM559 1223h62v51q-29 -18 -62 -51zM649 270q86 -33 187 -32q72 0 129 16v135h-76q-41 -4 -64 -4q-41 0 -61 4h-115v-119zM649 418h4q-2 0 -4 2v-2zM649 492q84 -47 182 -48q73 0 134 27v145h-316v-124zM649 645h316v316 h-316v-316zM649 989h316v205h-316v-205zM649 1223h316v90q-70 27 -134 26q-94 0 -182 -47v-69zM993 260q130 41 228 129h-228v-129zM993 483q72 39 121 103q1 -1 19 30h-140v-133zM993 645h156q51 102 51 258q0 37 -2 58h-205v-316zM993 989h201q-12 115 -80 205h-121v-205z M993 1223h97q-39 43 -97 75v-75zM1010 418h211v139q-90 -96 -211 -139zM1249 420q76 75 119 196h-100q-6 -10 -19 -26v-170zM1286 645h92q23 80 23 160q0 78 -23 156h-28q4 -41 4 -58q0 -137 -68 -258zM1300 1126q33 -66 46 -137h24q-27 72 -70 137z" />
<glyph unicode="&#xd8;" d="M6 397v13q0 8 8 8h365q-72 82 -111 198h-114q-8 0 -9 9v12q0 8 9 8h104q-20 70 -20 160q0 82 18 156h-102q-8 0 -9 8v12q0 8 9 8h112q43 121 115 205h-367q-8 0 -8 8v12q0 8 8 9h394l6 6v391q0 8 8 8h12q8 0 8 -8v-365q74 66 176 107v119q0 8 9 8h12q8 0 8 -8v-111 q92 31 158 31h45q53 0 113 -17v97q0 8 8 8h12q8 0 8 -8v-103q53 -16 82 -28q12 -6 33 -17q6 -10 16 -10h2q27 -12 62 -39q6 -14 33 -31v7q8 -8 14 -13l-6 -2q14 -14 41 -47l4 10q4 -6 12 -14h-14q18 -25 34.5 -53.5t30.5 -75.5q-29 61 -88 127v-203h107q4 -20 4 -28h-111 v-316h47q-12 -20 -18 -29h-29v-38q-8 -10 -28 -33v71h-86q6 8 18 29h68v316h-11q-4 16 -4 28h15v205h-101q0 2 -2 2h-2q-2 -2 -4 -2h-80l12 14q0 2 5 6v-2l3 4q3 5 5 7h162q-98 88 -226 125v-43q-4 2 -13 6t-15 6v39q-70 16 -129 16q-92 0 -187 -33v-43q-20 -12 -29 -18v51 q-90 -35 -167 -106h102q-12 -16 -18 -23l-7 -6h-86v-205h9q0 -10 -5 -28h-4v-316h64q2 -12 14 -29h-78v-59q-20 16 -28 27v32h-27q-6 8 -18 29h45v316h-119q2 8 6 28h113v197q-72 -80 -109 -172q25 96 92 180h-16q8 8 12 14l4 -12q25 29 39 41l-8 4q4 6 14 14v-12 q74 72 176 115v4q2 0 7 2l-4 -6q6 4 18 8l-2 2q12 2 10 2v-2q90 33 158 33h45q53 0 135 -23v2q2 -2 6 -2q92 -27 133 -55q10 2 33 33l62 84v180q0 8 8 8h12q8 0 8 -8v-143q18 14 41 14q25 0 25 -18q0 -8 -23 -39l4 4l-47 -60v-145l10 -10h367q8 0 8 -9v-12q0 -8 -8 -8h-340 q80 -96 115 -205h86q8 0 8 -8v-12q0 -8 -8 -8h-78q20 -82 20 -156q0 -82 -22 -160h80q8 0 8 -8v-12q0 -8 -8 -9h-88q-35 -109 -113 -198h340q8 0 8 -8v-13q0 -8 -8 -8h-364l-13 -12v-367q0 -8 -8 -8h-12q-8 0 -8 8v340q-106 -86 -228 -119v-81q0 -8 -8 -9h-12q-8 0 -8 9v73 q-59 -14 -129 -14q-96 0 -187 29v-88q0 -8 -8 -9h-12q-8 0 -9 9v100q-74 25 -159 90l-17 -23v-307q0 -8 -8 -8h-12q-8 0 -8 8v275q-12 -14 -39 -15q-29 0 -29 17q0 12 19 30v-2l49 62v6l-6 6h-394q-8 0 -8 8zM266 805q0 88 23 156h6q-2 -18 -2 -54q0 -149 76 -262h-80 q-23 70 -23 160zM297 616h90q12 -18 27 -32v-160q-76 78 -117 192zM397 1194h2l-2 2v-2zM414 616h8l-8 9v-9zM414 637l8 8h-8v-8zM414 961h8l-8 8v-8zM414 981l8 8h-8v-8zM414 1186q2 2 3 4l3 4l2 2h-2l-6 6v-16zM434 616h8v9zM434 645l8 -8v8h-8zM434 961h8v8zM434 989 l8 -8v8h-8zM434 1194h8v8zM434 1223l6 -9v-2l11 11h-17zM436 1237l6 -2v8zM442 418v139q18 -18 31 -27l-2 2q27 -18 27 -30q0 -14 -17 -35h2l-39 -49h-2zM444 901q0 39 2 60h172v-312l-4 -4h-108q-61 109 -62 256zM451 989q16 121 77 205h90v-205h-167zM473 530l4 -4h2 q-2 0 -6 4zM477 362q59 -50 141 -81v108h-122zM479 465zM516 418h102v22q-10 4 -26 13h2q-2 0 -2 2h-4q-20 10 -25 10q-10 0 -31 -27h3q-2 -4 -9 -10v2zM520 616h72l-27 -36l2 4q-8 -4 -10 -4q-14 0 -35 34zM553 1223q27 29 65 55v-55h-65zM608 539q0 -15 10 -21v35 q-10 -10 -10 -14zM618 1329q5 0 11 4l-11 8v-12zM618 1356l3 2h-3v-2zM639 1366l8 -6v8h-4q-2 -2 -4 -2zM641 1337q2 0 6 2v7zM647 270q86 -33 187 -32q72 0 129 16v135h-316v-119zM647 418h33q-12 2 -33 10v-10zM647 502h2q0 -2 2 -2v2q90 -45 178 -45q79 -1 134 22v137 h-293l-23 -30v-84zM647 688l207 273h-207v-273zM647 989h230l86 115v90h-316v-205zM647 1223v73q86 45 178 45q74 0 138 -24v-94h-316zM690 645h273v316h-33zM952 989h11v12zM963 1356q2 -2 6 -2l-6 8v-6zM963 1374l10 8q4 0 -10 2v-10zM981 1352q4 0 10 -4v12zM985 1378 l6 -6v6h-6zM991 260q130 37 228 129h-228v-129zM991 492v124h142q-4 -8 -15 -22q-51 -72 -127 -102zM991 645v316h217q2 -23 2 -66q0 -154 -59 -250h-160zM991 989v51l96 125q8 12 23 29h8q10 -8 23 -29h-2q2 -4 8 -10v2q43 -68 57 -168h-213zM991 1141v53h39zM991 1223v82 q10 -4 29 -17q45 -29 45 -45l-10 -20h-64zM995 418q125 37 224 127v-127h-224zM1018 1288h2h-2zM1157 1356q-2 0 0 2v-2zM1186 1284v4q0 10 10 25v-2q2 2 8 14l15 18v-83q-20 16 -33 24zM1217 1223l2 -2v-7l8 9h-8h-2zM1219 616h8l-8 9v-9zM1219 637l8 8h-8v-8zM1219 961h8 l-8 8v-8zM1219 981l8 8h-8v-8zM1219 1194h8l-8 8v-8zM1219 1241l8 4q-6 2 -8 8v-12zM1239 616h8v9zM1239 645l8 -8v8h-8zM1239 961h8v8zM1239 989l8 -8v8h-8zM1239 1194h6l2 -2v2v8zM1247 420v158q20 25 29 38h90q-43 -121 -119 -196zM1266 1194h4q0 2 -2 4zM1294 645 q68 119 68 254q0 16 -4 62h20q21 -82 21 -156q0 -80 -23 -160h-82zM1335 1065q25 -49 33 -76h-14q-6 41 -19 76z" />
<glyph unicode="&#xdc;" d="M6 397v13q0 8 8 8h365q-72 82 -111 198h-114q-8 0 -9 9v12q0 8 9 8h104q-20 70 -20 160q0 82 18 156h-102q-8 0 -9 8v12q0 8 9 8h112q43 121 115 205h-367q-8 0 -8 8v12q0 8 8 9h394l4 4v143q-25 4 -43 4q-43 0 -43 29t34 29h52v188q0 8 8 8h12q8 0 8 -8v-190h2 q14 0 43 -2.5t41 -2.5q14 0 43 2.5t43 2.5h6v55q-16 23 -16 49q0 74 74 74q31 0 51.5 -22.5t20.5 -53.5t-21.5 -52.5t-52.5 -21.5q-10 0 -27 4v-30h51q33 0 33 -29q0 4 -2 -10q43 8 105 8q59 0 129 -17v76q-6 -2 -19 -2q-66 0 -65 76q0 74 71 74q29 0 49.5 -22.5t20.5 -53.5 q0 -37 -29 -59v-95q70 -20 144 -61q-4 20 -9 29h2q-12 29 -81 28h-3q-45 0 -45 29t41 29q23 0 66 -3.5t65 -3.5q31 0 48 2v193q0 8 8 8h12q8 0 8 -8v-188h41q39 0 39 -27v-2q-2 -2 -2 -4q-4 -25 -55 -25h-13q-8 -2 -10 -2v-139l10 -10h367q8 0 8 -9v-12q0 -8 -8 -8h-340 q76 -96 115 -205h86q8 0 8 -8v-12q0 -8 -8 -8h-78q20 -82 20 -156q0 -82 -22 -160h80q8 0 8 -8v-12q0 -8 -8 -9h-88q-35 -109 -113 -198h340q8 0 8 -8v-13q0 -8 -8 -8h-367q-6 -8 -10 -12v-367q0 -8 -8 -8h-12q-8 0 -8 8v340q-106 -86 -228 -119v-81q0 -8 -8 -9h-12 q-8 0 -8 9v73q-59 -14 -129 -14q-96 0 -187 29v-88q0 -8 -8 -9h-12q-8 0 -9 9v100q-100 37 -178 104v-344q0 -8 -8 -8h-12q-8 0 -8 8v375l-4 4h-394q-8 0 -8 8zM266 805q0 -90 23 -160h123v316h-123q-23 -68 -23 -156zM295 989h117v195q-80 -86 -117 -195zM297 616 q37 -104 115 -190v190h-115zM440 418h178q-39 16 -67 37q-80 57 -90 161h-21v-198zM440 645h19v316h-19v-316zM440 989h19v205h-19v-205zM440 1253q4 4 10.5 9.5t8.5 7.5v10q0 68 -19 80v-107zM446 389q80 -71 172 -108v108h-172zM594 745q0 -82 2 -100h22v316h-24v-216z M594 989h24v205h-24v-205zM594 1223h24v106q-8 -4 -24 -8v-98zM598 616q6 -44 20 -73v73h-20zM647 270q86 -33 187 -32q72 0 129 16v135h-48q-27 -4 -81 -4q-53 0 -80 4h-107v-119zM647 506q68 -66 211 -66q60 1 105 11v165h-316v-110zM647 645h316v316h-316v-316zM647 989 h316v205h-316v-205zM647 1223h316v133q-70 16 -129 16q-92 0 -187 -33v-116zM647 1370q2 2 4 2h-4v-2zM991 260q130 41 228 129h-228v-129zM991 459q68 20 105 59q33 32 43 98h-148v-157zM991 645h150q2 16 2 49v267h-152v-316zM991 989h152v205h-152v-205zM991 1223h152 q0 35 -2 57q-66 41 -150 68v-125zM1034 418h185v198h-23q-14 -94 -80 -149q-37 -31 -82 -49zM1200 645h19v316h-17v-250q0 -45 -2 -66zM1202 989h17v205h-17v-205zM1202 1223h15q-6 4 -15 12v-12zM1202 1272q5 -4 17 -12v98q-16 -16 -17 -74v-12zM1247 420q76 75 119 196 h-119v-196zM1247 645h129q23 80 23 160q0 78 -23 156h-129v-316zM1247 989h121q-39 113 -121 203v-203z" />
<glyph unicode="&#x152;" d="M8 397v13q0 8 8 8h365q-72 82 -111 198h-114q-8 0 -9 9v12q0 8 9 8h104q-20 70 -20 160q0 82 18 156h-102q-8 0 -9 8v12q0 8 9 8h112q43 121 115 205h-367q-8 0 -8 8v12q0 8 8 9h394l4 4v393q0 8 8 8h12q8 0 8 -8v-367q66 61 179 109v119q0 8 8 8h12q8 0 8 -8v-111 q96 31 187 31q59 0 129 -17v97q0 8 8 8h12q8 0 8 -8v-103q127 -37 228 -118v360q0 8 8 8h12q8 0 8 -8v-387l11 -10h366q8 0 8 -9v-12q0 -8 -8 -8h-340q76 -96 115 -205h86q8 0 8 -8v-12q0 -8 -8 -8h-78q20 -82 21 -156q0 -82 -23 -160h80q8 0 8 -8v-12q0 -8 -8 -9h-88 q-35 -109 -113 -198h340q8 0 8 -8v-13q0 -8 -8 -8h-366q-6 -8 -11 -12v-367q0 -8 -8 -8h-12q-8 0 -8 8v340q-106 -86 -228 -119v-81q0 -8 -8 -9h-12q-8 0 -8 9v73q-59 -14 -129 -14q-96 0 -187 29v-88q0 -8 -8 -9h-12q-8 0 -8 9v100q-100 37 -179 104v-344q0 -8 -8 -8h-12 q-8 0 -8 8v375l-4 4h-394q-8 0 -8 8zM268 805q0 -90 23 -160h123v316h-123q-23 -68 -23 -156zM297 989h117v195q-80 -86 -117 -195zM299 616q37 -104 115 -190v190h-115zM442 418h179v198h-179v-198zM442 645h179v316h-179v-316zM442 989h179v205h-179v-205zM449 389 q80 -71 172 -108v108h-172zM451 1223h170v106q-80 -31 -170 -106zM649 270q86 -33 187 -32q72 0 129 16v135h-316v-119zM649 418h316v198h-316v-198zM649 645h316v316h-316v-316zM649 989h316v205h-316v-205zM649 1223h316v133q-70 16 -129 16q-92 0 -187 -33v-116zM993 260 q130 41 228 129h-228v-129zM993 418h228v198h-228v-198zM993 645h228v316h-228v-316zM993 989h228v205h-228v-205zM993 1223h226q-98 86 -226 125v-125zM1249 420q76 75 119 196h-119v-196zM1249 645h129q23 80 23 160q0 78 -23 156h-129v-316zM1249 989h121 q-39 113 -121 203v-203z" />
<glyph unicode="&#x2000;" horiz-adv-x="819" />
<glyph unicode="&#x2001;" horiz-adv-x="1638" />
<glyph unicode="&#x2002;" horiz-adv-x="819" />
<glyph unicode="&#x2003;" horiz-adv-x="1638" />
<glyph unicode="&#x2004;" horiz-adv-x="546" />
<glyph unicode="&#x2005;" horiz-adv-x="409" />
<glyph unicode="&#x2006;" horiz-adv-x="273" />
<glyph unicode="&#x2007;" horiz-adv-x="273" />
<glyph unicode="&#x2008;" horiz-adv-x="204" />
<glyph unicode="&#x2009;" horiz-adv-x="327" />
<glyph unicode="&#x200a;" horiz-adv-x="91" />
<glyph unicode="&#x2022;" horiz-adv-x="2048" />
<glyph unicode="&#x202f;" horiz-adv-x="327" />
<glyph unicode="&#x205f;" horiz-adv-x="409" />
<glyph unicode="&#xe000;" horiz-adv-x="1024" d="M0 0z" />
</font>
</defs>
</svg>
