<?xml version="1.0" standalone="no"?>
<!DOCTYPE svg PUBLIC "-//W3C//DTD SVG 1.1//EN" "http://www.w3.org/Graphics/SVG/1.1/DTD/svg11.dtd" >
<svg xmlns="http://www.w3.org/2000/svg">
<metadata></metadata>
<defs>
<font id="shark_in_the_waterregular" horiz-adv-x="1000" >
<font-face units-per-em="2048" ascent="1638" descent="-410" />
<missing-glyph horiz-adv-x="500" />
<glyph horiz-adv-x="2048" />
<glyph horiz-adv-x="2048" />
<glyph unicode="&#xd;" />
<glyph unicode=" " />
<glyph unicode="!" horiz-adv-x="220" d="M52 968q-2 112 0 215t2 175q0 34 1 93t2 116t2 102t1 51l36 36q22 -10 37 -36t23 -56t11 -56t3 -34v-988q0 -22 -20 -31t-36 -9q-2 0 -8 1t-10 1q-22 86 -32 197t-12 223zM88 74q58 0 81 -7t22 -19t-19 -25t-38 -23q-46 22 -46 74z" />
<glyph unicode="&#x22;" horiz-adv-x="622" d="M60 938q0 46 4 119t10 143t12 122t10 56h74v-512q24 -12 30 -31t2 -37t-18 -31t-32 -13q-28 0 -46 25t-28 57t-14 62t-4 40zM383 882q-1 62 1 136t10 150t25 138t46 101t73 39q0 -12 -3 -67t-10 -128t-19 -155t-29 -152t-40 -115t-53 -45q0 36 -1 98z" />
<glyph unicode="#" horiz-adv-x="1574" d="M32 1008q0 4 1 10t3 6l440 146q8 30 17 65t24 67t40 53t65 21v-166q8 0 36 -2t36 0q16 2 58 7t89 11t89 11t58 7q14 26 24 63t23 72t36 60t63 25v-220l292 -74v-36h-330q-16 0 -23 -22t-11 -57t-3 -76t3 -77t4 -64t2 -34h432v-36q-22 0 -74 -5t-110 -11t-110 -12t-72 -8 q-38 -6 -74 -36t-36 -74v-586l-36 -36l-38 36v652q-22 0 -63 -5t-90 -12t-100 -17t-92 -22t-67 -24t-26 -22v-256l36 -38l14 35t25 54t33 56t38 39q-4 -12 -14 -44t-22 -66t-23 -66t-15 -44t-12 -32t-20 -38t-27 -31t-35 -13q-18 0 -28 12t-15 29t-6 37t-3 36q-2 18 -3 65 t-1 99t1 100t3 66l-328 -74q-22 -4 -31 18t-9 38q0 38 27 54t67 22t87 5t88 0t69 11t30 36l38 364q-4 0 -10 1t-10 1t-10 -1t-8 -1l-60 -20t-104 -34t-104 -35t-60 -19q-2 0 -9 -1t-11 -1q-24 0 -41 18t-17 40zM534 724q134 0 223 15t142 60t75 128t22 219q-108 0 -184 -1 t-127 -11t-81 -34t-46 -71t-20 -121t-4 -184z" />
<glyph unicode="$" d="M38 342q0 34 14 68t24 62q-2 -54 18 -105t56 -92t83 -65t99 -24v872q-32 32 -64 75t-59 92t-44 99t-17 98q0 66 19 107t48 74t61 66t56 83q6 12 3 44t-7 70t-5 73t9 57q10 20 27 18t45 -2l12 -192l96 6l16 194h72l-24 -168q12 -34 45 -45t75 -14t88 -7t85 -25t64 -65 t25 -126q0 -24 -7 -74t-22 -99t-40 -86t-63 -37q-2 0 -9 1t-9 1q46 62 60 142t14 154q0 82 -32 117t-81 43t-107 1t-110 -7v-778q44 -58 91 -117t85 -122t62 -131t24 -142q0 -86 -30 -143t-70 -101t-81 -82t-65 -86v-196l-64 -16l-4 224h-82l24 -260l-74 20q-4 14 -7 48 t-8 71t-10 70t-11 47q-16 46 -64 77t-99 62t-91 70t-40 101zM216 1396q0 -60 32 -109t84 -83l28 480q-34 -32 -61 -78t-45 -89t-28 -78t-10 -43zM404 1142q0 -12 10 -32t22 -35t23 -20t11 13l30 674q-6 -12 -20 -8t-27 6t-21 -11t-4 -61q0 -2 -2 -40t-4 -96t-6 -125t-6 -125 t-4 -98t-2 -42zM406 142l76 6l-12 768l-64 32v-806zM552 142q52 30 88 58t58 61t31 76t9 105q0 110 -46 202t-140 156v-658z" />
<glyph unicode="%" horiz-adv-x="1182" d="M48 1426q0 48 19 105t53 107t81 84t103 34t87 -34t61 -76t70 -76t110 -34q62 0 122 12t120 27t121 28t123 13q0 -24 -9 -42t-22 -35t-27 -35t-24 -40q-84 -178 -173 -364t-169 -373t-144 -370t-100 -357q-76 0 -76 52q0 4 1 12t3 10q60 178 132 350t146 343t144 344 t126 353v6q0 4 1 6t1 6q0 2 -1 9t-1 9l-476 -74q-12 -16 -38 -46t-59 -61t-70 -54t-71 -23t-64 17t-52 44t-35 59t-13 64zM156 1462q0 -48 10 -80t66 -32q40 0 76 26t36 70q0 30 -17 52t-35 43t-28 46t4 59q-38 -6 -60 -24t-34 -43t-15 -56t-3 -61zM706 254q0 40 11 97 t35 110t62 90t92 37t88 -12t53 -34t26 -54t7 -74q0 -46 -11 -106t-35 -113t-64 -90t-98 -37q-36 0 -66 16t-52 43t-35 60t-13 67zM812 292q0 -6 1 -22t1 -33t1 -33t1 -22q2 -6 12 -12t22 -12t23 -10t17 -2q42 10 67 49t37 87t15 96t3 76q-66 0 -106 -3t-61 -18t-27 -48 t-6 -93z" />
<glyph unicode="&#x26;" horiz-adv-x="964" d="M36 366q6 80 16 138t24 103t31 84t40 81t50 93t59 123v16v20q-52 150 -79 314t-6 318t101 286t240 216q86 0 155 -42t117 -107t73 -145t25 -154q0 -126 -55 -222t-132 -182t-158 -169t-135 -185q12 -26 43 -89t66 -133t67 -132t44 -86q4 -6 14 -22t21 -33t22 -33t15 -22 q16 26 26 63t23 72t35 60t62 25q14 0 23 -8t12 -20t4 -25t1 -21q0 -6 -1 -20t-1 -16q-4 -8 -21 -40t-37 -69t-36 -69t-16 -42q0 -6 10 -27t24 -46t25 -46t13 -27q2 -4 4 -16t4 -26t4 -27t2 -17q-28 0 -51 13t-43 32t-37 40t-29 37q-84 -90 -181 -120t-213 -30q-56 0 -105 31 t-86 80t-57 108t-16 115zM178 452q0 -48 5 -102t23 -99t55 -75t103 -30q12 0 60 10t98 30t84 46t16 60l-294 550q-48 -28 -78 -74t-46 -100t-21 -110t-5 -106zM256 1464q2 -18 7 -51t11 -68t11 -64t7 -37q0 -2 2 -20t8 -39t16 -39t28 -18q4 0 10 2t10 4q66 60 138 126 t130 139t96 157t38 184q0 42 -16 91t-46 89t-70 67t-88 27q-88 0 -145 -60t-90 -144t-45 -175t-12 -153v-18z" />
<glyph unicode="'" horiz-adv-x="220" d="M36 1026q0 14 4 71t15 125t33 128t58 78v-402l-74 -74q-4 2 -10 12t-12 22t-10 23t-4 17z" />
<glyph unicode="(" horiz-adv-x="476" d="M46 1024q0 112 9 250t39 275t88 260t158 203q46 -22 62 -46t16 -64q0 -4 -1 -18t-3 -18q-4 4 -13 10t-21 12t-23 10t-17 4q-40 0 -72 -50t-57 -128t-43 -173t-29 -186t-17 -166t-6 -113q0 -104 7 -218t28 -228t58 -221t95 -199l74 36v-21t1 -33t1 -34v-22q0 -4 2 -27 t1 -48t-10 -47t-33 -24q-48 24 -88 100t-73 179t-58 220t-42 222t-25 187t-8 116z" />
<glyph unicode=")" horiz-adv-x="512" d="M22 1882q0 34 25 47t53 13q58 0 103 -54t76 -125t50 -137t25 -90q34 -138 51 -244t23 -207t5 -210t-1 -253v-55t-1 -84t-1 -99t-1 -99t-2 -84t-1 -55q-2 -6 -6 -22t-10 -33t-12 -33t-8 -22q-4 -8 -18 -22t-18 -14q-60 0 -69 24t-9 62q0 82 12 160t27 157t28 159t13 166 q0 116 -2 254t-18 278t-54 269t-112 227q-4 6 -27 25t-50 40t-49 39t-22 22z" />
<glyph unicode="*" horiz-adv-x="1012" d="M34 1385v11q0 16 8 36t30 20h360q0 62 -16 119t-16 119q0 22 7 32t31 22q6 -4 20 -17t18 -19q4 -12 15 -43t23 -66t21 -67t13 -44q58 30 127 57t137 27q0 -42 -25 -66t-61 -38t-75 -24t-67 -28q38 -8 84 -15t94 -13t97 -10t91 -4v-50h-316q-6 -18 -10 -36q-4 -16 -5 -31 t3 -25q2 -6 12 -33t23 -58t24 -58t13 -33q0 -2 1 -9t1 -11q0 -20 -8 -31t-30 -23q-6 4 -19 18t-17 18q-10 18 -31 65t-45 100t-44 100t-26 65q-8 -4 -24 -13t-33 -21t-32 -23t-21 -17q-4 -4 5 -18t9 -18h96l-258 -146q-14 -8 -22 2t-12 26t-5 31t-1 17q0 32 11 56t31 44 t48 39t60 41q-20 -4 -58 -8t-82 -2t-85 12t-67 34q-2 0 -2 7zM574 1342q0 -12 10 -12t10 12t-10 12t-10 -12z" />
<glyph unicode="+" horiz-adv-x="1176" d="M124 552q20 2 72 12t110 22t110 23t74 17q10 2 26 7t31 11t25 11t10 7v422q38 0 62 -27t28 -65q2 -18 0 -66t-5 -100t-6 -99t-3 -65h390q0 -50 -46 -72q-14 0 -51 1t-77 1t-77 -1t-51 -1q-8 -2 -21 -7t-25 -11t-20 -12t-8 -8v-366q0 -4 -8 -10t-20 -12t-24 -10t-20 -4 q-10 0 -23 14t-13 22v362q-86 0 -167 -17t-169 -17q-10 0 -26 -1t-32 1t-29 11t-17 27z" />
<glyph unicode="," horiz-adv-x="244" d="M34 -238q0 4 6 15t12 23t12 22t6 14q4 24 10 87t12 132t11 132t5 87h36v-474l-74 -74q-8 0 -22 14t-14 22z" />
<glyph unicode="-" horiz-adv-x="732" d="M58 544v38q0 2 17 7t40 11t48 12t41 8q22 2 79 8t122 12t122 11t81 5q38 -20 38 -56v-8t-2 -10q-28 -2 -101 -7t-155 -11t-155 -11t-101 -7q-10 -2 -37 -2h-37z" />
<glyph unicode="." horiz-adv-x="324" d="M126 54q0 24 13 38t33 20t41 8t37 2q0 -16 1 -42t-2 -51t-14 -43t-35 -18q-12 0 -25 9t-24 23t-18 28t-7 26z" />
<glyph unicode="/" horiz-adv-x="1170" d="M12 36l1024 1756q20 34 47 42t63 8v-50l-1088 -1800z" />
<glyph unicode="0" horiz-adv-x="804" d="M68 467v103q0 48 10 133t31 184t54 202t78 187t103 137t132 53q22 0 42 -4t30 -36q-10 -28 -21 -33t-24 -2t-30 7t-35 -8q-100 -60 -164 -163t-102 -223t-52 -246t-14 -230q0 -48 8 -126t34 -151t73 -126t125 -53q70 0 121 38t86 99t57 137t33 150t15 140t4 108v124 t-7 110t-23 109t-48 121l-72 -38q-4 52 17 65t53 13q44 0 73 -27t47 -70t25 -97t9 -107t1 -101t-1 -78q0 -48 -9 -124t-28 -161t-50 -172t-74 -156t-100 -113t-129 -44t-121 30t-80 79t-47 111t-23 126t-7 123zM532 1335q0 7 4 14t12 5q16 -4 16 -18t-16 -18q-8 -2 -12 4 t-4 13z" />
<glyph unicode="1" horiz-adv-x="940" d="M36 1500l512 256h84q-2 -208 -28 -412t-53 -409t-42 -410t3 -415q18 2 64 7t99 11t100 11t65 7q4 0 19 1t19 1v-74l-732 -74q-16 -2 -26 14t-15 37t-7 39t-2 20h306q20 196 37 376t33 359t35 367t41 398l-36 36q-152 -68 -236 -106t-125 -56t-50 -21t-11 -3q-20 0 -32 9 t-22 31z" />
<glyph unicode="2" horiz-adv-x="1012" d="M58 1298q0 58 29 126t76 126t107 97t120 39q102 -38 183 -108t126 -205t45 -351t-62 -546q0 -10 17 -18t40 -14t48 -8t41 4q36 10 52 30t28 40t26 35t46 15q0 -28 -11 -62t-31 -64t-47 -50t-59 -20q-50 0 -92 11t-94 27q-12 -38 -44 -106t-77 -134t-99 -114t-110 -48 q-38 0 -66 19t-47 48t-28 63t-9 64q0 92 38 152t100 96t142 51t162 19q22 84 37 186t18 209t-10 214t-47 202t-91 169t-143 118q-64 0 -113 -45t-83 -108t-54 -132t-26 -117q-20 28 -29 45t-9 45zM238 220q0 -22 1 -45t8 -43t23 -36t46 -22q48 -12 91 26t77 95t57 116t31 91 q-6 0 -19 1t-27 1h-27h-19q-46 0 -89 -9t-77 -30t-55 -57t-21 -88z" />
<glyph unicode="3" horiz-adv-x="988" d="M34 1320q0 70 55 142t134 130t164 95t145 37q78 0 104 -47t26 -117q0 -88 -28 -185t-70 -192t-91 -183t-89 -160q168 50 269 55t157 -12t77 -43t27 -36q10 -66 4 -148t-27 -168t-58 -170t-89 -151t-119 -112t-149 -55q-70 0 -92 12t-22 56q0 30 11 63t31 62t48 48t60 19 q4 0 18 -1t18 -3q-50 -66 -66 -103t-16 -55t11 -22t15 -4q62 0 113 31t91 81t68 114t46 129t27 127t9 110q20 50 3 80t-49 46t-71 20t-63 4q-70 0 -128 -9t-110 -27t-103 -48t-107 -72l-36 38q66 78 138 173t132 200t98 215t38 218q-16 94 -64 124t-108 15t-124 -65 t-113 -115t-75 -138t-10 -131q-18 0 -29 15t-18 35t-10 42t-3 36z" />
<glyph unicode="4" horiz-adv-x="988" d="M22 732l344 914q10 30 30 35t44 5q34 0 53 -13t19 -63v-768h402l36 -38l-36 -36h-366v-732h-72q-16 14 -22 65t-7 122t2 151t3 153t-4 130t-16 79zM182 842l226 6q0 64 6 142t10 161t1 163t-23 150q-26 -48 -51 -109t-47 -127t-41 -130t-35 -118t-28 -91t-18 -47z" />
<glyph unicode="5" horiz-adv-x="866" d="M48 696q20 164 29 306t9 282q0 48 -1 85t-5 72t-11 75t-21 94q98 8 185 21t168 25t161 20t166 8q22 0 38 -17t16 -39q0 -36 -38 -54q-24 2 -87 2h-133h-133t-87 -2q-22 -2 -48 -8t-48 -19t-36 -33t-14 -50v-550q20 6 72 22t110 34t110 33t74 21h8q4 0 6 1t4 1 q58 0 108 -20t88 -54t59 -81t21 -103q6 -64 -10 -148t-49 -173t-82 -174t-108 -149t-127 -100t-140 -26q-24 0 -50 4t-48 14t-37 25t-15 39t25 58t53 44q-10 -70 9 -91t61 -21q64 0 122 36t108 94t90 131t68 146t43 139t15 110q0 108 -57 168t-165 60q-70 0 -130 -28 t-117 -69t-113 -85t-116 -76z" />
<glyph unicode="6" horiz-adv-x="914" d="M26 624q-2 82 2 185t22 212t51 216t91 198t144 158t206 95q30 0 64 -11t63 -31t48 -46t19 -58q0 -2 -15 -21t-15 -21q-34 66 -88 87t-114 21q-118 -72 -196 -170t-123 -210t-62 -235t-12 -245t27 -239t56 -217q8 86 53 159t109 127t143 85t157 31q54 0 92 -27t62 -69 t35 -94t11 -104q0 -60 -32 -130t-83 -130t-118 -100t-135 -40q-128 10 -214 72t-140 152t-79 196t-29 204zM300 304q0 -42 10 -83t33 -74t58 -53t87 -20q60 0 113 30t93 78t64 106t24 114q0 36 -10 75t-30 72t-51 54t-75 21q-68 0 -126 -26t-100 -70t-66 -102t-24 -122z" />
<glyph unicode="7" horiz-adv-x="926" d="M18 1516v36l25 5t60 11t73 12t62 10q254 36 518 36q22 0 43 -2t38 -9t27 -20t10 -35q8 64 5 55t-14 -71t-30 -169t-43 -238t-51 -278t-55 -291t-56 -275t-54 -229q-12 -48 -24 -59t-22 -7t-20 13t-16 -3l266 1488z" />
<glyph unicode="8" horiz-adv-x="842" d="M34 1224q0 82 36 153t95 124t134 83t153 30q134 0 190 -67t56 -199q0 -48 -20 -111t-49 -129t-61 -127t-56 -103q48 -60 95 -112t83 -106t59 -113t23 -133q-14 -96 -37 -185t-71 -148t-128 -76t-208 31q-76 90 -90 175t6 176t58 193t66 226q-4 20 -30 44t-63 51t-80 59 t-79 72t-60 87t-22 105zM140 1262q0 -68 25 -120t66 -93t95 -73t112 -62q38 48 66 95t47 95t29 100t10 114q0 8 -1 29t-2 44t-2 44t-1 29q-20 58 -58 68t-86 10q-64 0 -119 -20t-95 -56t-63 -88t-23 -116zM304 192q0 -30 14 -53t36 -39t49 -24t53 -8q72 0 119 37t74 92 t37 121t10 124q0 34 -25 93t-63 115t-83 92t-87 26q-36 -56 -61 -129t-42 -150t-24 -154t-7 -143z" />
<glyph unicode="9" horiz-adv-x="768" d="M32 1030q0 92 24 195t73 190t126 145t185 58q34 0 67 -2t61 -12t51 -35t39 -69q20 -102 29 -215t11 -227t1 -225t-1 -211v-63v-97t-1 -114t-1 -114t-1 -97t-1 -63q-24 -46 -72 -46v924q-32 -48 -66 -106t-75 -109t-93 -85t-120 -34q-78 0 -125 44t-71 107t-32 134t-8 127 zM106 1024q0 -42 7 -100t26 -110t56 -88t97 -36t105 33t78 85t55 118t35 131t18 124t5 99v36t-1 56t-2 56t-1 36q-10 32 -28 48t-40 23t-48 7h-50q-90 0 -150 -54t-96 -134t-51 -169t-15 -161z" />
<glyph unicode=":" horiz-adv-x="268" d="M60 440q14 0 32 -1t36 -5t33 -14t21 -28l-72 -74q-18 6 -29 21t-15 33t-5 36t-1 32zM96 904q54 18 80 13t29 -23t-13 -46t-46 -54q-16 6 -26 19t-15 29t-7 33t-2 29z" />
<glyph unicode=";" horiz-adv-x="292" d="M54 686q54 18 80 13t29 -23t-13 -46t-46 -54q-16 6 -26 19t-15 29t-7 33t-2 29zM96 328q54 0 88 -37t53 -95t26 -129t8 -140t-1 -128t-2 -91h-50q-6 40 -26 125t-41 180t-38 182t-17 133z" />
<glyph unicode="&#x3c;" horiz-adv-x="914" d="M104 446v8t2 8l548 586h68l-434 -512q0 -24 5 -44t33 -30l584 -146v-82q-82 0 -184 21t-206 48t-202 52t-176 33q-38 18 -38 58z" />
<glyph unicode="=" horiz-adv-x="842" d="M48 684l36 36h672q0 -16 -2 -35t-10 -36t-21 -29t-35 -12q-10 0 -26 2t-70 7t-163 12t-307 19zM82 372q0 16 9 36t31 20h512l72 -36l-36 -74l-586 36q0 4 -1 10t-1 8z" />
<glyph unicode="&#x3e;" horiz-adv-x="818" d="M52 1020q8 34 38 37t54 3q24 2 63 -12t85 -36t97 -49t98 -52t87 -45t64 -28q4 -2 20 -7t35 -11t35 -11t20 -7q4 -4 7 -13t-8 -33t-40 -67t-88 -115t-152 -178t-233 -254q-6 -2 -12 -2q-4 -2 -10 -2h-8q-24 0 -46 6t-32 36q162 116 274 249t200 299z" />
<glyph unicode="?" horiz-adv-x="780" d="M38 1354q0 100 42 193t112 164t164 114t200 43q30 0 56 -14t47 -35t36 -47t25 -52q18 -70 13 -170t-32 -209t-72 -218t-104 -200t-131 -154t-150 -79v42q76 64 150 157t135 198t101 213t48 204t-23 170t-111 110q-78 0 -159 -39t-147 -101t-109 -139t-43 -151h-48z M168 54q0 36 29 50t59 14q0 -12 -1 -30t-6 -36t-15 -32t-28 -20q-38 18 -38 54z" />
<glyph unicode="@" horiz-adv-x="1524" d="M48 696q0 118 46 236t126 228t185 205t223 166t241 111t239 40q84 0 152 -33t116 -89t73 -128t25 -152q0 -42 -7 -108t-23 -140t-42 -148t-64 -134t-90 -97t-118 -37q-50 0 -76 21t-44 51t-35 62t-49 54q-24 -72 -67 -119t-94 -69t-106 -15t-100 43t-76 103t-35 167 q0 82 23 167t69 154t115 113t161 44q24 0 51 -3t52 -11t47 -23t34 -37q-2 -22 -3 -74t-1 -110t1 -110t3 -72q2 -26 14 -70t31 -86t44 -73t53 -31q76 0 127 64t81 152t43 177t13 141q0 84 -18 154t-58 122t-104 81t-156 29q-108 0 -221 -37t-219 -102t-199 -153t-163 -189 t-110 -213t-40 -222q0 -194 70 -320t187 -197t270 -94t317 -11q-58 -36 -121 -56t-133 -20q-144 0 -266 56t-209 152t-136 222t-49 268zM554 932q0 -28 4 -68t16 -78t35 -66t63 -30q54 0 96 32t69 80t41 102t14 98t-1 80t-6 72t-13 75t-20 89q-6 0 -27 1t-27 1 q-76 0 -124 -38t-75 -95t-36 -125t-9 -130z" />
<glyph unicode="A" horiz-adv-x="1112" d="M16 14q4 18 17 63t30 102t35 120t35 121t30 102t19 64h-118q0 28 16 48t40 32t51 19t47 11q8 20 28 64t45 98t53 114t54 113t47 96t31 63q18 32 47 82t58 97t51 80t26 33h74l132 -766q10 -1 20 -1q42 0 77 20q43 25 99 53l-12 -130l-194 -50q22 -144 43 -302t31 -304 q0 -24 -13 -32q-4 -2 -11 -2q-19 0 -64 14q-2 56 -7 135t-13 165t-21 171t-31 151q-39 7 -83 7q-18 0 -37 -1q-66 -4 -134 -17t-135 -30t-123 -31q-14 -40 -31 -125t-37 -178t-45 -174t-55 -109q0 2 -11 4t-25 4t-25 4zM310 694q114 12 229 34t229 58q0 66 -4 148t-16 169 t-33 170t-57 153q-50 -82 -98 -178t-93 -193t-85 -190t-72 -171z" />
<glyph unicode="B" horiz-adv-x="1296" d="M8 1124q0 64 35 125t91 116t127 102t143 82t139 54t117 19q60 0 109 -11t84 -36t55 -68t20 -107q0 -72 -34 -144t-82 -140t-98 -126t-82 -102q60 4 130 8q35 2 69.5 2t69.5 -2q69 -4 134 -19t114 -48t79 -87t30 -134q0 -102 -43 -202t-115 -192t-167 -169t-198 -135 t-210 -90t-201 -32q-30 0 -72 2t-80 12t-65 33t-27 65q0 66 33 114t79 106q-28 144 -44 280t-24 271q-7 120 -7 242v31q1 138 9 286l-42 -168q-28 0 -52 17t-24 45zM156 -64q-6 -13 -6 -23q0 -15 13 -25q21 -16 54 -22t68 -6h53q88 0 185 28t191 77t179 117t150 149t103 173 t38 188q-18 94 -81 146t-151 73q-64 15 -136 15q-27 0 -56 -2q-104 -8 -204 -34t-186 -68t-140 -90q-7 -52 -7 -106q0 -58 8 -117q15 -115 71 -217q18 10 60 35t94 50t108 45t104 20q-12 -18 -48 -42t-84 -53t-104 -65t-109 -75t-98 -82t-69 -89zM192 1326l38 -548 q10 -1 20 -1q65 0 143 45q91 52 177 136t153 184t90 188q9 36 9 67q0 46 -20 83q-34 62 -150 68q-20 0 -63 -9t-94 -24t-106 -36t-99 -46t-72 -52t-26 -55z" />
<glyph unicode="C" horiz-adv-x="902" d="M-6 507q-3 40 -3 81q0 90 15 184q22 136 72 268t122 242t166 189t202 109q38 0 87 -31t92 -72t72 -82t29 -59q0 -8 -7 -25t-15 -37t-15 -37t-7 -25q-2 14 -31 55t-71 86t-88 80t-80 35q-154 -82 -255 -213t-152 -280t-56 -301q-1 -18 0 -36q0 -131 32 -240 q37 -124 111 -207t182 -94q14 -1 28 -1q98 0 218 66q138 76 302 270l8 -10t17 -22t16 -22l7 -10q0 -38 -35 -80t-90 -83t-124 -77t-136 -63t-125 -43t-94 -16q-128 20 -211 91t-128 176t-55 234z" />
<glyph unicode="D" horiz-adv-x="976" d="M48 1098v12q0 77 50 142q54 70 138 118t186 70q66 14 129 14q34 0 68 -4q95 -12 169 -61t102 -145q50 -98 68 -224q12 -81 11 -164q0 -46 -3 -94q-10 -132 -49 -260t-104 -233t-156 -178t-205 -93q-18 0 -48 3t-59 11t-51 23t-26 39l-140 1046q-12 12 -27 3t-28 -21 t-20 -18q-5 -5 -5 6v8zM194 1208q34 -108 53 -238t33 -272t29 -290t43 -288q53 -18 101 -18q41 0 79 13q82 29 146 101t108 176t66 223q20 109 20 221v20q-2 122 -31 228t-87 188t-146 120q-126 0 -224 -36t-190 -112v-36z" />
<glyph unicode="E" horiz-adv-x="1008" d="M56 752q0 22 17 30t38 14t39 15t20 31l38 510l-84 -72q18 78 61 125t101 74t127 39t140 19t137 14t118 25q10 7 17 7q10 0 14 -13q7 -22 3 -50t-17 -50t-33 -6q-4 2 -18 3t-32 3t-35 3t-25 1q-58 0 -108 -5t-98 -18t-95 -37t-101 -60q-10 -138 -25 -274q-11 -97 -11 -196 q0 -40 2 -80h34l840 256h74q-108 -68 -229 -108t-246 -74t-247 -74t-230 -108v-41t-1 -61t-1 -60v-40q0 -34 -1 -98v-11q0 -59 10 -117q11 -64 42 -112t95 -48q62 0 141 27t158 70t147 95t106 102v-110q0 -2 -23 -18t-61 -39t-86 -50t-97 -55t-94 -53t-77 -41q-8 -4 -29 -10 t-45 -12t-45 -10t-29 -4q-48 0 -81 35t-54 82t-32 96t-15 79q-4 20 -9 73t-11 111t-11 110t-5 72q-22 16 -50 38t-28 56z" />
<glyph unicode="F" horiz-adv-x="856" d="M44 528q0 30 12 40t29 12t37 -2t36 -4v524q0 14 -12 23t-28 14t-32 6t-22 1q0 26 14 54t34 53t43 44t39 25q6 2 18 -1t24 -9t21 -14t11 -14q114 52 248 91t264 39v-76q-144 0 -284 -44t-266 -120q-3 -40 -3 -97v-30q1 -77 7 -158t15 -153t19 -110h36l548 220h184 l-768 -330l-1 -11t-2 -24t-2 -28t-1 -23q0 -44 8 -87t17 -86t17 -86t8 -87q0 -12 -3 -30t-13 -32t-29 -21q-8 -3 -18 -3q-14 0 -31 6q0 14 -2 45t-4 72t-4 85t-5 84t-5 71t-4 45q-6 38 -30 54t-51 25t-48 17t-21 30z" />
<glyph unicode="G" horiz-adv-x="864" d="M43 679q5 103 25 216t54 224t81 196t109 129q43 30 92 30q22 0 46 -6q40 0 64 -17t46 -61q8 -20 24 -72t33 -110t32 -111t21 -73q2 -8 5 -36t3 -36h-44q-6 18 -21 65t-33 100t-34 99t-22 64q-58 68 -109 68q-7 0 -14 -1q-57 -11 -104 -76t-82 -168t-58 -209t-33 -197 q-7 -65 -7 -105q0 -16 1 -28q0 -60 9 -140t37 -152t79 -121t135 -49q48 0 88 44t70 105t47 129t17 116q-10 -6 -52 -10q-36 -4 -112 -7t-214 -3q0 26 57 54t142 53t184 47t186 39t146 26t63 9v-46l-330 -146q8 -37 8 -81q0 -35 -5 -74q-11 -89 -47 -169t-98 -135t-150 -55 q-84 0 -147 56t-104 135t-61 167t-20 154q-5 41 -5 95q0 34 2 74z" />
<glyph unicode="H" horiz-adv-x="920" d="M80 824q0 18 16 29t35 16t38 7t25 2v622l94 20l-24 -616q8 0 45 1t89 4t110 9t107 16t81 24t32 34l-22 472q0 22 20 30t36 8t35 -8t19 -30q14 -162 21 -277t8 -198v-53q0 -50 -1 -89q-2 -59 -3 -106t-2 -91v-15q0 -38 4 -82q5 -53 16 -124t31 -173l78 64q-14 -4 -28 -55 t-30 -111t-33 -108q-16 -46 -35 -46h-2q-24 94 -41 201t-28 217t-18 218t-9 206q-30 28 -89 28h-15q-70 -4 -146 -24t-140 -44t-86 -34l36 -694q0 -6 -5 -17t-10 -23t-11 -22t-10 -12q-38 10 -53 45t-19 79q-3 29 -3 60q0 15 1 30q1 23 1 42.5t-1 35.5q0 18 -3 55t-7 84 t-8 99t-7 99t-6 84t-5 55q-22 4 -50 16t-28 40z" />
<glyph unicode="I" horiz-adv-x="1158" d="M48 1170q18 40 90 74t162 58t178 38t138 14q20 0 60 -2t79 -6t68 -11t29 -17v-38h-328q-18 0 -26 -10t-11 -24t-2 -28t1 -22q0 -10 1 -34t1 -28q4 -68 11 -162t15 -195t16 -201t14 -179t11 -128l5 -49l36 -38h512q-24 -4 -86 -13t-132 -21t-133 -22t-87 -16 q-8 -2 -36 -16t-38 -20q-4 -2 -14 -14t-22 -25t-22 -24t-14 -11t-14 5t-23 12t-24 13t-13 6q-12 2 -43 2h-66h-67t-44 -2l38 92h214q2 42 4 78q2 32 2 66v58q-6 122 -13 231t-18 214t-29 211t-50 222h-38q-34 0 -64 -12t-58 -26t-57 -26t-59 -12q-20 0 -31 8t-23 30z" />
<glyph unicode="J" horiz-adv-x="816" d="M46 1424v74l660 74q8 0 18 -15t13 -35q1 -7 1 -13q0 -13 -4 -24q-6 -17 -28 -23q-12 -2 -48 -6t-77 -7t-76 -4t-47 1q40 -58 78 -183t64 -279t37 -320q5 -73 5 -141q0 -87 -8 -166q-14 -141 -58 -240t-126 -119q-16 -6 -30 -6q-27 0 -50 21q-36 33 -61 82t-39 98t-14 63 q0 6 7 22t16 33t16 32t7 21q2 -16 10 -58t23 -87t38 -79t57 -34q28 0 52 21t40 51t26 61t10 51q6 58 7 156v28q0 86 -5 185q-6 115 -20 236t-40 228t-66 187t-94 114h-294z" />
<glyph unicode="K" horiz-adv-x="1216" d="M60 622q0 8 5 20t14 23t19 20t16 11v768q4 -12 20 -11t34 4t33 3t17 -12q-16 -70 -29 -157t-19 -178q-4 -68 -4 -136v-45q2 -90 18 -164q72 88 180 198t233 207t256 163t251 66q0 -10 -27 -30t-69 -45t-93 -53t-98 -54t-84 -49t-51 -37q-16 -16 -51 -50t-79 -77t-92 -91 l-91 -91t-77 -78t-50 -51q147 6 295 6q118 0 237 -4q268 -8 530 -40l-96 -74l-782 38q-62 0 -99 -10t-56 -31t-25 -56t-6 -85q0 -42 10 -95t23 -109t23 -109t10 -95q0 -10 -9 -18t-55 -14l-108 548q-8 2 -20 11t-24 20t-21 23t-9 20z" />
<glyph unicode="L" horiz-adv-x="792" d="M76 1420q42 -6 67 -22t25 -54l2 -1224q28 -10 67 -10q24 0 52 4q73 10 152 31t153 44t124 31v-74q-2 0 -32 -9t-77 -23t-105 -31t-117 -33t-112 -30t-89 -22q-28 0 -58 20t-32 56z" />
<glyph unicode="M" horiz-adv-x="1318" d="M60 1318q-1 3 -1 7q0 13 17 25q22 16 55 28t65 19t44 7q0 -40 9 -115t27 -166t47 -186t70 -173t94 -128t121 -50q98 52 171 144t128 203t97 230t80 227h72q0 -152 13 -311t29 -319t29 -318t13 -306v-32t-7 -38t-24 -27q-8 -4 -19 -4q-13 0 -30 5q0 2 -5 65t-13 162 t-17 222t-18 244t-15 227t-8 174q-2 -6 -24 -56t-57 -120t-80 -151t-97 -148t-108 -110q-51 -39 -101 -39h-9q-46 0 -89 25t-81 60t-69 73t-53 64q-4 -35 -4 -69q0 -43 6 -85q10 -76 27 -151t32 -150t15 -151q0 -10 1 -28t-5 -35t-22 -27q-8 -5 -20.5 -5t-29.5 5l-110 916z " />
<glyph unicode="N" horiz-adv-x="1134" d="M60 1024v62q0 46 2 81t6 71t11 79t17 109q4 2 19 3t19 1q22 0 42 -5t30 -35q76 -154 151 -303t160 -288t187 -267t234 -240l36 38q2 6 3 40t3 76t3 83t1 65q0 118 -13 234t-29 231t-29 230t-13 231q0 62 23 105t95 43q0 -40 -9 -67t-35 -65q28 -146 44 -254t23 -205 t9 -197t2 -230v-83t-1 -104t-2 -90t-1 -43q0 -22 -5 -53t-11 -60t-12 -50t-8 -21h-74l-220 220q-2 2 -30 46t-73 114t-101 157t-112 176t-108 171t-88 140q-2 2 -7 14t-11 24t-11 23t-7 13q-4 4 -14 -5t-14 -9q0 -262 16 -518t16 -516q0 -16 -1 -42t-1 -52t-1 -45t-1 -21 l-36 -36l-38 36l-2 53t-5 138t-7 193t-8 218t-8 211t-6 175z" />
<glyph unicode="O" horiz-adv-x="976" d="M46 586q0 64 11 157t35 195t62 203t92 182t124 131t160 50q84 -26 149 -100t112 -178t73 -228t30 -248q11 -54 11 -117q0 -18 -1 -37q-4 -84 -25 -168t-60 -163t-95 -139t-129 -95q-69 -33 -152 -33h-9q-106 0 -180 61t-120 151t-67 192t-21 184zM118 614q0 -82 11 -171 t45 -164t96 -123t162 -48q156 20 245 104t128 203q35 105 35 227q0 16 -1 31q-5 139 -38 268t-87 235t-114 158q0 52 -24 75t-72 23q-72 0 -129 -48t-100 -123t-73 -169t-49 -185t-27 -169t-8 -124z" />
<glyph unicode="P" horiz-adv-x="952" d="M46 1300q0 92 55 176t138 146t180 99t179 37q80 0 137 -36t92 -93t51 -129t16 -142q0 -152 -41 -267t-103 -200t-135 -148t-135 -112t-103 -90t-41 -85q0 -88 7 -191t35 -191q-22 -40 -56 -40q-2 0 -9 1t-9 1l-72 768q0 144 -19 285t-19 285q0 22 9 26q2 1 6 1 q15 0 59 -11l3 -36t6 -93t7 -128t8 -144t7 -141t5 -116q4 -62 28 -80q14 -10 33 -10q14 0 30 5q39 13 86 54t95 99t94 127t80 140t54 139q17 57 17 104q0 9 -1 18q0 60 -11 123t-38 115t-73 86t-118 34q-102 0 -187 -45t-150 -119t-106 -166t-53 -186q-12 28 -25 62t-13 68z " />
<glyph unicode="Q" horiz-adv-x="1158" d="M64 744v36q0 74 6 161q8 109 28 218t55 211t89 177t129 114q55 29 124 29q25 0 51 -4q134 -32 221 -110t135 -187t64 -238q11 -90 11 -181q0 -40 -2 -80q-7 -132 -32 -259t-55 -229q0 -54 35 -100t77 -86t77 -74t35 -66q0 -8 -1 -21t-4 -25t-12 -21t-23 -9q-4 0 -15 4 t-23 10t-22 12t-12 10q-12 14 -39 50t-56 77t-55 77t-34 52q-30 -46 -61 -93t-68 -84t-83 -60t-106 -23q-86 4 -151 37t-113 87t-80 125t-51 149t-28 159t-11 155zM118 748q0 -50 8 -117t26 -139t46 -142t69 -125t95 -89t124 -34q36 0 81 23t84 59t66 79t27 83q0 28 -11 47 t-27 47q-12 18 -43 65t-65 100t-66 99t-44 64v62q46 0 89 -44t84 -102t79 -118t76 -90q34 52 50 106t22 110t6 116t2 124q2 36 3 89v27q0 41 -2 85q-3 59 -12 119t-27 109t-46 82t-70 39q0 -48 19 -92t19 -92q0 -22 -2 -52t-10 -60t-22 -54t-40 -34l-36 292q-4 28 -10 66 t-19 73t-35 60t-60 25q-88 0 -153 -47t-113 -122t-79 -169t-50 -190t-26 -185t-7 -153z" />
<glyph unicode="R" horiz-adv-x="1104" d="M66 310q0 34 24 53t52 37v660h-46q0 102 60 190t152 152t199 100t201 36q90 0 128 -47t38 -137q0 -132 -57 -268t-143 -262t-190 -236t-196 -188q114 0 225 16t224 37t228 38t237 21v-74l-90 -12t-135 -19t-159 -23t-159 -23t-136 -20t-89 -13q-60 -10 -90 -12t-44 -10 t-15 -28t-1 -64q0 -46 7 -90t16 -87t16 -88t7 -91q-27 -15 -47 -15q-10 0 -19 4q-26 11 -42 44t-25 82t-13 100t-5 99t-1 82q-16 -6 -36 -5t-37 7t-28 19t-11 35zM252 474q102 72 201 170t176 212t125 241t48 259q0 64 -46 87t-100 23q-38 0 -106 -20t-134 -56t-115 -83 t-49 -101v-732z" />
<glyph unicode="S" horiz-adv-x="792" d="M66 266q0 38 21 89t55 97t77 77t87 31q2 0 9 -1t9 -1q-30 -34 -62 -69t-60 -74t-46 -82t-18 -91q0 -60 29 -111t74 -87t102 -56t111 -20q92 0 128 43t36 143q0 48 -9 91t-29 93q-14 52 -50 140t-82 193t-94 219t-88 219t-66 191q-24 80 -24 129v7q0 72 16 133t51 104 t91 68t138 25q92 0 144 -62t78 -149t32 -181t6 -160q0 -16 2 -49q1 -22 1 -48v-27q-1 -42 -5 -86t-17 -80t-37 -59t-62 -23q0 100 21 196t21 198q0 62 -7 136t-31 138t-71 107t-127 43q-104 0 -138 -51t-34 -153q0 -36 1 -64t5 -55t12 -56t22 -65q14 -34 42 -103t63 -156 t75 -182t77 -181t66 -155t43 -101q16 -72 24 -157q3 -30 3 -58q0 -53 -10 -100q-15 -73 -61 -120q-41 -42 -119 -42q-10 0 -21 1q-76 0 -148 35t-129 92t-92 130t-35 147z" />
<glyph unicode="T" horiz-adv-x="1036" d="M36 1390q6 20 65 38t147 36t195 33t210 26t192 17t143 6v-78q-128 0 -259 -18t-253 -60v-21t-1 -33t-1 -34v-22q0 -156 12 -311t27 -311t28 -311t13 -311h-78q-10 80 -17 190t-15 235t-15 256t-16 251t-21 221t-26 165h-294z" />
<glyph unicode="U" d="M58 846q0 90 2 165t6 150t12 156t18 183h78q0 -76 -7 -152t-15 -151t-15 -151t-7 -152q0 -38 3 -110t13 -159t29 -179t52 -167t80 -123t115 -48q86 0 153 66t117 169t84 230t54 250t29 227t9 162q0 48 -12 99t-27 101t-27 96t-12 82q0 40 16 68t56 28q22 0 44 -5t32 -35 q0 -14 1 -48t1 -71v-71v-48q0 -68 -6 -198t-24 -287t-53 -321t-94 -298t-146 -220t-209 -86q-74 0 -129 53t-94 136t-64 184t-39 195t-19 170t-5 110z" />
<glyph unicode="V" horiz-adv-x="1106" d="M80 1318v36h110v-74q0 -8 12 -58t31 -125t43 -167t48 -183t47 -172t39 -135q2 -10 16 -45t32 -76t35 -80t27 -57q2 -4 16 -18t20 -18q92 120 144 253t84 274t52 285t48 286q6 28 17 72t23 85t22 70t12 29h88q-66 -200 -105 -388t-80 -368t-101 -356t-168 -352 q-4 -4 -13 -10t-21 -12t-23 -10t-15 -4q-6 0 -20 14t-18 22q-12 26 -34 80t-45 113t-42 108t-25 65q-20 60 -46 150t-54 189t-56 199t-50 181t-36 135t-14 62z" />
<glyph unicode="W" horiz-adv-x="1610" d="M92 394l38 986h80q0 -16 -1 -35t-4 -56t-7 -98t-9 -162t-11 -247t-12 -352q0 -48 21 -112t57 -122t86 -98t108 -40h7q71 0 110 40q41 42 64 113t33 163t24 191t39 198t77 181q26 0 40 7t21 13t8 5t1 -17q-10 -56 -28 -138t-30 -173t-13 -181v-7q0 -86 23 -156 q24 -73 79 -118t153 -45q76 0 138 36t110 94t84 133t60 152t35 151t11 130q0 114 -9 196t-34 146t-68 122t-109 124q-2 0 -3 6t-1 10q0 34 24 47t52 13q52 0 88 -42t60 -108t37 -146t20 -154t9 -133t2 -85q0 -80 -9 -169t-32 -176t-62 -167t-98 -140t-140 -96t-187 -36 q-48 0 -93 21t-83 46t-68 46t-48 21q-18 -10 -45 -49t-65 -80t-88 -72q-38 -23 -82 -23q-14 0 -30 2q-13 -2 -25 -2q-36 0 -67 17q-42 23 -77 64t-63 93t-48 103t-33 95t-17 70z" />
<glyph unicode="X" horiz-adv-x="1098" d="M60 110q12 -6 29 26t64 118t134 233t241 367l-392 828h106q12 -48 35 -111t54 -130t65 -136t67 -130t62 -110t47 -77l402 586q2 0 7 1t9 1q16 0 37 -9t21 -31q0 -42 -33 -102t-81 -125t-103 -132t-100 -126t-71 -105q-18 -31 -18 -52q0 -9 4 -16l362 -768h-106l-330 658 q-120 -168 -219 -358t-183 -374q-4 0 -18 -3t-18 -3q-34 0 -54 16t-20 64z" />
<glyph unicode="Y" horiz-adv-x="878" d="M36 1756q10 22 23 31t31 9q20 0 33 -9t23 -31q106 -486 366 -914l110 110q14 102 28 198q12 82 24 169l20 145v36q4 32 10 82t12 97t11 80l5 33h86l-234 -1756l-36 -36q-28 14 -33 23t-5 29q0 88 12 175t26 174t26 174t12 175q0 6 -1 27t-1 27q1 -7 1 -13q0 -35 -19 -49 q-22 -16 -54 -16q-4 0 -18 2t-18 4q-66 108 -137 232t-133 256t-108 268t-62 268z" />
<glyph unicode="Z" horiz-adv-x="1244" d="M58 108q94 198 213 395t234 378t212 340t147 279q-22 38 -82 45q-26 3 -56 3q-38 0 -82 -5q-78 -9 -164 -29t-159 -37t-125 -24q-15 -2 -26 -2q-29 0 -36 13q-2 2 -3 9t-1 9q0 20 9 32t31 22q82 4 190 30t217 41q58 8 114 8q48 0 93 -6q98 -13 158 -85q-26 -138 -82 -261 t-128 -237t-152 -222t-156 -218t-139 -224t-99 -238q56 -11 126 -10h41q95 4 197 16t205 30t191 35t154 30t96 15q0 -28 -11 -48t-27 -46q-148 -28 -276 -50t-252 -36t-254 -21q-83 -4 -174 -4q-52 0 -106 1q-30 10 -34 30t-4 42z" />
<glyph unicode="[" horiz-adv-x="634" d="M100 1770q12 44 57 61t102 20t115 -1t98 -4q18 0 37 -1t36 -8t28 -21t11 -38q-18 0 -54 1t-80 0t-89 -7t-81 -19t-56 -35t-14 -58q-14 -44 -21 -148t-9 -244t1 -302t9 -322t13 -304t14 -248t13 -156t10 -24l320 26l36 -36q-46 -12 -106 -24t-121 -26t-117 -29t-94 -31z " />
<glyph unicode="\" horiz-adv-x="964" d="M60 1756l74 -36q24 -56 78 -171t123 -259t144 -303t144 -304t124 -259t81 -168q4 -8 20 -35t35 -57t35 -57t20 -33q2 -2 3 -9t1 -11q0 -18 -9 -31t-31 -23l-110 110z" />
<glyph unicode="]" horiz-adv-x="574" d="M22 1738v9t2 9q214 44 440 44l-8 -1824q0 -22 -22 -37t-56 -24t-76 -13t-79 -6t-66 -2h-39q0 36 16 47t39 13t50 1t50 12t39 45t16 100l26 1570h-294q-22 0 -30 20t-8 36z" />
<glyph unicode="^" horiz-adv-x="670" d="M128 1328q14 28 37 59t47 63t45 63t35 61q6 12 12 37t15 50t24 43t41 18q30 0 37 -20t17 -54q22 -70 51 -123t54 -89t43 -55t16 -19l-74 -74l-162 250q-24 -32 -48 -69t-50 -69t-56 -53t-66 -21h-9t-9 2z" />
<glyph unicode="_" horiz-adv-x="902" d="M48 74l36 36h744q0 -4 -1 -22t-6 -38t-15 -35t-26 -15q-6 0 -16 4t-22 10t-22 12t-14 10h-622z" />
<glyph unicode="`" horiz-adv-x="336" d="M72 1318q4 10 17 38t21 36l178 -264l-80 -8q-16 16 -41 36t-48 44t-38 54t-9 64z" />
<glyph unicode="a" horiz-adv-x="926" d="M48 464q0 62 10 138t31 156t55 155t83 133t113 94t148 36q72 0 117 -41t65 -111q16 -102 38 -219t47 -235t51 -228t50 -196q0 -24 -5 -43t-35 -29l-146 402q-6 -26 -22 -74t-42 -105t-58 -114t-68 -101t-76 -69q-29 -18 -57 -18l-23 3q-86 0 -140 53t-84 128t-41 154 t-11 131zM128 456q0 -12 5 -49t15 -85t27 -99t41 -89t54 -57q16 -10 36 -10q16 0 34 7q72 46 127 123t93 164t57 176t19 159q0 44 -2 113t-17 134t-49 112t-96 47q-66 0 -118 -34t-90 -89t-64 -124t-42 -141t-23 -140t-7 -118z" />
<glyph unicode="b" horiz-adv-x="818" d="M76 152v1354h76v-734q28 32 70 88t92 109t101 92t97 39q62 0 106 -45t72 -108t41 -132t13 -115q2 -29 2 -64.5t-2 -76.5q-4 -83 -18 -174t-41 -179t-70 -154t-104 -102q-42 -25 -94 -25q-23 0 -47 5q-32 0 -64 13t-59 36t-44 53t-17 64q0 28 9 46t27 46q2 -28 13 -60 t29 -60t44 -47t58 -19q68 0 117 35t82 91t53 126t30 142t13 137t3 113q-10 154 -42 232t-75 96q-15 6 -32 6q-30 0 -63 -20q-52 -32 -102 -98t-96 -156t-77 -188t-43 -194q-6 -44 -6 -84q0 -47 8 -88h-60z" />
<glyph unicode="c" horiz-adv-x="878" d="M58 498q0 42 9 108t27 141t47 151t67 137t88 99t112 38q32 0 62 -15t54 -38t39 -53t15 -60q0 -6 -2 -27t-4 -27q-10 14 -30 34t-42 40t-45 35t-39 19q-52 0 -93 -35t-70 -89t-48 -122t-31 -135t-17 -125t-5 -94q0 -82 14 -153t49 -122t95 -80t154 -29q58 0 102 14t81 39 t71 61t74 82h36q-2 -66 -34 -120t-82 -93t-111 -60t-119 -21q-108 0 -187 41t-132 110t-79 160t-26 189z" />
<glyph unicode="d" d="M24 440q10 140 48 259t107 205t171 135t242 49l6 682q0 26 22 51t50 25q28 -22 50 -70t39 -110t29 -131t20 -134t13 -121t7 -88q1 -9 1 -20q0 -27 -4 -62q-5 -50 -12 -110t-16 -124t-17 -124t-14 -110t-6 -82q6 -22 19 -71t28 -102t31 -100t28 -67q28 10 43 7t23 -12 t9 -19t1 -14q0 -42 -3 -77t-37 -69q-40 22 -69 66t-51 96t-37 106t-25 98q-28 -72 -62 -143t-80 -127t-107 -90t-143 -34q-78 0 -137 41t-98 104t-56 140q-14 62 -14 120q0 14 1 27zM94 438q0 -56 9 -121t36 -120t73 -91t122 -36q34 2 75 29t81 69t76 94t64 105t42 100 q11 37 11 65q0 8 -1 16q-4 20 -14 73t-21 111t-22 110t-15 72q-22 28 -49 53t-73 25q-102 0 -176 -57t-123 -142t-72 -181t-23 -174zM688 1696l32 -782l40 182q3 12 3 36q0 12 -1 27q-2 45 -7 103t-13 123t-17 126t-19 110t-18 75z" />
<glyph unicode="e" horiz-adv-x="760" d="M34 714q0 24 17 40t41 16q28 0 39 -20t15 -54q24 68 58 141t78 138t101 118t129 81q76 0 124 -54t58 -132q3 -18 2 -35q0 -48 -21 -85q-29 -50 -78 -89t-109 -72t-112 -65t-88 -69t-36 -87q0 -72 22 -146t64 -134t104 -98t144 -38q34 0 60 18t49 40t44 40t47 18q2 0 9 -1 t9 -3q-20 -74 -77 -130t-135 -56q-35 -4 -66 -4q-87 0 -145 33q-79 45 -124 125t-67 185t-44 213q-12 26 -31 43t-37 33t-31 36t-13 54zM250 676q58 0 118 22t110 61t81 91t31 112q0 16 1 39v9q0 18 -3 36q-4 22 -17 37t-39 15q-64 0 -116 -47t-89 -113t-57 -138t-20 -124z " />
<glyph unicode="f" horiz-adv-x="872" d="M86 434v82q20 0 58 3t78 10t74 21t46 38q0 110 -14 219t-28 207t-19 180q-1 16 -1 31q0 62 17 108q21 57 74 84q35 18 91 18q29 0 64 -5q86 -62 128 -128t58 -142q14 -68 14 -144v-19q-2 -87 -2 -189h-42q0 26 -1 74t-6 106t-16 117t-33 108t-56 80t-84 31h-8 q-52 0 -76 -26q-26 -28 -32 -79q-3 -25 -3 -56t3 -66q6 -71 14 -153q14 -124 24 -209t44 -165h550l-38 -74h-508q0 -82 22 -161t49 -156t50 -153t23 -152q0 -20 -7 -31t-31 -23q-30 16 -53 46q-20 26 -20 54q0 5 1 10q-4 20 -13 63t-19 97t-23 114t-23 114t-19 97t-13 63 q-70 -20 -145 -32t-149 -12z" />
<glyph unicode="g" horiz-adv-x="866" d="M50 338q0 44 9 110t26 140t45 148t66 133t87 96t111 37q26 0 42 -5t29 -11t27 -13t36 -11q10 0 26 11t33 18t31 4t20 -33q44 -176 79 -335t61 -313t40 -309t14 -323q0 -18 -4 -57t-9 -81t-9 -77t-6 -43q-33 -15 -57 -15q-5 0 -10 1q-27 4 -43 19t-23 38t-7 45v64l84 -42 v48t1 71t1 71v48q0 26 -1 83t-4 128t-9 149t-19 144t-32 113t-47 59q-10 -24 -26 -65t-40 -90t-54 -100t-66 -92t-77 -67t-85 -26q-60 0 -105 34t-75 83t-45 107t-15 106zM122 400q0 -50 1 -101t15 -92t46 -67t94 -26q74 0 135 57t104 139t65 170q19 74 19 132q0 10 -1 20 q8 20 10 57v7q0 34 -18 72q-20 42 -70 84t-144 76q-48 0 -86 -31t-67 -79t-48 -108t-32 -118t-18 -110t-5 -82z" />
<glyph unicode="h" horiz-adv-x="1012" d="M50 1422l80 32l82 -1344q58 220 128 428t190 408q42 66 79 108t101 42q48 0 72 -35t40 -77q4 -32 13 -101t20 -156t23 -182t23 -182t19 -156t12 -101q4 -14 7 -42q2 -14 1.5 -28t-1.5 -29q-3 -29 -13 -54t-30 -31q-30 42 -46 140t-26 220t-19 254t-21 240t-33 178t-55 70 q-98 -106 -163 -244t-113 -286t-90 -297t-94 -275h-72q-4 72 -15 192t-23 266t-25 303t-24 300t-19 259t-8 180z" />
<glyph unicode="i" horiz-adv-x="426" d="M24 1536q10 22 23 31t31 9q30 0 44 -20t20 -47t6 -55v-42q-26 0 -46 12t-34 30t-25 40t-19 42zM166 1134h78q8 -116 20 -251t29 -274t41 -277t56 -258q-20 -40 -56 -40q-28 0 -39 21t-15 55q-4 36 -13 110t-19 168t-23 197t-23 197t-19 168t-13 110q0 10 -2 38t-2 36z " />
<glyph unicode="j" horiz-adv-x="500" d="M28 1296q0 36 38 56q46 -22 62 -46t16 -64q0 -4 -2 -18t-2 -18q-16 6 -35 13t-36 18t-29 25t-12 34zM206 -610q0 2 7 11t15 19t15 19t7 11q8 -10 31 -32t51 -41t57 -29t49 2q11 61 11 110v8q-1 52 -6 100t-10 98q-3 28 -3 59q0 25 2 53q-6 62 -17 154t-24 198t-29 219 t-35 218t-38 195t-39 150q-4 12 2 19t15 12t20 7t17 2q34 0 56 -40q6 -60 19 -173t29 -250t33 -288t32 -287t24 -246t11 -166q0 -30 5 -71q4 -29 4 -58q0 -12 -1 -23q-2 -40 -17 -71t-53 -41q-10 -3 -21 -3q-23 0 -50 11q-41 16 -79 42t-64 55t-26 47z" />
<glyph unicode="k" horiz-adv-x="864" d="M88 1464h56l16 -480q20 8 58 51t86 96t100 103t98 71q24 11 46 11q20 0 38 -9q38 -19 56 -103q0 -76 -36 -161t-87 -167t-108 -155t-99 -121l654 -88l-46 -56l-712 48q0 -126 16 -253t16 -251q-26 0 -54 -8q-7 -2 -13 -2q-18 0 -29 18q0 100 -4 186t-11 174t-15 187 t-14 227t-10 294q-3 111 -3 246q0 68 1 142zM198 622q58 36 115 102t106 140t87 147t58 123v14q0 51 -27 54h-6q-29 0 -72 -33q-47 -37 -100 -104t-95 -145t-63 -157q-11 -43 -11 -80q0 -32 8 -61z" />
<glyph unicode="l" horiz-adv-x="362" d="M32 1574q18 12 31 15q8 2 14 2q4 0 8 -1q9 -2 14 -8t7 -8q24 -92 40 -215t29 -261t26 -283t29 -281t39 -255t55 -205q0 -6 -4 -17t-10 -23t-12 -22t-10 -12q-30 10 -54 72t-43 160t-35 222t-29 257t-24 267t-23 250t-23 207t-25 139z" />
<glyph unicode="m" horiz-adv-x="1524" d="M60 952q0 2 9 13t21 24t21 26t9 17q0 8 -4 11t-7 -15q-2 -9 -1.5 -25.5t1.5 -39.5q3 -47 16 -140t41 -240t76 -363q12 212 38 364t61 254t77 164t89 97t96 50t97 25q24 0 43 -22t33 -55t24 -74t16 -78t8 -65t4 -38q2 -24 8 -87t12 -133t11 -133t5 -87q16 68 27 142 t24 148t31 145t52 130t86 103t130 66q58 -26 91 -98t51 -172t26 -219t17 -235t24 -221t47 -179q-70 0 -89 40t-29 100q-4 28 -15 93t-23 148t-25 177t-25 177t-21 148t-13 93q-20 6 -39 6q-29 0 -57 -14q-46 -24 -87 -121t-78 -285t-67 -500q-4 -28 -28 -35t-46 -3 q-2 32 -7 98t-12 149t-15 175t-16 175t-14 148t-8 97q-2 10 -6 41t-14 63t-27 57t-47 25q-72 -14 -121 -66t-82 -130t-55 -177t-40 -204t-37 -212t-47 -201q-4 -26 -15 -46t-27 -27q-8 -4 -16.5 -3.5t-17.5 3.5q-18 7 -34 35q-4 34 -13 106t-20 162t-23 190t-23 190t-19 162 t-12 106z" />
<glyph unicode="n" horiz-adv-x="1048" d="M58 1082q0 20 11 26q3 2 9 2q17 0 56 -12l108 -878q36 102 59 211t46 215t52 205t76 179t118 136t181 80q42 -30 64 -84t32 -123t11 -146t1 -153t3 -144t17 -120q6 -74 21 -110t30 -64t26 -67t11 -119q-64 2 -100 67t-55 165t-26 220t-14 230t-18 197t-37 121 q-13 17 -31.5 17t-43.5 -17q-49 -34 -129 -164q-58 -108 -95 -219t-63 -226t-48 -233t-50 -238q-21 -10 -37 -10q-6 0 -12 1q-21 5 -35 22t-21 43t-5 54q-4 34 -13 105t-20 162t-23 190t-23 190t-19 162t-12 105q0 4 -1 11t-1 11z" />
<glyph unicode="o" horiz-adv-x="780" d="M58 510q0 54 7 130t23 158t44 162t72 144t103 103t139 39q34 0 57 -12t41 -33t32 -47t32 -56q26 -90 52 -197t41 -216q12 -86 11 -170v-44q-4 -105 -37 -193t-103 -153t-188 -95q-90 0 -153 47t-101 118t-55 155t-17 160zM130 548q0 -60 10 -136t39 -145t79 -116t128 -47 q104 18 165 97t85 188q17 79 17 167q0 33 -2 67q-9 125 -42 234t-85 187t-116 96q-58 0 -102 -32t-74 -84t-50 -117t-32 -131t-16 -126t-4 -102z" />
<glyph unicode="p" horiz-adv-x="744" d="M79 723q-1 20 -1 37q0 32 4 48q0 72 31 146t84 134t124 99t149 39q72 0 119 -46t74 -112t37 -138t10 -122q0 -154 -32 -265t-89 -203t-139 -176t-180 -182q-5 -20 -5 -42.5t5 -47.5q10 -50 27 -104t32 -109t17 -103q0 -12 -1 -21t-8 -15t-23 -6t-44 8q-12 26 -28 89 t-33 150t-34 190t-33 210t-29 209t-22 187t-12 146zM158 752q0 -76 8 -160t19 -167t24 -159t23 -138q46 16 98 59t101 105t93 137t74 156t42 161q6 38 6 75q0 39 -7 76q-13 71 -57 129t-124 94q-74 0 -130 -32t-94 -84t-57 -118t-19 -134z" />
<glyph unicode="q" horiz-adv-x="1086" d="M58 488q4 88 11 178t23 176t45 161t74 133t111 91t158 35q52 0 85 -9t57 -31t45 -58t51 -90q-2 -130 -6 -238t-9 -205t-11 -188t-12 -185q0 -14 3 -60t10 -106t17 -126t24 -121t32 -91t42 -36q32 0 65 38t61 88t48 99t30 69h40q0 -46 -18 -107t-49 -121t-72 -108t-85 -66 q-58 2 -94 33t-58 80t-32 113t-16 132t-9 136t-11 128q-28 -34 -57 -68t-62 -60t-71 -42t-84 -16q-88 0 -142 43t-84 108t-40 143t-10 148zM128 502q0 -40 6 -105t25 -126t56 -106t99 -45q34 0 74 16t78 55t72 105t57 166t32 238q4 59 4 127q0 91 -7 197q0 22 -11 50t-30 52 t-45 41t-56 17q-70 0 -123 -38t-93 -98t-66 -136t-42 -152t-23 -144t-7 -114z" />
<glyph unicode="r" horiz-adv-x="708" d="M24 992q8 0 24 -2t31 -7t28 -13t15 -18l72 -476q14 140 52 259t97 204t136 129q65 37 141 37q14 0 28 -1q7 2 14 2q20 0 41 -12q29 -16 50 -43t30 -60q3 -12 3 -23q0 -20 -10 -40q-66 78 -132 80h-5q-63 0 -123 -47q-62 -49 -116 -134t-94 -178t-62 -183 q-20 -82 -20 -136v-10q6 -74 14 -120t15 -76t12 -50t7 -42l-112 -48l-2 52q-26 238 -47 402t-36 270t-25 164t-16 84t-8 31z" />
<glyph unicode="s" horiz-adv-x="682" d="M58 1026q0 52 24 93t62 70t85 44t93 15q68 0 123 -32t92 -83t57 -113t20 -124q0 -6 -1 -19t-2 -27t-2 -27t-1 -19q-36 18 -56 53t-33 76t-25 84t-33 79t-55 58t-90 22q-38 0 -72 -15t-59 -40t-40 -59t-15 -72q0 -44 9 -73t31 -75q68 -88 134 -159t119 -143t85 -151 t32 -181q0 -40 -8 -78t-27 -68t-50 -48t-79 -18q-54 0 -105 26t-90 68t-63 95t-24 107q0 10 5 31t11 42t13 37t13 16q0 -48 13 -109t41 -114t73 -89t109 -36q32 0 51 15t29 37t13 48t3 48q0 80 -30 148t-76 130t-99 121t-99 122t-76 133t-30 154z" />
<glyph unicode="t" horiz-adv-x="840" d="M36 732q18 50 67 68t109 25t122 15t104 38q-4 60 -17 125t-27 130t-24 130t-10 127h78q20 -42 31 -108t19 -138t13 -143t11 -123q34 10 102 26t142 34t141 33t103 21q6 2 22 4t33 4t33 3t22 1v-48l-562 -152q8 -180 19 -369t19 -365q0 -22 -4 -41t-34 -29q-34 32 -53 89 t-28 127t-11 147t-3 151t-4 140t-11 114q-86 -22 -172 -43t-176 -31q-22 0 -31 6t-23 32z" />
<glyph unicode="u" horiz-adv-x="1008" d="M59 417q-2 50 -2 102q0 72 4 146q7 127 19 250t16 219h82q0 -64 -8 -124t-17 -120t-16 -121t-7 -127q0 -42 -2 -98q-1 -19 -1 -38q0 -38 3 -78q4 -60 14 -117t36 -103t68 -74t108 -28q100 32 168 93t110 142t61 176t22 193q1 21 1 42q0 76 -9 151q-11 95 -29 177 q0 30 20 62t46 50q23 16 45 16h5q24 -2 32 -38q0 -124 -12 -253q-7 -74 -6 -145q0 -54 3 -106q9 -122 54 -230t157 -188v-30t-5 -43t-15 -41t-30 -24q-40 24 -76 77t-65 112t-50 109t-27 68q-14 -30 -35 -78t-48 -101t-60 -106t-72 -96t-82 -70t-89 -27h-8q-107 0 -169 54 q-65 56 -97 150t-37 215z" />
<glyph unicode="v" horiz-adv-x="926" d="M36 988q0 22 19 30t35 8h10t10 -2q14 -52 40 -132t59 -173t73 -190t83 -181t90 -148t93 -90q22 14 41 42t33 59t23 63t13 56q6 30 15 93t20 142t23 167t22 167t18 142t12 93h80q0 -60 -4 -149t-13 -191t-25 -211t-41 -211t-61 -190t-82 -146q-12 -14 -40 -28 q-20 -10 -28 -10q-4 0 -6 2q-50 16 -98 71t-94 133t-88 171t-78 185t-66 176t-50 142q-4 10 -10 27t-12 35t-11 31t-5 17z" />
<glyph unicode="w" horiz-adv-x="1304" d="M84 1216q28 0 50 -9t36 -37q-2 -20 -2 -59t-1 -90q0 -26 -0.5 -52.5t0.5 -53.5q1 -55 1 -106v-91t2 -60q0 -24 4 -74t13 -111t24 -127t39 -119t58 -88t82 -35q34 0 66 40t57 91t41 100t18 67t5 55t6 84t6 99t5 99t4 84t2 55h58q0 -40 2 -105t12 -139t29 -148t51 -135 t82 -99t120 -38q62 0 102 41t63 99t32 122t9 110q0 92 -26 173t-71 152t-106 135t-129 124q4 2 18 3t18 1q62 0 114 -31t93 -81t72 -113t51 -129t30 -128t10 -108q0 -52 -15 -132t-46 -157t-80 -132t-115 -55q-56 0 -106 29t-93 73t-77 96t-56 96q-10 -40 -35 -109t-61 -135 t-82 -114t-98 -48q-50 0 -89 38t-69 97t-51 132t-35 142t-21 127t-9 90q-2 22 -3 68t-2 105t-2 124t-2 124t-2 105t-1 68z" />
<glyph unicode="x" horiz-adv-x="708" d="M60 1208v58q48 0 75 -27t44 -69t26 -92t22 -97t33 -85t56 -54l220 328q0 2 6 3t10 1q38 0 56 -40q-40 -42 -85 -101t-84 -124t-64 -131t-25 -120q0 -24 11 -70t30 -101t47 -114t62 -106t74 -78t84 -31q0 -16 -2 -37t-9 -41t-20 -33t-37 -13q-20 0 -34 12t-24 30t-17 37 t-15 33q-14 22 -45 79t-66 122t-66 122t-43 79q-6 -14 -16 -59t-24 -106t-29 -127t-29 -123t-27 -94t-21 -39q-32 10 -36 29t-4 41q0 84 24 162t52 155t52 154t24 155q0 6 -1 20t-3 16zM598 146q0 -12 10 -12t10 12t-10 12t-10 -12z" />
<glyph unicode="y" horiz-adv-x="952" d="M58 706q0 58 3 109t8 102t12 107t15 122q12 24 33 34t45 10q0 -60 -7 -120t-15 -120t-15 -120t-7 -122q0 -18 3 -74t10 -130t21 -155t37 -148t55 -111t78 -44q70 0 134 51t119 118t98 134t71 101v608q19 5 35 5q37 0 57 -27q28 -38 34 -113q2 -26 2 -56q0 -55 -7 -120 q-11 -101 -24 -211t-23 -218q-6 -60 -6 -114q0 -43 4 -82q-2 -34 -3 -106t-1 -162v-190v-190t1 -162t3 -106l-36 -36q-64 40 -108 92t-44 122q0 2 6 14t14 25t15 24t7 15l74 -146v988q-36 -40 -81 -96t-99 -109t-116 -90t-130 -37q-64 0 -110 45t-76 116t-47 158t-26 168 t-11 148t-2 99z" />
<glyph unicode="z" horiz-adv-x="940" d="M60 110q24 48 74 111t111 133t128 143t128 143t109 131t72 107q-58 4 -133 6q-30 1 -61 1q-46 0 -95 -2q-81 -3 -159 -12t-138 -29l-36 36q18 44 87 67t153 33t162 11t114 1q18 0 54 -2t72 -10t63 -23t27 -41q-52 -108 -127 -206t-159 -195t-172 -194t-164 -201 q86 0 173 7t174 13t173 10q34 2 69 2q52 0 105 -4l-32 -70q-2 0 -36 -6t-87 -13t-118 -16t-130 -17t-123 -15t-96 -11q-26 0 -57 4t-59 16t-47 34t-19 58z" />
<glyph unicode="{" horiz-adv-x="818" d="M60 586q2 36 43 64t91 70t92 109t46 179q0 54 -41 88t-91 67t-91 75t-41 114t31 150t84 143t124 107t149 42q22 0 33 -8t23 -30q-70 -16 -139 -54t-123 -93t-86 -127t-28 -154q82 -64 154 -128t99 -142t-9 -179t-172 -239q42 -8 78 -9t63 -7t42 -23t15 -57 q6 -68 -12 -122t-47 -107t-64 -110t-67 -131q10 -60 47 -97t88 -53t110 -16t117 12t108 33t82 47q8 0 22 -14t14 -22q-26 -38 -68 -60t-91 -34t-99 -15t-90 -3q-54 0 -110 9t-101 32t-74 63t-29 104q0 2 -1 6t1 18t11 43t30 82t56 134t89 201z" />
<glyph unicode="|" horiz-adv-x="292" d="M36 1646l74 36q-2 -98 2 -228t13 -276t23 -300t31 -300t37 -276t40 -228q0 -6 -4 -17t-10 -23t-13 -22t-11 -12q-12 6 -22 24t-21 72t-23 160t-29 286t-38 450t-49 654z" />
<glyph unicode="}" horiz-adv-x="756" d="M0 1744q0 32 36 54t86 35t102 18t84 5q74 0 139 -12t112 -44t74 -85t27 -135q0 -78 -36 -166t-85 -171t-98 -154t-75 -113q-2 -4 -3 -18t-1 -20q0 -44 25 -70t61 -40t77 -18t71 -4q0 -22 -21 -53t-45 -66t-45 -74t-21 -77q94 -60 141 -139t52 -159t-29 -152t-101 -121 t-164 -66t-217 15q-8 4 -26 24t-18 36q56 0 139 1t161 20t133 66t55 139q-2 52 -20 86t-44 60t-56 48t-54 50t-39 67t-11 99q0 4 16 24t34 43t32 43t12 24q-10 22 -42 44t-65 44t-55 47t-8 53q0 60 22 114t55 103t72 96t72 96t55 102t22 115q0 66 -17 103t-48 57t-75 25 t-100 5q-46 0 -82 -13t-68 -28t-62 -27t-66 -12q-34 0 -52 12t-18 64z" />
<glyph unicode="~" horiz-adv-x="928" d="M40 1640q0 122 71 179t185 69q60 6 95 -12t55 -49t30 -67t22 -65t30 -44t56 -3t60 31t42 46t44 59t70 72l80 -48q-124 -140 -203 -195t-128 -55t-75 39t-46 86t-41 86t-59 39q-60 0 -98 -14t-61 -41t-36 -66t-21 -87q-28 10 -50 14t-22 26z" />
<glyph unicode="&#xa0;" />
<glyph unicode="&#xa1;" horiz-adv-x="264" d="M73.5 13.5q1.5 -80.5 1.5 -136.5q0 -26 1 -72t2 -90.5t2 -79.5t1 -40l36 -28q22 8 37 28t22.5 43.5t10.5 44t3 26.5v770q0 17 -19.5 24t-35.5 7q-2 0 -8 -1t-10 -1q-22 -67 -32 -153.5t-11.5 -173.5t0 -167.5zM109 877q58 0 80.5 5.5t21.5 15t-18.5 19.5t-37.5 18 q-46 -17 -46 -58z" />
<glyph unicode="&#xa2;" horiz-adv-x="878" d="M74 374q0 40 8 102t25 133t43 145t62 135t81 103t101 52q-4 70 -9 141t-11 151l74 36q-4 -140 0 -326q28 -6 55 -22t47 -38t32 -50t12 -54q0 -6 -2 -27t-4 -27q-10 12 -26 29t-35 35t-39 34t-38 24q2 -106 8 -217t13 -222t18 -218t23 -205q44 -4 84 -6t76 4t69 25t67 57 h36q-2 -58 -31 -92t-75 -52t-102 -25t-110 -7q6 -40 12 -77t14 -71q0 -6 -11 -1t-25 11t-27 11t-17 3l-12 6t-6 12t-3 34l-3 72q-104 2 -175 25t-115 70t-64 119t-20 168zM168 356q0 -82 8 -134t36 -81t83 -40t149 -11h2q-2 56 -5 134t-9 183t-13 239t-19 306 q-46 -10 -82 -49t-61 -94t-42 -120t-28 -128t-15 -117t-4 -88z" />
<glyph unicode="&#xa3;" horiz-adv-x="1126" d="M0 182q0 56 49 86t116 47t135 26t104 25q0 8 1 29t2 44t1 44v29q0 82 -3 149t-37 143q-72 -42 -157 -79t-173 -37v80q26 2 75 12t99 27t87 43t37 60l-104 450q0 48 20 83t51 57t72 33t83 11t75 -17t57 -45t36 -65t12 -77q0 -6 -1 -27t-1 -27q-42 6 -63 35t-38 62t-38 60 t-61 27q-22 0 -46 -8t-43 -23t-31 -35t-12 -44l100 -446q16 6 58 22t88 34t88 33t60 21h6q4 0 6 1t6 1q2 0 9 -1t9 -1l-18 -18l-18 -18q-14 -10 -51 -31t-77 -44t-77 -43t-51 -28q2 -14 8 -51t12 -77t11 -77t5 -51q0 -12 -1 -43t-2 -65t-3 -65t-2 -43q80 0 164 15t162 46 t147 78t121 113q0 -4 1 -18t1 -18q0 -18 -5 -41t-14 -44t-24 -38t-33 -23l-476 -148q-32 -10 -46 -35t-20 -58t-10 -68t-16 -65t-37 -49t-71 -19q-34 0 -87 14t-104 38t-87 58t-36 74zM108 164q0 -18 28 -35t64 -30t69 -20t45 -7q28 0 46 25t27 58t13 62t4 39q-4 0 -18 1 t-18 1q-16 0 -59 -5t-88 -16t-79 -29t-34 -44z" />
<glyph unicode="&#xa4;" horiz-adv-x="896" d="M112 1174v58q64 0 92 -46t44 -110q42 52 97 83t125 31q40 0 73 -15t61 -41l68 94q0 2 6 3t10 1q38 0 56 -40q-20 -22 -44 -50t-52 -62q72 -142 103 -254t34 -207t-17 -179t-50 -170q50 -40 98 -40q0 -16 -2 -38t-10 -42t-21 -34t-37 -14q-26 0 -56 29t-58 63 q-70 -40 -192 -62q-64 0 -114 24t-86 64q-22 -70 -38 -116t-26 -50q-32 10 -44 26t-12 38q0 52 13 106t35 110q-28 66 -41 139t-13 139v87t6 80t21 87t45 110zM184 644q0 -60 10 -136t39 -145t79 -116t128 -47q106 22 167 100t86 181t15 215t-47 203t-96 143t-135 36 q-88 0 -137 -44t-73 -110t-30 -142t-6 -138z" />
<glyph unicode="&#xa5;" horiz-adv-x="878" d="M47 1734q-1 62 43 62q20 0 33 -9t23 -31q26 -122 72 -239t104 -231t123 -223t129 -215q42 42 63 121t31 170t14 179t12 146v36q4 32 10 82t12 97t11 80l5 33h86l-142 -1072h236q0 -16 -2 -34t-8 -34t-19 -26t-35 -10q-10 0 -52 1t-134 5l-26 -194h34l162 20l-40 -112 l-168 4l-40 -304l-36 -36q-28 14 -33 23t-5 29q0 72 8 145t20 145l-418 12q0 4 -1 10t-1 8q0 16 9 36t31 20h394q10 50 17 98t11 98q-76 4 -177 9t-245 15l-74 36l36 36h408q-50 66 -115 171t-128 224t-118 241t-87 219t-33 159z" />
<glyph unicode="&#xa6;" horiz-adv-x="272" d="M36 1646l74 36q-4 -138 6 -299t28 -375l-72 -8q-6 74 -9 143t-6 145t-8 163t-13 195zM90 922l54 12q10 -120 23 -241t27 -232t30 -210t32 -177q0 -6 -4 -17t-10 -23t-13 -22t-11 -12q-10 6 -18 17t-17 44t-18 92t-20 160t-25 250t-30 359z" />
<glyph unicode="&#xa7;" horiz-adv-x="736" d="M44 810q0 48 20 86t53 67t75 46t84 21q-70 82 -122 171t-52 203q0 52 24 93t62 70t85 44t93 15q68 0 123 -32t92 -83t57 -113t20 -124q0 -6 -1 -19t-2 -27t-2 -27t-1 -19q-36 18 -56 53t-33 76t-25 84t-33 79t-55 58t-90 22q-38 0 -72 -15t-59 -40t-40 -59t-15 -72 q0 -44 9 -73t31 -75q102 -92 168 -160t106 -135t62 -146t34 -193q4 -40 -3 -78t-27 -68t-53 -48t-81 -18q-16 0 -29 2t-27 6q70 -86 116 -176t46 -214q0 -40 -8 -78t-27 -68t-50 -48t-79 -18q-54 0 -105 26t-90 68t-63 95t-24 107q0 10 5 31t11 42t13 37t13 16 q0 -48 13 -109t41 -114t73 -89t109 -36q32 0 51 15t29 37t13 48t3 48q0 80 -30 148t-76 130t-99 121t-99 122t-76 133t-30 154zM116 774q0 -34 5 -58t17 -52v6q30 -46 44 -86t38 -70t67 -48t129 -18q32 0 51 15t29 37t13 48t3 48q0 108 -52 194t-120 166q-10 2 -19 3t-19 1 q-38 0 -72 -15t-59 -40t-40 -59t-15 -72z" />
<glyph unicode="&#xa8;" horiz-adv-x="6248" d="M164 1260q0 24 13 38t33 20t41 8t37 2q0 -16 1 -42t-2 -51t-14 -43t-35 -18q-12 0 -25 9t-24 23t-18 28t-7 26zM488 1260q0 24 13 38t33 20t41 8t37 2q0 -16 1 -42t-2 -51t-14 -43t-35 -18q-12 0 -25 9t-24 23t-18 28t-7 26z" />
<glyph unicode="&#xa9;" horiz-adv-x="1176" d="M102 404q0 64 11 157t35 195t62 203t92 182t124 131t160 50q84 -26 175 -104t168 -187t129 -236t56 -251q14 -70 -2 -152t-56 -164t-100 -157t-134 -133t-159 -91t-173 -31q-106 0 -180 61t-120 151t-67 192t-21 184zM174 432q0 -82 11 -171t45 -164t96 -123t162 -48 q200 22 320 107t173 204t50 256t-49 265t-125 232t-177 154q0 52 -36 79t-84 27q-72 0 -129 -48t-100 -123t-73 -169t-49 -185t-27 -169t-8 -124zM282 482q0 62 16 143t54 153t101 121t155 49q32 0 62 -15t54 -38t39 -53t15 -60q0 -6 -2 -27t-4 -27q-10 14 -30 34t-42 40 t-45 35t-39 19q-80 0 -127 -41t-72 -101t-33 -128t-8 -122q0 -82 17 -131t50 -76t78 -40t103 -25q58 0 94 14t65 41t55 63t66 82h36q-2 -66 -27 -120t-66 -94t-94 -62t-111 -22q-108 0 -177 24t-110 72t-57 121t-16 171z" />
<glyph unicode="&#xaa;" horiz-adv-x="544" d="M49 597q0 35 5.5 78t16.5 88.5t28.5 88t43.5 75.5t59.5 53t77.5 20q38 0 61.5 -23t34.5 -63q8 -57 19.5 -123.5t24.5 -133.5t27 -129.5t26 -110.5q0 -14 -2.5 -24.5t-18.5 -16.5l-76 228q-4 -15 -12 -42t-22 -59.5t-30.5 -65t-35.5 -57t-40 -39t-42 -8.5q-45 0 -73.5 30 t-44 72.5t-21.5 87t-6 74.5zM91 592q0 -6 2.5 -27t8 -48.5t14.5 -56.5t21.5 -50.5t28 -32t36.5 -1.5q38 26 67 69.5t49 93t30 100t10 89.5q0 25 -1 64.5t-9 76t-26 63.5t-50 27q-35 0 -62.5 -19.5t-47 -50.5t-33.5 -70.5t-22 -80t-12 -79t-4 -67.5z" />
<glyph unicode="&#xab;" horiz-adv-x="1432" d="M104 446v8t2 8l548 586h68l-434 -512q0 -24 5 -44t33 -30l584 -146v-82q-82 0 -184 21t-206 48t-202 52t-176 33q-38 18 -38 58zM496 550v8t2 8l548 586h68l-434 -512q0 -24 5 -44t33 -30l584 -146v-82q-82 0 -184 21t-206 48t-202 52t-176 33q-38 18 -38 58z" />
<glyph unicode="&#xac;" horiz-adv-x="1352" d="M128 784l4 94q90 4 174 8q72 4 148 6t128 6q74 8 118 11t71 4t44 0t35 -2t43 0t70 4t114 11t177 20l-6 -498l-120 -8l-8 392z" />
<glyph unicode="&#xad;" horiz-adv-x="732" d="M58 544v38q0 2 17 7t40 11t48 12t41 8q22 2 79 8t122 12t122 11t81 5q38 -20 38 -56v-8t-2 -10q-28 -2 -101 -7t-155 -11t-155 -11t-101 -7q-10 -2 -37 -2h-37z" />
<glyph unicode="&#xae;" horiz-adv-x="1104" d="M54 564q0 64 11 157t35 195t62 203t92 182t124 131t160 50q84 -26 175 -104t168 -187t129 -236t56 -251q14 -70 -2 -152t-56 -164t-100 -157t-134 -133t-159 -91t-173 -31q-106 0 -180 61t-120 151t-67 192t-21 184zM126 592q0 -82 11 -171t45 -164t96 -123t162 -48 q200 22 320 107t173 204t50 256t-49 265t-125 232t-177 154q0 52 -36 79t-84 27q-72 0 -129 -48t-100 -123t-73 -169t-49 -185t-27 -169t-8 -124zM256 960l26 14q0 60 34 114t86 95t111 65t111 24q24 0 44 -13t35 -34t24 -46t9 -51q18 -106 -12 -189t-86 -149t-125 -114 t-127 -80q62 0 122 9t121 21t124 22t129 12l6 -84q-24 -4 -84 -10t-127 -14t-128 -14t-85 -10q-32 -6 -48 -3t-23 3t-8 -7t-1 -33q0 -52 12 -102t12 -102q-32 -20 -52 -2t-31 52t-16 76t-5 70q-18 -6 -28 17t-10 47q0 18 12 30t28 22zM366 680q56 42 109 91t95 107t68 124 t26 142q0 38 -25 51t-53 13q-22 0 -59 -12t-73 -32t-62 -47t-26 -59v-378z" />
<glyph unicode="&#xaf;" horiz-adv-x="624" d="M62 1060v38q42 20 99 30t119 15t123 7t113 6q38 -20 38 -56v-8t-2 -10q-44 -4 -111 -7t-138 -6t-136 -6t-105 -3z" />
<glyph unicode="&#xb0;" horiz-adv-x="488" d="M90 1082q-2 54 39 93t96 51t110 -6t79 -74q32 -58 21 -103t-48 -74t-89 -39t-99 2t-79 49t-30 101zM134 1104q0 -34 3 -58t17 -39t40 -22t72 -7q74 24 98 57t15 63t-41 52t-71 28t-76 -10t-57 -64z" />
<glyph unicode="&#xb1;" horiz-adv-x="1176" d="M124 552q20 2 72 12t110 22t110 23t74 17q10 2 26 7t31 11t25 11t10 7v422q38 0 62 -27t28 -65q2 -18 0 -66t-5 -100t-6 -99t-3 -65h390q0 -50 -46 -72q-14 0 -51 1t-77 1t-77 -1t-51 -1q-8 -2 -21 -7t-25 -11t-20 -12t-8 -8v-310q52 4 103 7t93 6t73 6t43 3 q38 -20 38 -56v-8t-2 -10q4 -4 -56 -9t-149 -9t-190 -9t-181 -9t-121 -7t-11 -5q-10 -2 -37 -2h-37v38q0 2 17 7t40 11t48 12t41 8t65 7t115 9v316q-86 0 -167 -17t-169 -17q-10 0 -26 -1t-32 1t-29 11t-17 27z" />
<glyph unicode="&#xb2;" horiz-adv-x="768" d="M53 1060q0 29 20.5 62.5t54.5 62t77 47.5t86 19q73 -19 131.5 -53.5t90.5 -101t32 -172.5t-44 -269q0 -5 12 -8.5t28.5 -6.5t34.5 -4t30 2q25 5 36.5 14.5t20.5 19.5t19 17.5t33 7.5q0 -14 -8 -31t-22.5 -31.5t-34 -24.5t-42.5 -10q-36 0 -66 5.5t-67 13.5 q-9 -19 -32 -52.5t-55 -66t-71 -56t-79 -23.5q-27 0 -47.5 9.5t-34 23.5t-20 31t-6.5 32q0 45 27.5 74.5t72 47t102 25t116.5 9.5q15 41 26 91.5t13 103t-7 105.5t-33.5 99.5t-65.5 83t-103 58.5q-46 0 -81 -22.5t-59.5 -53.5t-39 -65t-18.5 -57q-14 13 -20.5 21.5 t-6.5 22.5zM182 529q0 -11 0.5 -22t5.5 -21t16.5 -18t33.5 -11q34 -5 65 13.5t55.5 46.5t41 57t22.5 45q-5 0 -14 0.5t-19 0.5h-19.5h-13.5q-33 0 -64 -4.5t-55.5 -15t-39.5 -28t-15 -43.5z" />
<glyph unicode="&#xb3;" horiz-adv-x="672" d="M30 1164q0 37 35.5 75t86 68.5t105.5 50t93 19.5q51 0 67.5 -25t16.5 -62q0 -46 -18 -97t-45 -101t-58.5 -96.5t-57.5 -84.5q108 26 173 28.5t101 -6t49.5 -22.5t17.5 -19q7 -35 3 -78t-17.5 -88.5t-37.5 -90t-57.5 -79.5t-76.5 -59t-96 -29q-45 0 -59 6.5t-14 29.5 q0 16 7 33t20 32.5t31 25.5t38 10q3 0 12 -0.5t12 -1.5q-33 -35 -43 -54.5t-10 -29t7 -11.5t10 -2q39 0 72 16.5t59 42.5t44 60t29.5 68t17 67t5.5 58q13 26 2 42t-31.5 24.5t-45.5 10.5t-40 2q-45 0 -82.5 -4.5t-71 -14t-66.5 -25.5t-69 -38l-23 20q43 41 89 91t84.5 105.5 t63 113.5t24.5 115q-10 49 -41 65t-69.5 8t-79.5 -34.5t-72.5 -60.5t-48.5 -72.5t-7 -69.5q-11 0 -18 8t-11.5 18.5t-6.5 22t-2 19.5z" />
<glyph unicode="&#xb4;" horiz-adv-x="336" d="M48 1176l190 248q8 -8 22 -34t18 -36q6 -32 -9 -60t-40 -51t-52 -42t-43 -33z" />
<glyph unicode="&#xb5;" horiz-adv-x="1008" d="M40 -176l32 1312l106 -2q0 -64 -8 -124t-17 -120t-16 -121t-7 -127q0 -42 -2 -98t2 -116t14 -117t36 -103t68 -74t108 -28q100 32 168 93t110 142t61 176t22 193t-8 193t-29 177q0 30 20 62t46 50t50 16t32 -38q0 -124 -12 -253t-3 -251t54 -230t157 -188v-30t-5 -43 t-15 -41t-30 -24q-40 24 -76 77t-65 112t-50 109t-27 68q-2 -68 -31 -141t-75 -137t-107 -113t-127 -72t-134 -13t-130 64q-18 0 -24 -23t-7 -57t1 -72t4 -69t-1 -49t-13 -10z" />
<glyph unicode="&#xb6;" d="M32 1030q20 120 47 230t73 192t116 127t172 39q70 8 113 12t78 5t74 0t99 -1q14 0 30 3t30 -6t26 -38t21 -93t14 -172t3 -276t-10 -402t-24 -550q-2 -50 -13 -61t-24 -6t-26 14t-19 -3l-4 1460l-158 16q4 -4 5 -10t3 -10q20 -102 29 -215t11 -227t1 -225t-1 -211v-63v-97 t-1 -114t-1 -114t-1 -97t-1 -63q-24 -46 -72 -46v924q-32 -48 -66 -106t-75 -109t-93 -85t-120 -34q-78 0 -125 44t-71 107t-32 134t-8 127z" />
<glyph unicode="&#xb7;" horiz-adv-x="324" d="M116 516q0 24 13 38t33 20t41 8t37 2q0 -16 1 -42t-2 -51t-14 -43t-35 -18q-12 0 -25 9t-24 23t-18 28t-7 26z" />
<glyph unicode="&#xb8;" horiz-adv-x="690" d="M120 -352q0 10 5 31t11 42t13 37t13 16q0 -48 13 -91t41 -74t72 -49t108 -18q32 0 51 15t29 37t13 48t3 48q-16 26 -43 36t-59 18t-63 22t-54 50t-36 102t-5 178l88 -8q-18 -78 -11 -127t28 -79t53 -49t65 -38t62 -45t47 -70q0 -40 -8 -78t-27 -68t-50 -48t-79 -18 q-54 0 -105 8t-90 28t-62 55t-23 89z" />
<glyph unicode="&#xb9;" horiz-adv-x="940" d="M11 982l304 107h50q-1 -87 -16.5 -173t-31.5 -172t-25 -172t2 -175q11 1 38 3t58.5 4.5t59.5 5t39 2.5q2 0 11 0.5t11 0.5v-31l-434 -31q-10 -1 -16 6t-9 15.5t-4 16t-1 8.5h182q12 83 22 158.5t19.5 151t20.5 154.5t24 167l-21 15q-90 -28 -140 -44t-74.5 -24t-29.5 -9 t-7 -1q-11 0 -18.5 3.5t-13.5 13.5z" />
<glyph unicode="&#xba;" horiz-adv-x="592" d="M50 569q0 27 4.5 65.5t14.5 79.5t28 81.5t45.5 73t64.5 52t88 19.5q21 0 35.5 -6t26 -16.5t20 -23.5t19.5 -29q17 -45 33.5 -99t25.5 -109t6.5 -108t-23 -97.5t-64.5 -77.5t-118 -48q-57 0 -96.5 24t-63.5 59.5t-35 78t-11 81.5zM96 588q0 -31 6 -69t24.5 -73t50 -58.5 t80.5 -23.5q65 9 103.5 48.5t53.5 94.5t9.5 118.5t-26.5 118.5t-53.5 94.5t-72.5 48.5q-37 0 -64.5 -16.5t-46.5 -42.5t-31.5 -59t-20 -66t-10 -63.5t-2.5 -51.5z" />
<glyph unicode="&#xbb;" horiz-adv-x="1208" d="M52 1020q8 34 38 37t54 3q24 2 63 -12t85 -36t97 -49t98 -52t87 -45t64 -28q4 -2 20 -7t35 -11t35 -11t20 -7q4 -4 7 -13t-8 -33t-40 -67t-88 -115t-152 -178t-233 -254q-6 -2 -12 -2q-4 -2 -10 -2h-8q-24 0 -46 6t-32 36q162 116 274 249t200 299zM404 1076q8 34 38 37 t54 3t63 -13t85 -35t97 -49t98 -52t87 -45t64 -28q4 -2 20 -7t35 -11t35 -11t20 -7q4 -4 7 -13t-8 -33t-40 -67t-88 -115t-152 -178t-233 -254q-6 -2 -12 -2q-4 -2 -10 -2h-8q-24 0 -46 6t-32 36q162 116 274 249t200 299z" />
<glyph unicode="&#xbc;" horiz-adv-x="1712" d="M32 1157l348 123h57q-1 -100 -18.5 -197.5t-36 -196t-28.5 -197t2 -198.5q12 1 43.5 3.5t67.5 5t67.5 5t44.5 3.5q2 0 12.5 0.5t12.5 0.5v-36l-497 -35q-11 -1 -17.5 6.5t-10 18t-5 19t-1.5 9.5h208q14 94 25.5 180t22.5 172t23.5 176t27.5 191l-24 17 q-103 -32 -160.5 -50.5t-85 -27t-34 -10t-7.5 -1.5q-13 0 -21.5 4.5t-15.5 14.5zM296 14l1024 1756q20 34 47 42t63 8v-50l-1088 -1800zM739 430l318 543q9 17 27.5 20t40.5 3q31 0 48.5 -7.5t17.5 -37.5v-456h371l33 -22l-33 -22h-338v-435h-66q-15 9 -20.5 39t-6.5 72.5 t2 90t3 90.5t-3.5 77t-15.5 47zM887 495l208 4q0 38 5.5 84t9.5 95.5t1 97t-21 89.5q-24 -29 -47 -65t-43.5 -75.5t-38 -77.5t-32 -70t-26 -54t-16.5 -28z" />
<glyph unicode="&#xbd;" horiz-adv-x="1792" d="M34 1274l377 144h61q-1 -117 -20 -231.5t-39 -229.5t-31 -230t2 -233q13 1 47 3.5t73 6t73.5 6.5t48.5 4q2 0 13.5 0.5t13.5 0.5v-41l-538 -42q-12 -1 -19.5 8t-11 20.5t-5 22t-1.5 11.5h225q15 110 27.5 211t24 201.5t25.5 206t31 223.5l-27 20q-112 -38 -174 -59.5 t-92 -31.5t-36.5 -11.5t-8.5 -1.5q-14 0 -23 5t-16 17zM272 -50l1024 1756q20 34 47 42t63 8v-50l-1088 -1800zM819 850q0 37 22.5 80.5t58.5 80t82 61.5t92 25q78 -24 140 -68.5t96.5 -130.5t34.5 -223.5t-48 -346.5q0 -7 13 -12t30.5 -9t37 -5t31.5 3q28 6 40 19t21 25.5 t20 22t35 9.5q0 -18 -8 -39.5t-23.5 -40.5t-36 -32t-45.5 -13q-38 0 -70.5 7t-71.5 18q-10 -25 -34.5 -68t-58.5 -85t-75.5 -72.5t-84.5 -30.5q-29 0 -50.5 12t-36 30.5t-21.5 40t-7 40.5q0 59 29 97t76.5 61t109 32.5t124.5 12.5q16 53 27.5 118t14 133t-7.5 136t-36 128.5 t-69.5 107.5t-109.5 75q-49 0 -86.5 -29t-63.5 -69t-41.5 -83.5t-19.5 -74.5q-16 18 -23 28.5t-7 28.5zM957 165q0 -14 1 -28.5t6.5 -27.5t17.5 -23t35 -14q37 -8 70 16.5t59 60.5t43.5 73.5t23.5 58.5q-5 0 -14.5 0.5t-20.5 0.5h-21h-14q-36 0 -69 -6t-59 -19t-42 -36 t-16 -56z" />
<glyph unicode="&#xbe;" horiz-adv-x="1840" d="M31 1317q0 49 40.5 99t99 90.5t121.5 66.5t107 26q58 0 77 -33t19 -82q0 -61 -20.5 -129t-51.5 -134t-67.5 -127.5t-65.5 -111.5q124 35 198.5 38.5t116 -8.5t57 -30t20.5 -25q7 -46 2.5 -103.5t-20 -117.5t-43 -118.5t-66 -105t-88 -78t-109.5 -38.5q-52 0 -68 8.5 t-16 38.5q0 21 8 44t22.5 43.5t35.5 33.5t44 13q3 0 13.5 -0.5t13.5 -1.5q-37 -46 -49 -72t-12 -38.5t8.5 -15.5t11.5 -3q45 0 83 21.5t67.5 56.5t50 80t34 90t20 88.5t6.5 76.5q15 35 2.5 56t-36 32t-52.5 14t-47 3q-51 0 -94 -6.5t-81.5 -19t-76 -33.5t-79.5 -50l-26 27 q48 54 101.5 120t97.5 139.5t72.5 150t28.5 152.5q-12 65 -47.5 86t-80 10.5t-91.5 -45.5t-83.5 -80t-55.5 -96t-8 -91q-13 0 -21 10t-13 24t-7.5 29.5t-2.5 25.5zM352 -18l1024 1756q20 34 47 42t63 8v-50l-1088 -1800zM870 570l290 680q8 22 25 26t37 4q28 0 44 -10 t16 -47v-571h338l30 -29l-30 -26h-307v-545h-61q-13 10 -18 48t-6 91t1.5 112.5t2.5 114t-3.5 96.5t-13.5 59zM1005 652l190 4q0 48 5 106t8.5 119.5t1 121.5t-19.5 112q-22 -36 -43 -81.5t-39.5 -94.5t-34.5 -96.5t-29.5 -88t-23.5 -68t-15 -34.5z" />
<glyph unicode="&#xbf;" horiz-adv-x="840" d="M117 322q5 100 32 209t72 218t104 200t131 154t150 79v-42q-76 -64 -150 -157t-135 -198t-101 -213t-48 -204t23 -170t111 -110q78 0 159 39t147 101t109 139t43 151h48q0 -100 -42 -193t-112 -164t-164 -114t-200 -43q-30 0 -56 14t-47 35t-36 47t-25 52q-18 70 -13 170 zM594 1754q0 12 1 30t6 36t15 32t28 20q38 -18 38 -54t-29 -50t-59 -14z" />
<glyph unicode="&#xc0;" horiz-adv-x="1112" d="M16 14q4 18 17 63t30 102t35 120t35 121t30 102t19 64h-118q0 28 16 48t40 32t51 19t47 11q8 20 28 64t45 98t53 114t54 113t47 96t31 63q18 32 47 82t58 97t51 80t26 33h74l132 -766q54 -6 97 19t99 53l-12 -130l-194 -50q22 -144 43 -302t31 -304q0 -24 -13 -32t-75 12 q-2 56 -7 135t-13 165t-21 171t-31 151q-54 10 -120 6t-134 -17t-135 -30t-123 -31q-14 -40 -31 -125t-37 -178t-45 -174t-55 -109q0 2 -11 4t-25 4t-25 4zM310 694q114 12 229 34t229 58q0 66 -4 148t-16 169t-33 170t-57 153q-50 -82 -98 -178t-93 -193t-85 -190t-72 -171 zM568 1910q4 10 17 38t21 36l178 -264l-80 -8q-16 16 -41 36t-48 44t-38 54t-9 64z" />
<glyph unicode="&#xc1;" horiz-adv-x="1112" d="M16 14q4 18 17 63t30 102t35 120t35 121t30 102t19 64h-118q0 28 16 48t40 32t51 19t47 11q8 20 28 64t45 98t53 114t54 113t47 96t31 63q18 32 47 82t58 97t51 80t26 33h74l132 -766q54 -6 97 19t99 53l-12 -130l-194 -50q22 -144 43 -302t31 -304q0 -24 -13 -32t-75 12 q-2 56 -7 135t-13 165t-21 171t-31 151q-54 10 -120 6t-134 -17t-135 -30t-123 -31q-14 -40 -31 -125t-37 -178t-45 -174t-55 -109q0 2 -11 4t-25 4t-25 4zM310 694q114 12 229 34t229 58q0 66 -4 148t-16 169t-33 170t-57 153q-50 -82 -98 -178t-93 -193t-85 -190t-72 -171 zM544 1688l190 248q8 -8 22 -34t18 -36q6 -32 -9 -60t-40 -51t-52 -42t-43 -33z" />
<glyph unicode="&#xc2;" horiz-adv-x="1112" d="M16 14q4 18 17 63t30 102t35 120t35 121t30 102t19 64h-118q0 28 16 48t40 32t51 19t47 11q8 20 28 64t45 98t53 114t54 113t47 96t31 63q18 32 47 82t58 97t51 80t26 33h74l132 -766q54 -6 97 19t99 53l-12 -130l-194 -50q22 -144 43 -302t31 -304q0 -24 -13 -32t-75 12 q-2 56 -7 135t-13 165t-21 171t-31 151q-54 10 -120 6t-134 -17t-135 -30t-123 -31q-14 -40 -31 -125t-37 -178t-45 -174t-55 -109q0 2 -11 4t-25 4t-25 4zM310 694q114 12 229 34t229 58q0 66 -4 148t-16 169t-33 170t-57 153q-50 -82 -98 -178t-93 -193t-85 -190t-72 -171 zM468 1584q14 28 37 59t47 63t45 63t35 61q6 12 12 37t15 50t24 43t41 18q30 0 37 -20t17 -54q22 -70 51 -123t54 -89t43 -55t16 -19l-74 -74l-162 250q-24 -32 -48 -69t-50 -69t-56 -53t-66 -21h-9t-9 2z" />
<glyph unicode="&#xc3;" horiz-adv-x="1112" d="M16 14q4 18 17 63t30 102t35 120t35 121t30 102t19 64h-118q0 28 16 48t40 32t51 19t47 11q8 20 28 64t45 98t53 114t54 113t47 96t31 63q18 32 47 82t58 97t51 80t26 33h74l132 -766q54 -6 97 19t99 53l-12 -130l-194 -50q22 -144 43 -302t31 -304q0 -24 -13 -32t-75 12 q-2 56 -7 135t-13 165t-21 171t-31 151q-54 10 -120 6t-134 -17t-135 -30t-123 -31q-14 -40 -31 -125t-37 -178t-45 -174t-55 -109q0 2 -11 4t-25 4t-25 4zM256 1736q0 122 71 179t185 69q60 6 95 -12t55 -49t30 -67t22 -65t30 -44t56 -3t60 31t42 46t44 59t70 72l80 -48 q-124 -140 -203 -195t-128 -55t-75 39t-46 86t-41 86t-59 39q-60 0 -98 -14t-61 -41t-36 -66t-21 -87q-28 10 -50 14t-22 26zM310 694q114 12 229 34t229 58q0 66 -4 148t-16 169t-33 170t-57 153q-50 -82 -98 -178t-93 -193t-85 -190t-72 -171z" />
<glyph unicode="&#xc4;" horiz-adv-x="1112" d="M16 14q4 18 17 63t30 102t35 120t35 121t30 102t19 64h-118q0 28 16 48t40 32t51 19t47 11q8 20 28 64t45 98t53 114t54 113t47 96t31 63q18 32 47 82t58 97t51 80t26 33h74l132 -766q54 -6 97 19t99 53l-12 -130l-194 -50q22 -144 43 -302t31 -304q0 -24 -13 -32t-75 12 q-2 56 -7 135t-13 165t-21 171t-31 151q-54 10 -120 6t-134 -17t-135 -30t-123 -31q-14 -40 -31 -125t-37 -178t-45 -174t-55 -109q0 2 -11 4t-25 4t-25 4zM310 694q114 12 229 34t229 58q0 66 -4 148t-16 169t-33 170t-57 153q-50 -82 -98 -178t-93 -193t-85 -190t-72 -171 zM476 1756q0 24 13 38t33 20t41 8t37 2q0 -16 1 -42t-2 -51t-14 -43t-35 -18q-12 0 -25 9t-24 23t-18 28t-7 26zM800 1756q0 24 13 38t33 20t41 8t37 2q0 -16 1 -42t-2 -51t-14 -43t-35 -18q-12 0 -25 9t-24 23t-18 28t-7 26z" />
<glyph unicode="&#xc5;" horiz-adv-x="1112" d="M16 14q4 18 17 63t30 102t35 120t35 121t30 102t19 64h-118q0 28 16 48t40 32t51 19t47 11q8 20 28 64t45 98t53 114t54 113t47 96t31 63q18 32 47 82t58 97t51 80t26 33h74l132 -766q54 -6 97 19t99 53l-12 -130l-194 -50q22 -144 43 -302t31 -304q0 -24 -13 -32t-75 12 q-2 56 -7 135t-13 165t-21 171t-31 151q-54 10 -120 6t-134 -17t-135 -30t-123 -31q-14 -40 -31 -125t-37 -178t-45 -174t-55 -109q0 2 -11 4t-25 4t-25 4zM310 694q114 12 229 34t229 58q0 66 -4 148t-16 169t-33 170t-57 153q-50 -82 -98 -178t-93 -193t-85 -190t-72 -171 zM456 1680q-2 48 21 87t60 64t82 37t89 5t80 -33t56 -76q40 -76 26 -135t-58 -96t-106 -50t-119 3t-96 63t-35 131zM508 1710q0 -44 4 -76t20 -52t48 -29t88 -9q88 32 116 75t19 82t-48 69t-86 37t-92 -14t-69 -83z" />
<glyph unicode="&#xc6;" horiz-adv-x="1872" d="M16 14q4 18 17 63t30 102t35 120t35 121t30 102t19 64h-118q0 28 16 48t40 32t51 19t47 11q8 20 28 64t45 98t53 114t54 113t47 96t31 63q18 32 50 82t82 97t115 80t149 33l-2 -116q54 54 133 77t163 34t167 17t147 28q24 16 31 -6t3 -50t-17 -50t-33 -6q-4 2 -18 3 t-32 3t-35 3t-25 1q-58 0 -108 -5t-98 -18t-95 -37t-101 -60q-10 -138 -25 -274t-9 -276h34l82 24q6 4 12 7l14 7l-2 -6l734 224h74q-96 -60 -202 -98t-217 -69t-221 -63t-212 -80l-100 -56v-41t-1 -60t-1 -59v-40q0 -34 -1 -98t10 -128t42 -112t95 -48q62 0 141 27t158 70 t147 95t106 102v-110q0 -2 -23 -18t-61 -39t-86 -50t-97 -55t-94 -53t-77 -41q-8 -4 -29 -10t-45 -12t-45 -10t-29 -4q-58 0 -96 52q0 -22 -14 -29t-74 13q-2 56 -7 135t-13 165t-21 171t-31 151q-54 10 -120 6t-134 -17t-135 -30t-123 -31q-14 -40 -31 -125t-37 -178 t-45 -174t-55 -109q0 2 -11 4t-25 4t-25 4zM310 694q108 10 214 30t214 52q10 10 28 16q-4 54 3 124t14 153t6 177t-21 194q-62 -32 -130 -119t-131 -196t-115 -225t-82 -206z" />
<glyph unicode="&#xc7;" horiz-adv-x="902" d="M-6 507q-10 129 12 265t72 268t122 242t166 189t202 109q38 0 87 -31t92 -72t72 -82t29 -59q0 -8 -7 -25t-15 -37t-15 -37t-7 -25q-2 14 -31 55t-71 86t-88 80t-80 35q-154 -82 -255 -213t-152 -280t-56 -301t32 -276t111 -207t182 -94t246 65t302 270l8 -10t17 -22 t16 -22l7 -10q0 -38 -35 -80t-90 -83t-124 -77t-136 -63t-125 -43t-94 -16q-128 20 -211 91t-128 176t-55 234zM228 -352q0 10 5 31t11 42t13 37t13 16q0 -48 13 -91t41 -74t72 -49t108 -18q32 0 51 15t29 37t13 48t3 48q-16 26 -43 36t-59 18t-63 22t-54 50t-36 102t-5 178 l88 -8q-18 -78 -11 -127t28 -79t53 -49t65 -38t62 -45t47 -70q0 -40 -8 -78t-27 -68t-50 -48t-79 -18q-54 0 -105 8t-90 28t-62 55t-23 89z" />
<glyph unicode="&#xc8;" horiz-adv-x="1008" d="M56 752q0 22 17 30t38 14t39 15t20 31l38 510l-84 -72q18 78 61 125t101 74t127 39t140 19t137 14t118 25q24 16 31 -6t3 -50t-17 -50t-33 -6q-4 2 -18 3t-32 3t-35 3t-25 1q-58 0 -108 -5t-98 -18t-95 -37t-101 -60q-10 -138 -25 -274t-9 -276h34l840 256h74 q-108 -68 -229 -108t-246 -74t-247 -74t-230 -108v-41t-1 -61t-1 -60v-40q0 -34 -1 -98t10 -128t42 -112t95 -48q62 0 141 27t158 70t147 95t106 102v-110q0 -2 -23 -18t-61 -39t-86 -50t-97 -55t-94 -53t-77 -41q-8 -4 -29 -10t-45 -12t-45 -10t-29 -4q-48 0 -81 35t-54 82 t-32 96t-15 79q-4 20 -9 73t-11 111t-11 110t-5 72q-22 16 -50 38t-28 56zM340 1862q4 10 17 38t21 36l178 -264l-80 -8q-16 16 -41 36t-48 44t-38 54t-9 64z" />
<glyph unicode="&#xc9;" horiz-adv-x="1008" d="M56 752q0 22 17 30t38 14t39 15t20 31l38 510l-84 -72q18 78 61 125t101 74t127 39t140 19t137 14t118 25q24 16 31 -6t3 -50t-17 -50t-33 -6q-4 2 -18 3t-32 3t-35 3t-25 1q-58 0 -108 -5t-98 -18t-95 -37t-101 -60q-10 -138 -25 -274t-9 -276h34l840 256h74 q-108 -68 -229 -108t-246 -74t-247 -74t-230 -108v-41t-1 -61t-1 -60v-40q0 -34 -1 -98t10 -128t42 -112t95 -48q62 0 141 27t158 70t147 95t106 102v-110q0 -2 -23 -18t-61 -39t-86 -50t-97 -55t-94 -53t-77 -41q-8 -4 -29 -10t-45 -12t-45 -10t-29 -4q-48 0 -81 35t-54 82 t-32 96t-15 79q-4 20 -9 73t-11 111t-11 110t-5 72q-22 16 -50 38t-28 56zM364 1696l190 248q8 -8 22 -34t18 -36q6 -32 -9 -60t-40 -51t-52 -42t-43 -33z" />
<glyph unicode="&#xca;" horiz-adv-x="1008" d="M56 752q0 22 17 30t38 14t39 15t20 31l38 510l-84 -72q18 78 61 125t101 74t127 39t140 19t137 14t118 25q24 16 31 -6t3 -50t-17 -50t-33 -6q-4 2 -18 3t-32 3t-35 3t-25 1q-58 0 -108 -5t-98 -18t-95 -37t-101 -60q-10 -138 -25 -274t-9 -276h34l840 256h74 q-108 -68 -229 -108t-246 -74t-247 -74t-230 -108v-41t-1 -61t-1 -60v-40q0 -34 -1 -98t10 -128t42 -112t95 -48q62 0 141 27t158 70t147 95t106 102v-110q0 -2 -23 -18t-61 -39t-86 -50t-97 -55t-94 -53t-77 -41q-8 -4 -29 -10t-45 -12t-45 -10t-29 -4q-48 0 -81 35t-54 82 t-32 96t-15 79q-4 20 -9 73t-11 111t-11 110t-5 72q-22 16 -50 38t-28 56zM240 1720q14 28 37 59t47 63t45 63t35 61q6 12 12 37t15 50t24 43t41 18q30 0 37 -20t17 -54q22 -70 51 -123t54 -89t43 -55t16 -19l-74 -74l-162 250q-24 -32 -48 -69t-50 -69t-56 -53t-66 -21h-9 t-9 2z" />
<glyph unicode="&#xcb;" horiz-adv-x="1008" d="M56 752q0 22 17 30t38 14t39 15t20 31l38 510l-84 -72q18 78 61 125t101 74t127 39t140 19t137 14t118 25q24 16 31 -6t3 -50t-17 -50t-33 -6q-4 2 -18 3t-32 3t-35 3t-25 1q-58 0 -108 -5t-98 -18t-95 -37t-101 -60q-10 -138 -25 -274t-9 -276h34l840 256h74 q-108 -68 -229 -108t-246 -74t-247 -74t-230 -108v-41t-1 -61t-1 -60v-40q0 -34 -1 -98t10 -128t42 -112t95 -48q62 0 141 27t158 70t147 95t106 102v-110q0 -2 -23 -18t-61 -39t-86 -50t-97 -55t-94 -53t-77 -41q-8 -4 -29 -10t-45 -12t-45 -10t-29 -4q-48 0 -81 35t-54 82 t-32 96t-15 79q-4 20 -9 73t-11 111t-11 110t-5 72q-22 16 -50 38t-28 56zM296 1836q0 24 13 38t33 20t41 8t37 2q0 -16 1 -42t-2 -51t-14 -43t-35 -18q-12 0 -25 9t-24 23t-18 28t-7 26zM620 1836q0 24 13 38t33 20t41 8t37 2q0 -16 1 -42t-2 -51t-14 -43t-35 -18 q-12 0 -25 9t-24 23t-18 28t-7 26z" />
<glyph unicode="&#xcc;" horiz-adv-x="1158" d="M48 1170q18 40 90 74t162 58t178 38t138 14q20 0 60 -2t79 -6t68 -11t29 -17v-38h-328q-18 0 -26 -10t-11 -24t-2 -28t1 -22q0 -10 1 -34t1 -28q4 -68 11 -162t15 -195t16 -201t14 -179t11 -128l5 -49l36 -38h512q-24 -4 -86 -13t-132 -21t-133 -22t-87 -16 q-8 -2 -36 -16t-38 -20q-4 -2 -14 -14t-22 -25t-22 -24t-14 -11t-14 5t-23 12t-24 13t-13 6q-12 2 -43 2h-66h-67t-44 -2l38 92h214q2 42 4 78q2 32 2 66v58q-6 122 -13 231t-18 214t-29 211t-50 222h-38q-34 0 -64 -12t-58 -26t-57 -26t-59 -12q-20 0 -31 8t-23 30z M366 1822q4 10 17 38t21 36l178 -264l-80 -8q-16 16 -41 36t-48 44t-38 54t-9 64z" />
<glyph unicode="&#xcd;" horiz-adv-x="1158" d="M48 1170q18 40 90 74t162 58t178 38t138 14q20 0 60 -2t79 -6t68 -11t29 -17v-38h-328q-18 0 -26 -10t-11 -24t-2 -28t1 -22q0 -10 1 -34t1 -28q4 -68 11 -162t15 -195t16 -201t14 -179t11 -128l5 -49l36 -38h512q-24 -4 -86 -13t-132 -21t-133 -22t-87 -16 q-8 -2 -36 -16t-38 -20q-4 -2 -14 -14t-22 -25t-22 -24t-14 -11t-14 5t-23 12t-24 13t-13 6q-12 2 -43 2h-66h-67t-44 -2l38 92h214q2 42 4 78q2 32 2 66v58q-6 122 -13 231t-18 214t-29 211t-50 222h-38q-34 0 -64 -12t-58 -26t-57 -26t-59 -12q-20 0 -31 8t-23 30z M366 1512l190 248q8 -8 22 -34t18 -36q6 -32 -9 -60t-40 -51t-52 -42t-43 -33z" />
<glyph unicode="&#xce;" horiz-adv-x="1158" d="M48 1170q18 40 90 74t162 58t178 38t138 14q20 0 60 -2t79 -6t68 -11t29 -17v-38h-328q-18 0 -26 -10t-11 -24t-2 -28t1 -22q0 -10 1 -34t1 -28q4 -68 11 -162t15 -195t16 -201t14 -179t11 -128l5 -49l36 -38h512q-24 -4 -86 -13t-132 -21t-133 -22t-87 -16 q-8 -2 -36 -16t-38 -20q-4 -2 -14 -14t-22 -25t-22 -24t-14 -11t-14 5t-23 12t-24 13t-13 6q-12 2 -43 2h-66h-67t-44 -2l38 92h214q2 42 4 78q2 32 2 66v58q-6 122 -13 231t-18 214t-29 211t-50 222h-38q-34 0 -64 -12t-58 -26t-57 -26t-59 -12q-20 0 -31 8t-23 30z M228 1552q14 28 37 59t47 63t45 63t35 61q6 12 12 37t15 50t24 43t41 18q30 0 37 -20t17 -54q22 -70 51 -123t54 -89t43 -55t16 -19l-74 -74l-162 250q-24 -32 -48 -69t-50 -69t-56 -53t-66 -21h-9t-9 2z" />
<glyph unicode="&#xcf;" horiz-adv-x="1158" d="M48 1170q18 40 90 74t162 58t178 38t138 14q20 0 60 -2t79 -6t68 -11t29 -17v-38h-328q-18 0 -26 -10t-11 -24t-2 -28t1 -22q0 -10 1 -34t1 -28q4 -68 11 -162t15 -195t16 -201t14 -179t11 -128l5 -49l36 -38h512q-24 -4 -86 -13t-132 -21t-133 -22t-87 -16 q-8 -2 -36 -16t-38 -20q-4 -2 -14 -14t-22 -25t-22 -24t-14 -11t-14 5t-23 12t-24 13t-13 6q-12 2 -43 2h-66h-67t-44 -2l38 92h214q2 42 4 78q2 32 2 66v58q-6 122 -13 231t-18 214t-29 211t-50 222h-38q-34 0 -64 -12t-58 -26t-57 -26t-59 -12q-20 0 -31 8t-23 30z M308 1692q0 24 13 38t33 20t41 8t37 2q0 -16 1 -42t-2 -51t-14 -43t-35 -18q-12 0 -25 9t-24 23t-18 28t-7 26zM632 1692q0 24 13 38t33 20t41 8t37 2q0 -16 1 -42t-2 -51t-14 -43t-35 -18q-12 0 -25 9t-24 23t-18 28t-7 26z" />
<glyph unicode="&#xd0;" horiz-adv-x="976" d="M-30 544v38q0 2 17 7t40 11t48 12t41 8q10 2 30 4t46 4l-64 492q-12 12 -27 3t-28 -21t-20 -18t-5 14q-4 84 50 154t138 118t186 70t197 10t169 -61t102 -145q50 -98 68 -224t8 -258t-49 -260t-104 -233t-156 -178t-205 -93q-18 0 -48 3t-59 11t-51 23t-26 39l-66 482 q-52 -4 -95 -7t-63 -3q-10 -2 -37 -2h-37zM194 1208q38 -120 56 -266t34 -304q72 6 140 11t96 7q38 -20 38 -56v-8t-2 -10q-30 -4 -105 -9t-159 -11q12 -112 25 -223t35 -219q98 -34 180 -5t146 101t108 176t66 223t20 241t-31 228t-87 188t-146 120q-126 0 -224 -36 t-190 -112v-36z" />
<glyph unicode="&#xd1;" horiz-adv-x="1134" d="M60 1024v62q0 46 2 81t6 71t11 79t17 109q4 2 19 3t19 1q22 0 42 -5t30 -35q76 -154 151 -303t160 -288t187 -267t234 -240l36 38q2 6 3 40t3 76t3 83t1 65q0 118 -13 234t-29 231t-29 230t-13 231q0 62 23 105t95 43q0 -40 -9 -67t-35 -65q28 -146 44 -254t23 -205 t9 -197t2 -230v-83t-1 -104t-2 -90t-1 -43q0 -22 -5 -53t-11 -60t-12 -50t-8 -21h-74l-220 220q-2 2 -30 46t-73 114t-101 157t-112 176t-108 171t-88 140q-2 2 -7 14t-11 24t-11 23t-7 13q-4 4 -14 -5t-14 -9q0 -262 16 -518t16 -516q0 -16 -1 -42t-1 -52t-1 -45t-1 -21 l-36 -36l-38 36l-2 53t-5 138t-7 193t-8 218t-8 211t-6 175zM122 1736q0 122 71 179t185 69q60 6 95 -12t55 -49t30 -67t22 -65t30 -44t56 -3t60 31t42 46t44 59t70 72l80 -48q-124 -140 -203 -195t-128 -55t-75 39t-46 86t-41 86t-59 39q-60 0 -98 -14t-61 -41t-36 -66 t-21 -87q-28 10 -50 14t-22 26z" />
<glyph unicode="&#xd2;" horiz-adv-x="976" d="M46 586q0 64 11 157t35 195t62 203t92 182t124 131t160 50q84 -26 149 -100t112 -178t73 -228t30 -248q14 -70 10 -154t-25 -168t-60 -163t-95 -139t-129 -95t-161 -33q-106 0 -180 61t-120 151t-67 192t-21 184zM118 614q0 -82 11 -171t45 -164t96 -123t162 -48 q156 20 245 104t128 203t34 258t-38 268t-87 235t-114 158q0 52 -24 75t-72 23q-72 0 -129 -48t-100 -123t-73 -169t-49 -185t-27 -169t-8 -124zM356 1846q4 10 17 38t21 36l178 -264l-80 -8q-16 16 -41 36t-48 44t-38 54t-9 64z" />
<glyph unicode="&#xd3;" horiz-adv-x="976" d="M46 586q0 64 11 157t35 195t62 203t92 182t124 131t160 50q84 -26 149 -100t112 -178t73 -228t30 -248q14 -70 10 -154t-25 -168t-60 -163t-95 -139t-129 -95t-161 -33q-106 0 -180 61t-120 151t-67 192t-21 184zM118 614q0 -82 11 -171t45 -164t96 -123t162 -48 q156 20 245 104t128 203t34 258t-38 268t-87 235t-114 158q0 52 -24 75t-72 23q-72 0 -129 -48t-100 -123t-73 -169t-49 -185t-27 -169t-8 -124zM388 1640l190 248q8 -8 22 -34t18 -36q6 -32 -9 -60t-40 -51t-52 -42t-43 -33z" />
<glyph unicode="&#xd4;" horiz-adv-x="976" d="M46 586q0 64 11 157t35 195t62 203t92 182t124 131t160 50q84 -26 149 -100t112 -178t73 -228t30 -248q14 -70 10 -154t-25 -168t-60 -163t-95 -139t-129 -95t-161 -33q-106 0 -180 61t-120 151t-67 192t-21 184zM118 614q0 -82 11 -171t45 -164t96 -123t162 -48 q156 20 245 104t128 203t34 258t-38 268t-87 235t-114 158q0 52 -24 75t-72 23q-72 0 -129 -48t-100 -123t-73 -169t-49 -185t-27 -169t-8 -124zM248 1608q14 28 37 59t47 63t45 63t35 61q6 12 12 37t15 50t24 43t41 18q30 0 37 -20t17 -54q22 -70 51 -123t54 -89t43 -55 t16 -19l-74 -74l-162 250q-24 -32 -48 -69t-50 -69t-56 -53t-66 -21h-9t-9 2z" />
<glyph unicode="&#xd5;" horiz-adv-x="976" d="M46 586q0 64 11 157t35 195t62 203t92 182t124 131t160 50q84 -26 149 -100t112 -178t73 -228t30 -248q14 -70 10 -154t-25 -168t-60 -163t-95 -139t-129 -95t-161 -33q-106 0 -180 61t-120 151t-67 192t-21 184zM68 1640q0 122 71 179t185 69q60 6 95 -12t55 -49t30 -67 t22 -65t30 -44t56 -3t60 31t42 46t44 59t70 72l80 -48q-124 -140 -203 -195t-128 -55t-75 39t-46 86t-41 86t-59 39q-60 0 -98 -14t-61 -41t-36 -66t-21 -87q-28 10 -50 14t-22 26zM118 614q0 -82 11 -171t45 -164t96 -123t162 -48q156 20 245 104t128 203t34 258t-38 268 t-87 235t-114 158q0 52 -24 75t-72 23q-72 0 -129 -48t-100 -123t-73 -169t-49 -185t-27 -169t-8 -124z" />
<glyph unicode="&#xd6;" horiz-adv-x="976" d="M46 586q0 64 11 157t35 195t62 203t92 182t124 131t160 50q84 -26 149 -100t112 -178t73 -228t30 -248q14 -70 10 -154t-25 -168t-60 -163t-95 -139t-129 -95t-161 -33q-106 0 -180 61t-120 151t-67 192t-21 184zM118 614q0 -82 11 -171t45 -164t96 -123t162 -48 q156 20 245 104t128 203t34 258t-38 268t-87 235t-114 158q0 52 -24 75t-72 23q-72 0 -129 -48t-100 -123t-73 -169t-49 -185t-27 -169t-8 -124zM208 1812q0 24 13 38t33 20t41 8t37 2q0 -16 1 -42t-2 -51t-14 -43t-35 -18q-12 0 -25 9t-24 23t-18 28t-7 26zM532 1812 q0 24 13 38t33 20t41 8t37 2q0 -16 1 -42t-2 -51t-14 -43t-35 -18q-12 0 -25 9t-24 23t-18 28t-7 26z" />
<glyph unicode="&#xd7;" horiz-adv-x="1706" />
<glyph unicode="&#xd8;" horiz-adv-x="976" d="M-9 28l887 1382q17 27 40.5 33.5t54.5 6.5v-40l-942 -1416zM46 586q0 64 11 157t35 195t62 203t92 182t124 131t160 50q84 -26 149 -100t112 -178t73 -228t30 -248q14 -70 10 -154t-25 -168t-60 -163t-95 -139t-129 -95t-161 -33q-106 0 -180 61t-120 151t-67 192 t-21 184zM118 614q0 -82 11 -171t45 -164t96 -123t162 -48q156 20 245 104t128 203t34 258t-38 268t-87 235t-114 158q0 52 -24 75t-72 23q-72 0 -129 -48t-100 -123t-73 -169t-49 -185t-27 -169t-8 -124z" />
<glyph unicode="&#xd9;" d="M58 846q0 90 2 165t6 150t12 156t18 183h78q0 -76 -7 -152t-15 -151t-15 -151t-7 -152q0 -38 3 -110t13 -159t29 -179t52 -167t80 -123t115 -48q86 0 153 66t117 169t84 230t54 250t29 227t9 162q0 48 -12 99t-27 101t-27 96t-12 82q0 40 16 68t56 28q22 0 44 -5t32 -35 q0 -14 1 -48t1 -71v-71v-48q0 -68 -6 -198t-24 -287t-53 -321t-94 -298t-146 -220t-209 -86q-74 0 -129 53t-94 136t-64 184t-39 195t-19 170t-5 110zM368 2054q4 10 17 38t21 36l178 -264l-80 -8q-16 16 -41 36t-48 44t-38 54t-9 64z" />
<glyph unicode="&#xda;" d="M58 846q0 90 2 165t6 150t12 156t18 183h78q0 -76 -7 -152t-15 -151t-15 -151t-7 -152q0 -38 3 -110t13 -159t29 -179t52 -167t80 -123t115 -48q86 0 153 66t117 169t84 230t54 250t29 227t9 162q0 48 -12 99t-27 101t-27 96t-12 82q0 40 16 68t56 28q22 0 44 -5t32 -35 q0 -14 1 -48t1 -71v-71v-48q0 -68 -6 -198t-24 -287t-53 -321t-94 -298t-146 -220t-209 -86q-74 0 -129 53t-94 136t-64 184t-39 195t-19 170t-5 110zM360 1936l190 248q8 -8 22 -34t18 -36q6 -32 -9 -60t-40 -51t-52 -42t-43 -33z" />
<glyph unicode="&#xdb;" d="M58 846q0 90 2 165t6 150t12 156t18 183h78q0 -76 -7 -152t-15 -151t-15 -151t-7 -152q0 -38 3 -110t13 -159t29 -179t52 -167t80 -123t115 -48q86 0 153 66t117 169t84 230t54 250t29 227t9 162q0 48 -12 99t-27 101t-27 96t-12 82q0 40 16 68t56 28q22 0 44 -5t32 -35 q0 -14 1 -48t1 -71v-71v-48q0 -68 -6 -198t-24 -287t-53 -321t-94 -298t-146 -220t-209 -86q-74 0 -129 53t-94 136t-64 184t-39 195t-19 170t-5 110zM244 1840q14 28 37 59t47 63t45 63t35 61q6 12 12 37t15 50t24 43t41 18q30 0 37 -20t17 -54q22 -70 51 -123t54 -89 t43 -55t16 -19l-74 -74l-162 250q-24 -32 -48 -69t-50 -69t-56 -53t-66 -21h-9t-9 2z" />
<glyph unicode="&#xdc;" d="M58 846q0 90 2 165t6 150t12 156t18 183h78q0 -76 -7 -152t-15 -151t-15 -151t-7 -152q0 -38 3 -110t13 -159t29 -179t52 -167t80 -123t115 -48q86 0 153 66t117 169t84 230t54 250t29 227t9 162q0 48 -12 99t-27 101t-27 96t-12 82q0 40 16 68t56 28q22 0 44 -5t32 -35 q0 -14 1 -48t1 -71v-71v-48q0 -68 -6 -198t-24 -287t-53 -321t-94 -298t-146 -220t-209 -86q-74 0 -129 53t-94 136t-64 184t-39 195t-19 170t-5 110zM236 1884q0 24 13 38t33 20t41 8t37 2q0 -16 1 -42t-2 -51t-14 -43t-35 -18q-12 0 -25 9t-24 23t-18 28t-7 26zM560 1884 q0 24 13 38t33 20t41 8t37 2q0 -16 1 -42t-2 -51t-14 -43t-35 -18q-12 0 -25 9t-24 23t-18 28t-7 26z" />
<glyph unicode="&#xdd;" horiz-adv-x="878" d="M36 1756q10 22 23 31t31 9q20 0 33 -9t23 -31q106 -486 366 -914l110 110q14 102 28 198q12 82 24 169l20 145v36q4 32 10 82t12 97t11 80l5 33h86l-234 -1756l-36 -36q-28 14 -33 23t-5 29q0 88 12 175t26 174t26 174t12 175q0 6 -1 27t-1 27q4 -46 -18 -62t-54 -16 q-4 0 -18 2t-18 4q-66 108 -137 232t-133 256t-108 268t-62 268zM402 1920l190 248q8 -8 22 -34t18 -36q6 -32 -9 -60t-40 -51t-52 -42t-43 -33z" />
<glyph unicode="&#xde;" horiz-adv-x="824" d="M78 -236l40 1858h76v-734q12 40 46 99t83 112t109 89t122 28q62 0 106 -45t72 -108t41 -132t13 -115q4 -58 0 -141t-18 -174t-41 -179t-70 -154t-104 -102t-141 -20q-32 0 -64 13t-59 36t-44 53t-17 64q0 28 9 46t27 46q2 -28 13 -60t29 -60t44 -47t58 -19q68 0 117 35 t82 91t53 126t30 142t13 137t3 113q-44 172 -94 250t-101 81t-100 -58t-93 -165t-78 -240t-54 -283t-24 -295t14 -276z" />
<glyph unicode="&#xdf;" horiz-adv-x="1296" d="M122 1436q172 98 299 145t217 58t146 -9t88 -57t44 -84t12 -89q0 -72 -34 -144t-82 -140t-98 -126t-82 -102q60 4 130 8t139 0t134 -19t114 -48t79 -87t30 -134q0 -154 -64 -285t-170 -227t-242 -150t-278 -54q-30 0 -72 2t-80 12t-65 33t-27 65q30 116 86 187t117 108 t117 45t88 -2q20 -6 10 -18t-39 -30t-70 -43t-85 -57t-84 -70t-64 -84q-14 -32 7 -48t54 -22t68 -6h53q132 0 253 44t213 126t146 198t54 260q-18 94 -81 146t-151 73t-192 13t-204 -34t-186 -68t-140 -90q-4 -34 -8 -110t-6 -173t-1 -203t7 -203t16 -172t26 -107l-104 -32 q-4 76 -9 209t-9 298t-7 349t-6 359t-5 329t-2 260zM192 1326l38 -548q72 -8 163 44t177 136t153 184t90 188t-11 150t-150 68q-20 0 -63 -9t-94 -24t-106 -36t-99 -46t-72 -52t-26 -55z" />
<glyph unicode="&#xe0;" horiz-adv-x="926" d="M48 464q0 62 10 138t31 156t55 155t83 133t113 94t148 36q72 0 117 -41t65 -111q16 -102 38 -219t47 -235t51 -228t50 -196q0 -24 -5 -43t-35 -29l-146 402q-6 -26 -22 -74t-42 -105t-58 -114t-68 -101t-76 -69t-80 -15q-86 0 -140 53t-84 128t-41 154t-11 131zM128 456 q0 -12 5 -49t15 -85t27 -99t41 -89t54 -57t70 -3q72 46 127 123t93 164t57 176t19 159q0 44 -2 113t-17 134t-49 112t-96 47q-66 0 -118 -34t-90 -89t-64 -124t-42 -141t-23 -140t-7 -118zM378 1574q4 10 17 38t21 36l178 -264l-80 -8q-16 16 -41 36t-48 44t-38 54t-9 64z " />
<glyph unicode="&#xe1;" horiz-adv-x="926" d="M48 464q0 62 10 138t31 156t55 155t83 133t113 94t148 36q72 0 117 -41t65 -111q16 -102 38 -219t47 -235t51 -228t50 -196q0 -24 -5 -43t-35 -29l-146 402q-6 -26 -22 -74t-42 -105t-58 -114t-68 -101t-76 -69t-80 -15q-86 0 -140 53t-84 128t-41 154t-11 131zM128 456 q0 -12 5 -49t15 -85t27 -99t41 -89t54 -57t70 -3q72 46 127 123t93 164t57 176t19 159q0 44 -2 113t-17 134t-49 112t-96 47q-66 0 -118 -34t-90 -89t-64 -124t-42 -141t-23 -140t-7 -118zM362 1336l190 248q8 -8 22 -34t18 -36q6 -32 -9 -60t-40 -51t-52 -42t-43 -33z" />
<glyph unicode="&#xe2;" horiz-adv-x="926" d="M48 464q0 62 10 138t31 156t55 155t83 133t113 94t148 36q72 0 117 -41t65 -111q16 -102 38 -219t47 -235t51 -228t50 -196q0 -24 -5 -43t-35 -29l-146 402q-6 -26 -22 -74t-42 -105t-58 -114t-68 -101t-76 -69t-80 -15q-86 0 -140 53t-84 128t-41 154t-11 131zM128 456 q0 -12 5 -49t15 -85t27 -99t41 -89t54 -57t70 -3q72 46 127 123t93 164t57 176t19 159q0 44 -2 113t-17 134t-49 112t-96 47q-66 0 -118 -34t-90 -89t-64 -124t-42 -141t-23 -140t-7 -118zM224 1328q14 28 37 59t47 63t45 63t35 61q6 12 12 37t15 50t24 43t41 18 q30 0 37 -20t17 -54q22 -70 51 -123t54 -89t43 -55t16 -19l-74 -74l-162 250q-24 -32 -48 -69t-50 -69t-56 -53t-66 -21h-9t-9 2z" />
<glyph unicode="&#xe3;" horiz-adv-x="926" d="M36 1346q0 122 71 179t185 69q60 6 95 -12t55 -49t30 -67t22 -65t30 -44t56 -3t60 31t42 46t44 59t70 72l80 -48q-124 -140 -203 -195t-128 -55t-75 39t-46 86t-41 86t-59 39q-60 0 -98 -14t-61 -41t-36 -66t-21 -87q-28 10 -50 14t-22 26zM48 464q0 62 10 138t31 156 t55 155t83 133t113 94t148 36q72 0 117 -41t65 -111q16 -102 38 -219t47 -235t51 -228t50 -196q0 -24 -5 -43t-35 -29l-146 402q-6 -26 -22 -74t-42 -105t-58 -114t-68 -101t-76 -69t-80 -15q-86 0 -140 53t-84 128t-41 154t-11 131zM128 456q0 -12 5 -49t15 -85t27 -99 t41 -89t54 -57t70 -3q72 46 127 123t93 164t57 176t19 159q0 44 -2 113t-17 134t-49 112t-96 47q-66 0 -118 -34t-90 -89t-64 -124t-42 -141t-23 -140t-7 -118z" />
<glyph unicode="&#xe4;" horiz-adv-x="926" d="M48 464q0 62 10 138t31 156t55 155t83 133t113 94t148 36q72 0 117 -41t65 -111q16 -102 38 -219t47 -235t51 -228t50 -196q0 -24 -5 -43t-35 -29l-146 402q-6 -26 -22 -74t-42 -105t-58 -114t-68 -101t-76 -69t-80 -15q-86 0 -140 53t-84 128t-41 154t-11 131zM128 456 q0 -12 5 -49t15 -85t27 -99t41 -89t54 -57t70 -3q72 46 127 123t93 164t57 176t19 159q0 44 -2 113t-17 134t-49 112t-96 47q-66 0 -118 -34t-90 -89t-64 -124t-42 -141t-23 -140t-7 -118zM232 1380q0 24 13 38t33 20t41 8t37 2q0 -16 1 -42t-2 -51t-14 -43t-35 -18 q-12 0 -25 9t-24 23t-18 28t-7 26zM556 1380q0 24 13 38t33 20t41 8t37 2q0 -16 1 -42t-2 -51t-14 -43t-35 -18q-12 0 -25 9t-24 23t-18 28t-7 26z" />
<glyph unicode="&#xe5;" horiz-adv-x="926" d="M48 464q0 62 10 138t31 156t55 155t83 133t113 94t148 36q72 0 117 -41t65 -111q16 -102 38 -219t47 -235t51 -228t50 -196q0 -24 -5 -43t-35 -29l-146 402q-6 -26 -22 -74t-42 -105t-58 -114t-68 -101t-76 -69t-80 -15q-86 0 -140 53t-84 128t-41 154t-11 131zM128 456 q0 -12 5 -49t15 -85t27 -99t41 -89t54 -57t70 -3q72 46 127 123t93 164t57 176t19 159q0 44 -2 113t-17 134t-49 112t-96 47q-66 0 -118 -34t-90 -89t-64 -124t-42 -141t-23 -140t-7 -118zM212 1306q-2 48 21 87t60 64t82 37t89 5t80 -33t56 -76q40 -76 26 -135t-58 -96 t-106 -50t-119 3t-96 63t-35 131zM264 1336q0 -44 4 -76t20 -52t48 -29t88 -9q88 32 116 75t19 82t-48 69t-86 37t-92 -14t-69 -83z" />
<glyph unicode="&#xe6;" horiz-adv-x="1392" d="M48 464q0 62 10 138t31 156t55 155t83 133t113 94t148 36q72 0 117 -41t65 -111q10 -64 22 -134t26 -142q26 62 58 126t74 120t95 101t117 71q76 0 124 -54t58 -132q10 -70 -19 -120t-78 -89t-109 -72t-112 -65t-88 -69t-36 -87q0 -72 22 -146t64 -134t104 -98t144 -38 q34 0 60 18t49 40t44 40t47 18q2 0 9 -1t9 -3q-20 -74 -77 -130t-135 -56q-110 -12 -182 15t-118 85q-8 -8 -26 -14l-146 402q-6 -26 -22 -74t-42 -105t-58 -114t-68 -101t-76 -69t-80 -15q-86 0 -140 53t-84 128t-41 154t-11 131zM128 456q0 -12 5 -49t15 -85t27 -99 t41 -89t54 -57t70 -3q72 46 127 123t93 164t57 176t19 159q0 44 -2 113t-17 134t-49 112t-96 47q-66 0 -118 -34t-90 -89t-64 -124t-42 -141t-23 -140t-7 -118zM800 668q58 0 118 22t110 61t81 91t31 112q0 16 1 39t-3 45t-17 37t-39 15q-64 0 -116 -47t-89 -113t-57 -138 t-20 -124z" />
<glyph unicode="&#xe7;" horiz-adv-x="878" d="M58 498q0 42 9 108t27 141t47 151t67 137t88 99t112 38q32 0 62 -15t54 -38t39 -53t15 -60q0 -6 -2 -27t-4 -27q-10 14 -30 34t-42 40t-45 35t-39 19q-52 0 -93 -35t-70 -89t-48 -122t-31 -135t-17 -125t-5 -94q0 -82 14 -153t49 -122t95 -80t154 -29q58 0 102 14t81 39 t71 61t74 82h36q-2 -66 -34 -120t-82 -93t-111 -60t-119 -21q-108 0 -187 41t-132 110t-79 160t-26 189zM216 -352q0 10 5 31t11 42t13 37t13 16q0 -48 13 -91t41 -74t72 -49t108 -18q32 0 51 15t29 37t13 48t3 48q-16 26 -43 36t-59 18t-63 22t-54 50t-36 102t-5 178l88 -8 q-18 -78 -11 -127t28 -79t53 -49t65 -38t62 -45t47 -70q0 -40 -8 -78t-27 -68t-50 -48t-79 -18q-54 0 -105 8t-90 28t-62 55t-23 89z" />
<glyph unicode="&#xe8;" horiz-adv-x="760" d="M34 714q0 24 17 40t41 16q28 0 39 -20t15 -54q24 68 58 141t78 138t101 118t129 81q76 0 124 -54t58 -132q10 -70 -19 -120t-78 -89t-109 -72t-112 -65t-88 -69t-36 -87q0 -72 22 -146t64 -134t104 -98t144 -38q34 0 60 18t49 40t44 40t47 18q2 0 9 -1t9 -3 q-20 -74 -77 -130t-135 -56q-132 -16 -211 29t-124 125t-67 185t-44 213q-12 26 -31 43t-37 33t-31 36t-13 54zM250 676q58 0 118 22t110 61t81 91t31 112q0 16 1 39t-3 45t-17 37t-39 15q-64 0 -116 -47t-89 -113t-57 -138t-20 -124zM344 1502q4 10 17 38t21 36l178 -264 l-80 -8q-16 16 -41 36t-48 44t-38 54t-9 64z" />
<glyph unicode="&#xe9;" horiz-adv-x="760" d="M34 714q0 24 17 40t41 16q28 0 39 -20t15 -54q24 68 58 141t78 138t101 118t129 81q76 0 124 -54t58 -132q10 -70 -19 -120t-78 -89t-109 -72t-112 -65t-88 -69t-36 -87q0 -72 22 -146t64 -134t104 -98t144 -38q34 0 60 18t49 40t44 40t47 18q2 0 9 -1t9 -3 q-20 -74 -77 -130t-135 -56q-132 -16 -211 29t-124 125t-67 185t-44 213q-12 26 -31 43t-37 33t-31 36t-13 54zM250 676q58 0 118 22t110 61t81 91t31 112q0 16 1 39t-3 45t-17 37t-39 15q-64 0 -116 -47t-89 -113t-57 -138t-20 -124zM328 1304l190 248q8 -8 22 -34t18 -36 q6 -32 -9 -60t-40 -51t-52 -42t-43 -33z" />
<glyph unicode="&#xea;" horiz-adv-x="760" d="M34 714q0 24 17 40t41 16q28 0 39 -20t15 -54q24 68 58 141t78 138t101 118t129 81q76 0 124 -54t58 -132q10 -70 -19 -120t-78 -89t-109 -72t-112 -65t-88 -69t-36 -87q0 -72 22 -146t64 -134t104 -98t144 -38q34 0 60 18t49 40t44 40t47 18q2 0 9 -1t9 -3 q-20 -74 -77 -130t-135 -56q-132 -16 -211 29t-124 125t-67 185t-44 213q-12 26 -31 43t-37 33t-31 36t-13 54zM140 1328q14 28 37 59t47 63t45 63t35 61q6 12 12 37t15 50t24 43t41 18q30 0 37 -20t17 -54q22 -70 51 -123t54 -89t43 -55t16 -19l-74 -74l-162 250 q-24 -32 -48 -69t-50 -69t-56 -53t-66 -21h-9t-9 2zM250 676q58 0 118 22t110 61t81 91t31 112q0 16 1 39t-3 45t-17 37t-39 15q-64 0 -116 -47t-89 -113t-57 -138t-20 -124z" />
<glyph unicode="&#xeb;" horiz-adv-x="760" d="M34 714q0 24 17 40t41 16q28 0 39 -20t15 -54q24 68 58 141t78 138t101 118t129 81q76 0 124 -54t58 -132q10 -70 -19 -120t-78 -89t-109 -72t-112 -65t-88 -69t-36 -87q0 -72 22 -146t64 -134t104 -98t144 -38q34 0 60 18t49 40t44 40t47 18q2 0 9 -1t9 -3 q-20 -74 -77 -130t-135 -56q-132 -16 -211 29t-124 125t-67 185t-44 213q-12 26 -31 43t-37 33t-31 36t-13 54zM250 676q58 0 118 22t110 61t81 91t31 112q0 16 1 39t-3 45t-17 37t-39 15q-64 0 -116 -47t-89 -113t-57 -138t-20 -124zM278 1340q0 24 13 38t33 20t41 8t37 2 q0 -16 1 -42t-2 -51t-14 -43t-35 -18q-12 0 -25 9t-24 23t-18 28t-7 26zM602 1340q0 24 13 38t33 20t41 8t37 2q0 -16 1 -42t-2 -51t-14 -43t-35 -18q-12 0 -25 9t-24 23t-18 28t-7 26z" />
<glyph unicode="&#xec;" horiz-adv-x="426" d="M104 1526q4 10 17 38t21 36l178 -264l-80 -8q-16 16 -41 36t-48 44t-38 54t-9 64zM166 1134h78q8 -116 20 -251t29 -274t41 -277t56 -258q-20 -40 -56 -40q-28 0 -39 21t-15 55q-4 36 -13 110t-19 168t-23 197t-23 197t-19 168t-13 110q0 10 -2 38t-2 36z" />
<glyph unicode="&#xed;" horiz-adv-x="426" d="M88 1328l190 248q8 -8 22 -34t18 -36q6 -32 -9 -60t-40 -51t-52 -42t-43 -33zM166 1134q0 -8 2 -36t2 -38q4 -36 13 -110t19 -168t23 -197t23 -197t19 -168t13 -110q4 -34 15 -55t39 -21q36 0 56 40q-32 120 -56 258t-41 277t-29 274t-20 251h-78z" />
<glyph unicode="&#xee;" horiz-adv-x="426" d="M-26 1328q14 28 37 59t47 63t45 63t35 61q6 12 12 37t15 50t24 43t41 18q30 0 37 -20t17 -54q22 -70 51 -123t54 -89t43 -55t16 -19l-74 -74l-162 250q-24 -32 -48 -69t-50 -69t-56 -53t-66 -21h-9t-9 2zM166 1134h78q8 -116 20 -251t29 -274t41 -277t56 -258 q-20 -40 -56 -40q-28 0 -39 21t-15 55q-4 36 -13 110t-19 168t-23 197t-23 197t-19 168t-13 110q0 10 -2 38t-2 36z" />
<glyph unicode="&#xef;" horiz-adv-x="426" d="M-26 1388q0 24 13 38t33 20t41 8t37 2q0 -16 1 -42t-2 -51t-14 -43t-35 -18q-12 0 -25 9t-24 23t-18 28t-7 26zM166 1134h78q8 -116 20 -251t29 -274t41 -277t56 -258q-20 -40 -56 -40q-28 0 -39 21t-15 55q-4 36 -13 110t-19 168t-23 197t-23 197t-19 168t-13 110 q0 10 -2 38t-2 36zM298 1388q0 24 13 38t33 20t41 8t37 2q0 -16 1 -42t-2 -51t-14 -43t-35 -18q-12 0 -25 9t-24 23t-18 28t-7 26z" />
<glyph unicode="&#xf0;" horiz-adv-x="1144" d="M96 352q0 92 53 153t135 94t179 40t186 -8t156 -52t89 -91q12 52 12 88t-17 80t-51 104t-88 160q-84 -34 -132 -48t-76 -17t-46 -1t-40 2q-46 0 -52 19t-6 53l304 88q-26 42 -40 73t-31 57t-45 50t-82 52q-70 -34 -121 -25t-65 34t22 55t140 40q90 -22 140 -47t80 -58 t52 -74t56 -93l238 128l38 -38l18 -90q-106 -34 -163 -60t-95 -28q36 -66 67 -130t52 -128t30 -125t-1 -121q-4 -92 -28 -180t-80 -158t-149 -117t-233 -57q-76 0 -149 38t-130 94t-92 122t-35 122zM178 354q0 -52 26 -107t71 -100t103 -73t124 -28q102 0 168 40t104 94 t52 109t14 87q0 60 -47 96t-117 56t-155 27t-159 7q-48 0 -83 -20t-58 -51t-33 -68t-10 -69z" />
<glyph unicode="&#xf1;" horiz-adv-x="1048" d="M58 1082q0 20 11 26t65 -10l108 -878q36 102 59 211t46 215t52 205t76 179t118 136t181 80q42 -30 64 -84t32 -123t11 -146t1 -153t3 -144t17 -120q6 -74 21 -110t30 -64t26 -67t11 -119q-64 2 -100 67t-55 165t-26 220t-14 230t-18 197t-37 121t-75 0t-129 -164 q-58 -108 -95 -219t-63 -226t-48 -233t-50 -238q-28 -14 -49 -9t-35 22t-21 43t-5 54q-4 34 -13 105t-20 162t-23 190t-23 190t-19 162t-12 105q0 4 -1 11t-1 11zM104 1640q0 122 71 179t185 69q60 6 95 -12t55 -49t30 -67t22 -65t30 -44t56 -3t60 31t42 46t44 59t70 72 l80 -48q-124 -140 -203 -195t-128 -55t-75 39t-46 86t-41 86t-59 39q-60 0 -98 -14t-61 -41t-36 -66t-21 -87q-28 10 -50 14t-22 26z" />
<glyph unicode="&#xf2;" horiz-adv-x="780" d="M58 510q0 54 7 130t23 158t44 162t72 144t103 103t139 39q34 0 57 -12t41 -33t32 -47t32 -56q26 -90 52 -197t41 -216t11 -214t-37 -193t-103 -153t-188 -95q-90 0 -153 47t-101 118t-55 155t-17 160zM130 548q0 -60 10 -136t39 -145t79 -116t128 -47q104 18 165 97 t85 188t15 234t-42 234t-85 187t-116 96q-58 0 -102 -32t-74 -84t-50 -117t-32 -131t-16 -126t-4 -102zM322 1654q4 10 17 38t21 36l178 -264l-80 -8q-16 16 -41 36t-48 44t-38 54t-9 64z" />
<glyph unicode="&#xf3;" horiz-adv-x="780" d="M58 510q0 54 7 130t23 158t44 162t72 144t103 103t139 39q34 0 57 -12t41 -33t32 -47t32 -56q26 -90 52 -197t41 -216t11 -214t-37 -193t-103 -153t-188 -95q-90 0 -153 47t-101 118t-55 155t-17 160zM130 548q0 -60 10 -136t39 -145t79 -116t128 -47q104 18 165 97 t85 188t15 234t-42 234t-85 187t-116 96q-58 0 -102 -32t-74 -84t-50 -117t-32 -131t-16 -126t-4 -102zM354 1424l190 248q8 -8 22 -34t18 -36q6 -32 -9 -60t-40 -51t-52 -42t-43 -33z" />
<glyph unicode="&#xf4;" horiz-adv-x="780" d="M58 510q0 54 7 130t23 158t44 162t72 144t103 103t139 39q34 0 57 -12t41 -33t32 -47t32 -56q26 -90 52 -197t41 -216t11 -214t-37 -193t-103 -153t-188 -95q-90 0 -153 47t-101 118t-55 155t-17 160zM130 548q0 -60 10 -136t39 -145t79 -116t128 -47q104 18 165 97 t85 188t15 234t-42 234t-85 187t-116 96q-58 0 -102 -32t-74 -84t-50 -117t-32 -131t-16 -126t-4 -102zM150 1328q14 28 37 59t47 63t45 63t35 61q6 12 12 37t15 50t24 43t41 18q30 0 37 -20t17 -54q22 -70 51 -123t54 -89t43 -55t16 -19l-74 -74l-162 250q-24 -32 -48 -69 t-50 -69t-56 -53t-66 -21h-9t-9 2z" />
<glyph unicode="&#xf5;" horiz-adv-x="780" d="M-28 1640q0 122 71 179t185 69q60 6 95 -12t55 -49t30 -67t22 -65t30 -44t56 -3t60 31t42 46t44 59t70 72l80 -48q-124 -140 -203 -195t-128 -55t-75 39t-46 86t-41 86t-59 39q-60 0 -98 -14t-61 -41t-36 -66t-21 -87q-28 10 -50 14t-22 26zM58 510q0 54 7 130t23 158 t44 162t72 144t103 103t139 39q34 0 57 -12t41 -33t32 -47t32 -56q26 -90 52 -197t41 -216t11 -214t-37 -193t-103 -153t-188 -95q-90 0 -153 47t-101 118t-55 155t-17 160zM130 548q0 -60 10 -136t39 -145t79 -116t128 -47q104 18 165 97t85 188t15 234t-42 234t-85 187 t-116 96q-58 0 -102 -32t-74 -84t-50 -117t-32 -131t-16 -126t-4 -102z" />
<glyph unicode="&#xf6;" horiz-adv-x="780" d="M58 510q0 54 7 130t23 158t44 162t72 144t103 103t139 39q34 0 57 -12t41 -33t32 -47t32 -56q26 -90 52 -197t41 -216t11 -214t-37 -193t-103 -153t-188 -95q-90 0 -153 47t-101 118t-55 155t-17 160zM130 548q0 -60 10 -136t39 -145t79 -116t128 -47q104 18 165 97 t85 188t15 234t-42 234t-85 187t-116 96q-58 0 -102 -32t-74 -84t-50 -117t-32 -131t-16 -126t-4 -102zM176 1452q0 24 13 38t33 20t41 8t37 2q0 -16 1 -42t-2 -51t-14 -43t-35 -18q-12 0 -25 9t-24 23t-18 28t-7 26zM500 1452q0 24 13 38t33 20t41 8t37 2q0 -16 1 -42 t-2 -51t-14 -43t-35 -18q-12 0 -25 9t-24 23t-18 28t-7 26z" />
<glyph unicode="&#xf7;" horiz-adv-x="656" d="M50 608v38q0 2 17 7t40 11t48 12t41 8q22 2 64 6t89 7t89 5t66 2q38 -20 38 -56v-8t-2 -10q-28 -2 -86 -5t-122 -6t-122 -5t-86 -4q-10 -2 -37 -2h-37zM220 440q14 0 32 -1t36 -5t33 -14t21 -28l-72 -74q-18 6 -29 21t-15 33t-5 36t-1 32zM256 904q54 18 80 13t29 -23 t-13 -46t-46 -54q-16 6 -26 19t-15 29t-7 33t-2 29z" />
<glyph unicode="&#xf8;" horiz-adv-x="780" d="M8 -39l679 1291q13 25 31 31t42 6v-37l-722 -1323zM58 510q0 54 7 130t23 158t44 162t72 144t103 103t139 39q34 0 57 -12t41 -33t32 -47t32 -56q26 -90 52 -197t41 -216t11 -214t-37 -193t-103 -153t-188 -95q-90 0 -153 47t-101 118t-55 155t-17 160zM130 548 q0 -60 10 -136t39 -145t79 -116t128 -47q104 18 165 97t85 188t15 234t-42 234t-85 187t-116 96q-58 0 -102 -32t-74 -84t-50 -117t-32 -131t-16 -126t-4 -102z" />
<glyph unicode="&#xf9;" horiz-adv-x="1008" d="M59 417q-5 121 2 248t19 250t16 219h82q0 -64 -8 -124t-17 -120t-16 -121t-7 -127q0 -42 -2 -98t2 -116t14 -117t36 -103t68 -74t108 -28q100 32 168 93t110 142t61 176t22 193t-8 193t-29 177q0 30 20 62t46 50t50 16t32 -38q0 -124 -12 -253t-3 -251t54 -230t157 -188 v-30t-5 -43t-15 -41t-30 -24q-40 24 -76 77t-65 112t-50 109t-27 68q-14 -30 -35 -78t-48 -101t-60 -106t-72 -96t-82 -70t-89 -27q-112 -2 -177 54t-97 150t-37 215zM348 1558q4 10 17 38t21 36l178 -264l-80 -8q-16 16 -41 36t-48 44t-38 54t-9 64z" />
<glyph unicode="&#xfa;" horiz-adv-x="1008" d="M59 417q-5 121 2 248t19 250t16 219h82q0 -64 -8 -124t-17 -120t-16 -121t-7 -127q0 -42 -2 -98t2 -116t14 -117t36 -103t68 -74t108 -28q100 32 168 93t110 142t61 176t22 193t-8 193t-29 177q0 30 20 62t46 50t50 16t32 -38q0 -124 -12 -253t-3 -251t54 -230t157 -188 v-30t-5 -43t-15 -41t-30 -24q-40 24 -76 77t-65 112t-50 109t-27 68q-14 -30 -35 -78t-48 -101t-60 -106t-72 -96t-82 -70t-89 -27q-112 -2 -177 54t-97 150t-37 215zM348 1336l190 248q8 -8 22 -34t18 -36q6 -32 -9 -60t-40 -51t-52 -42t-43 -33z" />
<glyph unicode="&#xfb;" horiz-adv-x="1008" d="M59 417q-5 121 2 248t19 250t16 219h82q0 -64 -8 -124t-17 -120t-16 -121t-7 -127q0 -42 -2 -98t2 -116t14 -117t36 -103t68 -74t108 -28q100 32 168 93t110 142t61 176t22 193t-8 193t-29 177q0 30 20 62t46 50t50 16t32 -38q0 -124 -12 -253t-3 -251t54 -230t157 -188 v-30t-5 -43t-15 -41t-30 -24q-40 24 -76 77t-65 112t-50 109t-27 68q-14 -30 -35 -78t-48 -101t-60 -106t-72 -96t-82 -70t-89 -27q-112 -2 -177 54t-97 150t-37 215zM264 1328q14 28 37 59t47 63t45 63t35 61q6 12 12 37t15 50t24 43t41 18q30 0 37 -20t17 -54 q22 -70 51 -123t54 -89t43 -55t16 -19l-74 -74l-162 250q-24 -32 -48 -69t-50 -69t-56 -53t-66 -21h-9t-9 2z" />
<glyph unicode="&#xfc;" horiz-adv-x="1008" d="M59 417q-5 121 2 248t19 250t16 219h82q0 -64 -8 -124t-17 -120t-16 -121t-7 -127q0 -42 -2 -98t2 -116t14 -117t36 -103t68 -74t108 -28q100 32 168 93t110 142t61 176t22 193t-8 193t-29 177q0 30 20 62t46 50t50 16t32 -38q0 -124 -12 -253t-3 -251t54 -230t157 -188 v-30t-5 -43t-15 -41t-30 -24q-40 24 -76 77t-65 112t-50 109t-27 68q-14 -30 -35 -78t-48 -101t-60 -106t-72 -96t-82 -70t-89 -27q-112 -2 -177 54t-97 150t-37 215zM232 1364q0 24 13 38t33 20t41 8t37 2q0 -16 1 -42t-2 -51t-14 -43t-35 -18q-12 0 -25 9t-24 23t-18 28 t-7 26zM556 1364q0 24 13 38t33 20t41 8t37 2q0 -16 1 -42t-2 -51t-14 -43t-35 -18q-12 0 -25 9t-24 23t-18 28t-7 26z" />
<glyph unicode="&#xfd;" horiz-adv-x="952" d="M58 706q0 58 3 109t8 102t12 107t15 122q12 24 33 34t45 10q0 -60 -7 -120t-15 -120t-15 -120t-7 -122q0 -18 3 -74t10 -130t21 -155t37 -148t55 -111t78 -44q70 0 134 51t119 118t98 134t71 101v608q64 16 92 -22t34 -113t-5 -176t-24 -211t-23 -218t-2 -196 q-2 -34 -3 -106t-1 -162v-190v-190t1 -162t3 -106l-36 -36q-64 40 -108 92t-44 122q0 2 6 14t14 25t15 24t7 15l74 -146v988q-36 -40 -81 -96t-99 -109t-116 -90t-130 -37q-64 0 -110 45t-76 116t-47 158t-26 168t-11 148t-2 99zM376 1344l190 248q8 -8 22 -34t18 -36 q6 -32 -9 -60t-40 -51t-52 -42t-43 -33z" />
<glyph unicode="&#xfe;" horiz-adv-x="808" d="M109 676q-1 244 3 467t10 409l112 72l-56 -472q128 72 220 99t154 21t99 -39t57 -81t27 -105t9 -111q0 -154 -46 -268t-122 -210t-172 -184t-194 -186q-10 -40 -11 -86t2 -96t7 -101t6 -99q0 -12 -1 -21t-8 -15t-23 -6t-44 8q-16 250 -22 505t-7 499zM181 374 q1 -80 11 -142q60 22 137 86t147 152t123 190t66 199t-23 178t-144 129q-148 0 -227 -75t-79 -211q0 -76 -4 -164t-6 -175t-1 -167z" />
<glyph unicode="&#xff;" horiz-adv-x="952" d="M58 706q0 58 3 109t8 102t12 107t15 122q12 24 33 34t45 10q0 -60 -7 -120t-15 -120t-15 -120t-7 -122q0 -18 3 -74t10 -130t21 -155t37 -148t55 -111t78 -44q70 0 134 51t119 118t98 134t71 101v608q64 16 92 -22t34 -113t-5 -176t-24 -211t-23 -218t-2 -196 q-2 -34 -3 -106t-1 -162v-190v-190t1 -162t3 -106l-36 -36q-64 40 -108 92t-44 122q0 2 6 14t14 25t15 24t7 15l74 -146v988q-36 -40 -81 -96t-99 -109t-116 -90t-130 -37q-64 0 -110 45t-76 116t-47 158t-26 168t-11 148t-2 99zM268 1356q0 24 13 38t33 20t41 8t37 2 q0 -16 1 -42t-2 -51t-14 -43t-35 -18q-12 0 -25 9t-24 23t-18 28t-7 26zM592 1356q0 24 13 38t33 20t41 8t37 2q0 -16 1 -42t-2 -51t-14 -43t-35 -18q-12 0 -25 9t-24 23t-18 28t-7 26z" />
<glyph unicode="&#x152;" horiz-adv-x="1784" d="M46 586q0 64 11 157t35 195t62 203t92 182t124 131t160 50q84 -26 149 -100t112 -178t73 -228t30 -248q14 -70 10 -154t-25 -168t-60 -163t-95 -139t-129 -95t-161 -33q-106 0 -180 61t-120 151t-67 192t-21 184zM118 614q0 -82 11 -171t45 -164t96 -123t162 -48 q156 20 245 104t128 203t34 258t-38 268t-87 235t-114 158q0 52 -24 75t-72 23q-72 0 -129 -48t-100 -123t-73 -169t-49 -185t-27 -169t-8 -124zM736 776q0 22 17 30t38 14t39 15t20 31l38 510l-84 -72q18 78 61 125t101 74t127 39t140 19t137 14t118 25q24 16 31 -6t3 -50 t-17 -50t-33 -6q-4 2 -18 3t-32 3t-35 3t-25 1q-58 0 -108 -5t-98 -18t-95 -37t-101 -60q-10 -138 -25 -274t-9 -276h34l840 256h74q-108 -68 -229 -108t-246 -74t-247 -74t-230 -108v-41t-1 -61t-1 -60v-40q0 -34 -1 -98t10 -128t42 -112t95 -48q62 0 141 27t158 70t147 95 t106 102v-110q0 -2 -23 -18t-61 -39t-86 -50t-97 -55t-94 -53t-77 -41q-8 -4 -29 -10t-45 -12t-45 -10t-29 -4q-48 0 -81 35t-54 82t-32 96t-15 79q-4 20 -9 73t-11 111t-11 110t-5 72q-22 16 -50 38t-28 56z" />
<glyph unicode="&#x153;" horiz-adv-x="1288" d="M66 522q0 56 7 131t23 157t44 162t72 144t103 103t139 39q34 0 57 -12t41 -33t32 -47t32 -56q4 -60 10 -129t16 -139q50 106 124 198t182 134q76 0 124 -54t58 -132q10 -70 -19 -120t-78 -89t-109 -72t-112 -65t-88 -69t-36 -87q0 -72 22 -146t64 -134t104 -98t144 -38 q34 0 60 18t49 40t44 40t47 18q2 0 9 -1t9 -3q-20 -74 -77 -130t-135 -56q-94 -10 -159 9t-110 61t-74 101t-49 129q-26 -90 -83 -157t-161 -97q-90 0 -153 47t-101 118t-55 155t-17 160zM138 560q0 -60 10 -136t39 -145t79 -116t128 -47q52 12 88 51t58 98t32 132t10 151 v14q-2 98 -17 197t-38 182t-52 139t-59 72q-58 0 -102 -32t-74 -84t-50 -117t-32 -131t-16 -126t-4 -102zM686 676q58 0 118 22t110 61t81 91t31 112q0 16 1 39t-3 45t-17 37t-39 15q-64 0 -116 -47t-89 -113t-57 -138t-20 -124z" />
<glyph unicode="&#x178;" horiz-adv-x="878" d="M36 1756q10 22 23 31t31 9q20 0 33 -9t23 -31q106 -486 366 -914l110 110q14 102 28 198q12 82 24 169l20 145v36q4 32 10 82t12 97t11 80l5 33h86l-234 -1756l-36 -36q-28 14 -33 23t-5 29q0 88 12 175t26 174t26 174t12 175q0 6 -1 27t-1 27q4 -46 -18 -62t-54 -16 q-4 0 -18 2t-18 4q-66 108 -137 232t-133 256t-108 268t-62 268zM192 2020q0 24 13 38t33 20t41 8t37 2q0 -16 1 -42t-2 -51t-14 -43t-35 -18q-12 0 -25 9t-24 23t-18 28t-7 26zM516 2020q0 24 13 38t33 20t41 8t37 2q0 -16 1 -42t-2 -51t-14 -43t-35 -18q-12 0 -25 9 t-24 23t-18 28t-7 26z" />
<glyph unicode="&#x2c6;" horiz-adv-x="670" d="M128 1328q14 28 37 59t47 63t45 63t35 61q6 12 12 37t15 50t24 43t41 18q30 0 37 -20t17 -54q22 -70 51 -123t54 -89t43 -55t16 -19l-74 -74l-162 250q-24 -32 -48 -69t-50 -69t-56 -53t-66 -21h-9t-9 2z" />
<glyph unicode="&#x2dc;" horiz-adv-x="928" d="M40 1640q0 122 71 179t185 69q60 6 95 -12t55 -49t30 -67t22 -65t30 -44t56 -3t60 31t42 46t44 59t70 72l80 -48q-124 -140 -203 -195t-128 -55t-75 39t-46 86t-41 86t-59 39q-60 0 -98 -14t-61 -41t-36 -66t-21 -87q-28 10 -50 14t-22 26z" />
<glyph unicode="&#x2000;" horiz-adv-x="1117" />
<glyph unicode="&#x2001;" horiz-adv-x="2234" />
<glyph unicode="&#x2002;" horiz-adv-x="1117" />
<glyph unicode="&#x2003;" horiz-adv-x="2234" />
<glyph unicode="&#x2004;" horiz-adv-x="744" />
<glyph unicode="&#x2005;" horiz-adv-x="558" />
<glyph unicode="&#x2006;" horiz-adv-x="372" />
<glyph unicode="&#x2007;" horiz-adv-x="372" />
<glyph unicode="&#x2008;" horiz-adv-x="279" />
<glyph unicode="&#x2009;" horiz-adv-x="446" />
<glyph unicode="&#x200a;" horiz-adv-x="124" />
<glyph unicode="&#x2010;" horiz-adv-x="732" d="M58 544v38q0 2 17 7t40 11t48 12t41 8q22 2 79 8t122 12t122 11t81 5q38 -20 38 -56v-8t-2 -10q-28 -2 -101 -7t-155 -11t-155 -11t-101 -7q-10 -2 -37 -2h-37z" />
<glyph unicode="&#x2011;" horiz-adv-x="732" d="M58 544v38q0 2 17 7t40 11t48 12t41 8q22 2 79 8t122 12t122 11t81 5q38 -20 38 -56v-8t-2 -10q-28 -2 -101 -7t-155 -11t-155 -11t-101 -7q-10 -2 -37 -2h-37z" />
<glyph unicode="&#x2012;" horiz-adv-x="732" d="M58 544v38q0 2 17 7t40 11t48 12t41 8q22 2 79 8t122 12t122 11t81 5q38 -20 38 -56v-8t-2 -10q-28 -2 -101 -7t-155 -11t-155 -11t-101 -7q-10 -2 -37 -2h-37z" />
<glyph unicode="&#x2013;" horiz-adv-x="624" d="M58 544v38q0 2 17 7t40 11t48 12t41 8q22 2 64 6t89 7t89 5t66 2q38 -20 38 -56v-8t-2 -10q-28 -2 -86 -5t-122 -6t-122 -5t-86 -4q-10 -2 -37 -2h-37z" />
<glyph unicode="&#x2014;" horiz-adv-x="1032" d="M58 544v38q0 2 17 7t40 11t48 12t41 8q14 2 67 6t125 9t153 10t153 9t125 7t69 3q38 -20 38 -56v-8t-2 -10q-18 -2 -80 -5t-144 -8t-176 -10t-176 -9t-144 -8t-80 -4q-10 -2 -37 -2h-37z" />
<glyph unicode="&#x2018;" horiz-adv-x="220" d="M36 1026q0 14 4 71t15 125t33 128t58 78v-402l-74 -74q-4 2 -10 12t-12 22t-10 23t-4 17z" />
<glyph unicode="&#x2019;" horiz-adv-x="220" d="M36 1026q0 14 4 71t15 125t33 128t58 78v-402l-74 -74q-4 2 -10 12t-12 22t-10 23t-4 17z" />
<glyph unicode="&#x201a;" horiz-adv-x="220" d="M36 1026q0 14 4 71t15 125t33 128t58 78v-402l-74 -74q-4 2 -10 12t-12 22t-10 23t-4 17z" />
<glyph unicode="&#x201c;" horiz-adv-x="622" d="M60 938q0 46 4 119t10 143t12 122t10 56h74v-512q24 -12 30 -31t2 -37t-18 -31t-32 -13q-28 0 -46 25t-28 57t-14 62t-4 40zM383 882q-1 62 1 136t10 150t25 138t46 101t73 39q0 -12 -3 -67t-10 -128t-19 -155t-29 -152t-40 -115t-53 -45q0 36 -1 98z" />
<glyph unicode="&#x201d;" horiz-adv-x="622" d="M60 938q0 46 4 119t10 143t12 122t10 56h74v-512q24 -12 30 -31t2 -37t-18 -31t-32 -13q-28 0 -46 25t-28 57t-14 62t-4 40zM383 882q-1 62 1 136t10 150t25 138t46 101t73 39q0 -12 -3 -67t-10 -128t-19 -155t-29 -152t-40 -115t-53 -45q0 36 -1 98z" />
<glyph unicode="&#x201e;" horiz-adv-x="680" d="M114 -40q0 46 4 119t10 143t12 122t10 56h74v-512q24 -12 30 -31t2 -37t-18 -31t-32 -13q-28 0 -46 25t-28 57t-14 62t-4 40zM437 -97q-1 63 1 137t10 150t25 138t46 101t73 39q0 -12 -3 -67t-10 -128t-19 -155t-29 -152t-40 -115t-53 -45q0 34 -1 97z" />
<glyph unicode="&#x2022;" horiz-adv-x="624" d="M148 598q0 40 26 63t63 34t78 14t71 3q0 -26 2 -70t-4 -86t-27 -73t-67 -31q-22 0 -47 15t-46 38t-35 48t-14 45z" />
<glyph unicode="&#x2026;" horiz-adv-x="972" d="M126 54q0 24 13 38t33 20t41 8t37 2q0 -16 1 -42t-2 -51t-14 -43t-35 -18q-12 0 -25 9t-24 23t-18 28t-7 26zM450 54q0 24 13 38t33 20t41 8t37 2q0 -16 1 -42t-2 -51t-14 -43t-35 -18q-12 0 -25 9t-24 23t-18 28t-7 26zM774 54q0 24 13 38t33 20t41 8t37 2q0 -16 1 -42 t-2 -51t-14 -43t-35 -18q-12 0 -25 9t-24 23t-18 28t-7 26z" />
<glyph unicode="&#x202f;" horiz-adv-x="446" />
<glyph unicode="&#x2039;" horiz-adv-x="914" d="M104 446v8t2 8l548 586h68l-434 -512q0 -24 5 -44t33 -30l584 -146v-82q-82 0 -184 21t-206 48t-202 52t-176 33q-38 18 -38 58z" />
<glyph unicode="&#x203a;" horiz-adv-x="818" d="M52 1020q8 34 38 37t54 3q24 2 63 -12t85 -36t97 -49t98 -52t87 -45t64 -28q4 -2 20 -7t35 -11t35 -11t20 -7q4 -4 7 -13t-8 -33t-40 -67t-88 -115t-152 -178t-233 -254q-6 -2 -12 -2q-4 -2 -10 -2h-8q-24 0 -46 6t-32 36q162 116 274 249t200 299z" />
<glyph unicode="&#x205f;" horiz-adv-x="558" />
<glyph unicode="&#x20ac;" horiz-adv-x="1216" d="M32 704q52 4 103 13t97 37q6 82 33 184t69 208t99 207t124 180t142 127t157 48q74 0 74 -76q0 -22 -5 -42t-33 -30q-74 42 -143 21t-129 -82t-110 -150t-85 -184t-54 -184t-19 -149q54 0 104 17t100 38t102 38t106 17q6 0 18 -19t18 -19q-88 -58 -155 -89t-116 -47 t-81 -23t-52 -16t-28 -26t-8 -55q0 -14 -1 -47t2 -67t14 -60t33 -26q56 0 112 30t112 66t112 66t112 30q4 0 9 -11t9 -23t9 -23t9 -11l-460 -212q-26 -12 -18 -45t37 -77t72 -91t88 -87t86 -66t67 -26q50 0 90 22t76 48t72 48t78 22q24 -6 26 -26t-14 -46t-47 -55t-72 -53 t-92 -40t-107 -16q-92 0 -162 43t-125 109t-99 144t-82 148h-18q-32 0 -54 -7t-41 -15t-41 -15t-56 -7q-30 52 -28 80t22 41t52 14t63 1t53 1t22 15q0 16 -4 49t-12 68t-20 65t-28 42q-18 12 -35 6t-37 -20t-45 -27t-59 -15z" />
<glyph unicode="&#x2122;" horiz-adv-x="1984" d="M36 1390q6 20 65 38t147 36t195 33t210 26t192 17t143 6v-78q-26 0 -52 -1t-52 -3q2 -46 12 -123t29 -165t48 -179t70 -164t93 -119t116 -46q98 52 171 144t128 203t97 230t80 227h72q0 -152 13 -311t29 -319t29 -318t13 -306v-32t-7 -38t-24 -27t-49 1q0 2 -5 65 t-13 162t-17 222t-18 244t-15 227t-8 174q-4 -6 -25 -56t-56 -120t-80 -151t-97 -148t-108 -110t-110 -39q-46 0 -89 25t-81 60t-69 73t-53 64q-8 -78 2 -154t27 -151t32 -150t15 -151q0 -10 1 -28t-5 -35t-22 -27t-50 0l-110 916l-146 366q-6 16 12 30t46 24 q-74 -10 -145 -25t-141 -39v-21t-1 -33t-1 -34v-22q0 -156 12 -311t27 -311t28 -311t13 -311h-78q-10 80 -17 190t-15 235t-15 256t-16 251t-21 221t-26 165h-294z" />
<glyph unicode="&#xe000;" horiz-adv-x="1270" d="M0 0v1270h1270v-1270h-1270z" />
<glyph unicode="&#xfb01;" horiz-adv-x="1298" d="M86 434v82q20 0 58 3t78 10t74 21t46 38q0 110 -14 219t-28 207t-19 180t16 139t74 84t155 13q86 -62 128 -128t58 -142t14 -163t-2 -189h-42q0 26 -1 74t-6 106t-16 117t-33 108t-56 80t-84 31q-58 2 -84 -26t-32 -79t0 -122t14 -153q14 -124 24 -209t44 -165h550 l-38 -74h-508q0 -82 22 -161t49 -156t50 -153t23 -152q0 -20 -7 -31t-31 -23q-30 16 -53 46t-19 64q-4 20 -13 63t-19 97t-23 114t-23 114t-19 97t-13 63q-70 -20 -145 -32t-149 -12zM792 1274q10 22 23 31t31 9q30 0 44 -20t20 -47t6 -55v-42q-26 0 -46 12t-34 30t-25 40 t-19 42zM934 872h78q8 -116 20 -251t29 -274t41 -277t56 -258q-20 -40 -56 -40q-28 0 -39 21t-15 55q-4 36 -13 110t-19 168t-23 197t-23 197t-19 168t-13 110q0 10 -2 38t-2 36z" />
<glyph unicode="&#xfb02;" horiz-adv-x="1234" d="M86 434v82q20 0 58 3t78 10t74 21t46 38q0 110 -14 219t-28 207t-19 180t16 139t74 84t155 13q86 -62 128 -128t58 -142t14 -163t-2 -189h-42q0 26 -1 74t-6 106t-16 117t-33 108t-56 80t-84 31q-58 2 -84 -26t-32 -79t0 -122t14 -153q14 -124 24 -209t44 -165h550 l-38 -74h-508q0 -82 22 -161t49 -156t50 -153t23 -152q0 -20 -7 -31t-31 -23q-30 16 -53 46t-19 64q-4 20 -13 63t-19 97t-23 114t-23 114t-19 97t-13 63q-70 -20 -145 -32t-149 -12zM768 1552q18 12 31 15t22 1t14 -8t7 -8q24 -92 40 -215t29 -261t26 -283t29 -281t39 -255 t55 -205q0 -6 -4 -17t-10 -23t-12 -22t-10 -12q-30 10 -54 72t-43 160t-35 222t-29 257t-24 267t-23 250t-23 207t-25 139z" />
</font>
</defs>
</svg>
